SplineFontDB: 3.2
FontName: UniversalAccreditationFR
FullName: Universal Accreditation (FR)
FamilyName: Universal Accreditation FR
Weight: Book
Copyright: origianl font by : http://www.tracertong.co.uk/
Version: December 2024
ItalicAngle: 0
UnderlinePosition: -100
UnderlineWidth: 50
Ascent: 800
Descent: 200
InvalidEm: 0
sfntRevision: 0x00010000
LayerCount: 2
Layer: 0 1 "Arri+AOgA-re" 1
Layer: 1 1 "Avant" 0
XUID: [1021 271 -528332102 8810]
StyleMap: 0x0040
FSType: 4
OS2Version: 3
OS2_WeightWidthSlopeOnly: 0
OS2_UseTypoMetrics: 0
CreationTime: 1146432420
ModificationTime: 1734561628
PfmFamily: 17
TTFWeight: 400
TTFWidth: 5
LineGap: 49
VLineGap: 0
Panose: 2 0 5 8 4 0 0 2 0 3
OS2TypoAscent: 723
OS2TypoAOffset: 0
OS2TypoDescent: -3
OS2TypoDOffset: 0
OS2TypoLinegap: 49
OS2WinAscent: 802
OS2WinAOffset: 0
OS2WinDescent: 154
OS2WinDOffset: 0
HheadAscent: 723
HheadAOffset: 0
HheadDescent: -3
HheadDOffset: 0
OS2SubXSize: 700
OS2SubYSize: 650
OS2SubXOff: 0
OS2SubYOff: 140
OS2SupXSize: 700
OS2SupYSize: 650
OS2SupXOff: 0
OS2SupYOff: 477
OS2StrikeYSize: 50
OS2StrikeYPos: 250
OS2CapHeight: 722
OS2XHeight: 724
OS2Vendor: 'TrTg'
OS2CodePages: 00000001.00000000
OS2UnicodeRanges: 00000001.00000000.00000000.00000000
Lookup: 258 0 0 "'kern' Cr+AOkA-nage horizontal dans Latin lookup 0" { "sous-table 'kern' Cr+AOkA-nage horizontal dans Latin lookup 0" [150,15,0] } ['kern' ('latn' <'dflt' > ) ]
MarkAttachClasses: 1
DEI: 91125
TtTable: prep
PUSHW_1
 0
CALL
SVTCA[y-axis]
PUSHW_3
 1
 1
 2
CALL
SVTCA[x-axis]
PUSHW_3
 2
 1
 2
CALL
SVTCA[x-axis]
PUSHW_8
 2
 153
 138
 108
 77
 46
 0
 8
CALL
SVTCA[y-axis]
PUSHW_8
 1
 184
 138
 108
 77
 46
 0
 8
CALL
SVTCA[y-axis]
PUSHW_3
 3
 6
 7
CALL
PUSHW_1
 0
DUP
RCVT
RDTG
ROUND[Black]
RTG
WCVTP
EndTTInstrs
TtTable: fpgm
PUSHW_1
 0
FDEF
MPPEM
PUSHW_1
 9
LT
IF
PUSHB_2
 1
 1
INSTCTRL
EIF
PUSHW_1
 511
SCANCTRL
PUSHW_1
 68
SCVTCI
PUSHW_2
 9
 3
SDS
SDB
ENDF
PUSHW_1
 1
FDEF
DUP
DUP
RCVT
ROUND[Black]
WCVTP
PUSHB_1
 1
ADD
ENDF
PUSHW_1
 2
FDEF
PUSHW_1
 1
LOOPCALL
POP

StartChar: quotedbl
Encoding: 34 34 1
Width: 167
GlyphClass: 1
Flags: W
LayerCount: 2
Fore
SplineSet
19 719 m 1,0,-1
 55 719 l 1,1,-1
 55 559 l 1,2,-1
 19 559 l 1,3,-1
 19 719 l 1,0,-1
111 719 m 1,4,-1
 147 719 l 1,5,-1
 147 559 l 1,6,-1
 111 559 l 1,7,-1
 111 719 l 1,4,-1
EndSplineSet
Validated: 1
EndChar

StartChar: numbersign
Encoding: 35 35 2
Width: 224
GlyphClass: 1
Flags: W
LayerCount: 2
Fore
SplineSet
119 235 m 1,0,-1
 71 235 l 1,1,2
 63 177 63 177 55.5 117.5 c 128,-1,3
 48 58 48 58 40 0 c 1,4,-1
 5 0 l 1,5,-1
 35 235 l 1,6,-1
 -12 235 l 1,7,-1
 -12 271 l 1,8,-1
 39 271 l 1,9,10
 45 316 45 316 51.5 359.5 c 128,-1,11
 58 403 58 403 64 449 c 1,12,-1
 15 449 l 1,13,-1
 15 484 l 1,14,-1
 68 484 l 1,15,16
 76 542 76 542 83.5 601.5 c 128,-1,17
 91 661 91 661 98 719 c 1,18,-1
 134 719 l 1,19,-1
 103 484 l 1,20,-1
 152 484 l 1,21,22
 160 542 160 542 167.5 601.5 c 128,-1,23
 175 661 175 661 182 719 c 1,24,-1
 218 719 l 1,25,-1
 187 484 l 1,26,-1
 235 484 l 1,27,-1
 235 449 l 1,28,-1
 183 449 l 1,29,30
 178 403 178 403 171.5 359.5 c 128,-1,31
 165 316 165 316 159 271 c 1,32,-1
 207 271 l 1,33,-1
 207 235 l 1,34,-1
 155 235 l 1,35,36
 147 177 147 177 139.5 117.5 c 128,-1,37
 132 58 132 58 124 0 c 1,38,-1
 89 0 l 1,39,-1
 119 235 l 1,0,-1
148 449 m 1,40,-1
 99 449 l 1,41,42
 94 403 94 403 87.5 359.5 c 128,-1,43
 81 316 81 316 75 271 c 1,44,-1
 123 271 l 1,45,-1
 148 449 l 1,40,-1
EndSplineSet
Validated: 1
EndChar

StartChar: dollar
Encoding: 36 36 3
Width: 224
GlyphClass: 1
Flags: W
LayerCount: 2
Fore
SplineSet
157 644 m 2,0,1
 157 671 157 671 145 679.5 c 128,-1,2
 133 688 133 688 111 688 c 0,3,4
 90 688 90 688 78 679.5 c 128,-1,5
 66 671 66 671 66 644 c 2,6,-1
 66 538 l 2,7,8
 66 521 66 521 69.5 503.5 c 128,-1,9
 73 486 73 486 82 470 c 2,10,-1
 169 315 l 2,11,12
 180 294 180 294 189 265.5 c 128,-1,13
 198 237 198 237 198 207 c 2,14,-1
 198 62 l 2,15,16
 198 33 198 33 182 16 c 128,-1,17
 166 -1 166 -1 127 -4 c 1,18,-1
 127 -84 l 1,19,-1
 92 -84 l 1,20,-1
 92 -4 l 1,21,22
 54 0 54 0 39 16 c 128,-1,23
 24 32 24 32 24 65 c 2,24,-1
 24 205 l 1,25,-1
 66 205 l 1,26,-1
 66 75 l 2,27,28
 66 49 66 49 78 40.5 c 128,-1,29
 90 32 90 32 111 32 c 0,30,31
 133 32 133 32 145 40.5 c 128,-1,32
 157 49 157 49 157 75 c 2,33,-1
 157 197 l 2,34,35
 157 224 157 224 152.5 245.5 c 128,-1,36
 148 267 148 267 136 288 c 2,37,-1
 48 444 l 2,38,39
 35 467 35 467 29.5 494.5 c 128,-1,40
 24 522 24 522 24 543 c 2,41,-1
 24 658 l 2,42,43
 24 686 24 686 41.5 703 c 128,-1,44
 59 720 59 720 92 723 c 1,45,-1
 92 802 l 1,46,-1
 127 802 l 1,47,-1
 127 723 l 1,48,49
 198 720 198 720 198 656 c 2,50,-1
 198 524 l 1,51,-1
 157 524 l 1,52,-1
 157 644 l 2,0,1
EndSplineSet
Validated: 1
EndChar

StartChar: percent
Encoding: 65537 -1 4
Width: 278
GlyphClass: 1
Flags: W
LayerCount: 2
Fore
SplineSet
13 681 m 2,0,1
 13 723 13 723 60 723 c 0,2,3
 105 723 105 723 108 681 c 2,4,-1
 108 386 l 2,5,6
 108 366 108 366 95.5 355 c 128,-1,7
 83 344 83 344 60 344 c 0,8,9
 13 344 13 344 13 386 c 2,10,-1
 13 681 l 2,0,1
76 678 m 2,11,12
 76 686 76 686 72 691 c 128,-1,13
 68 696 68 696 60 696 c 256,14,15
 52 696 52 696 48 691 c 128,-1,16
 44 686 44 686 44 678 c 2,17,-1
 44 389 l 2,18,19
 44 372 44 372 60 372 c 256,20,21
 76 372 76 372 76 389 c 2,22,-1
 76 678 l 2,11,12
169 333 m 2,23,24
 169 354 169 354 181.5 365 c 128,-1,25
 194 376 194 376 216 376 c 0,26,27
 261 376 261 376 264 333 c 2,28,-1
 264 39 l 2,29,30
 264 18 264 18 251.5 7 c 128,-1,31
 239 -4 239 -4 216 -4 c 0,32,33
 194 -4 194 -4 181.5 7 c 128,-1,34
 169 18 169 18 169 39 c 2,35,-1
 169 333 l 2,23,24
232 330 m 2,36,37
 232 338 232 338 228 343 c 128,-1,38
 224 348 224 348 216 348 c 256,39,40
 208 348 208 348 204 343 c 128,-1,41
 200 338 200 338 200 330 c 2,42,-1
 200 42 l 2,43,44
 200 34 200 34 204 29 c 128,-1,45
 208 24 208 24 216 24 c 256,46,47
 224 24 224 24 228 29 c 128,-1,48
 232 34 232 34 232 42 c 2,49,-1
 232 330 l 2,36,37
188 754 m 1,50,-1
 222 754 l 1,51,-1
 88 -35 l 1,52,-1
 53 -35 l 1,53,-1
 188 754 l 1,50,-1
EndSplineSet
Validated: 1
EndChar

StartChar: ampersand
Encoding: 38 38 5
Width: 241
GlyphClass: 1
Flags: W
LayerCount: 2
Fore
SplineSet
191 63 m 2,0,1
 189 70 189 70 187.5 76 c 128,-1,2
 186 82 186 82 184 88 c 1,3,4
 184 70 184 70 180 53.5 c 128,-1,5
 176 37 176 37 166.5 24 c 128,-1,6
 157 11 157 11 141 3.5 c 128,-1,7
 125 -4 125 -4 100 -4 c 0,8,9
 54 -4 54 -4 37 27.5 c 128,-1,10
 20 59 20 59 20 123 c 2,11,-1
 20 251 l 2,12,13
 21 280 21 280 23.5 301 c 128,-1,14
 26 322 26 322 33 339 c 0,15,16
 41 358 41 358 52 378.5 c 128,-1,17
 63 399 63 399 71 418 c 1,18,-1
 44 504 l 2,19,20
 33 542 33 542 33 595 c 2,21,-1
 33 650 l 2,22,23
 33 679 33 679 49 701 c 128,-1,24
 65 723 65 723 102 723 c 0,25,26
 136 723 136 723 153 704.5 c 128,-1,27
 170 686 170 686 170 657 c 2,28,-1
 170 590 l 2,29,30
 170 568 170 568 167 546 c 128,-1,31
 164 524 164 524 157 505 c 2,32,-1
 111 410 l 1,33,34
 122 375 122 375 134 339 c 128,-1,35
 146 303 146 303 157 268 c 0,36,37
 161 257 161 257 163.5 246.5 c 128,-1,38
 166 236 166 236 168 225 c 1,39,-1
 168 421 l 1,40,-1
 203 421 l 1,41,-1
 203 272 l 2,42,43
 203 255 203 255 202.5 237 c 128,-1,44
 202 219 202 219 201 202 c 0,45,46
 200 190 200 190 199.5 179 c 128,-1,47
 199 168 199 168 199 156 c 0,48,49
 210 120 210 120 222.5 78 c 128,-1,50
 235 36 235 36 246 0 c 1,51,-1
 210 0 l 1,52,-1
 191 63 l 2,0,1
61 113 m 2,53,54
 61 73 61 73 71 52.5 c 128,-1,55
 81 32 81 32 105 32 c 0,56,57
 134 32 134 32 145 57.5 c 128,-1,58
 156 83 156 83 156 116 c 2,59,-1
 156 139 l 1,60,61
 139 196 139 196 121.5 254 c 128,-1,62
 104 312 104 312 87 369 c 1,63,64
 84 362 84 362 81.5 357.5 c 128,-1,65
 79 353 79 353 76 346 c 0,66,67
 68 323 68 323 64.5 305 c 128,-1,68
 61 287 61 287 61 266 c 2,69,-1
 61 113 l 2,53,54
128 652 m 2,70,71
 128 668 128 668 121 678 c 128,-1,72
 114 688 114 688 101 688 c 0,73,74
 89 688 89 688 82 677.5 c 128,-1,75
 75 667 75 667 75 654 c 2,76,-1
 75 563 l 2,77,78
 75 550 75 550 76.5 536 c 128,-1,79
 78 522 78 522 83 507 c 2,80,-1
 97 462 l 1,81,82
 102 474 102 474 106 483 c 128,-1,83
 110 492 110 492 115 504 c 0,84,85
 123 521 123 521 125.5 540 c 128,-1,86
 128 559 128 559 128 573 c 2,87,-1
 128 652 l 2,70,71
EndSplineSet
Validated: 1
EndChar

StartChar: quoteright
Encoding: 8217 8217 6
Width: 112
GlyphClass: 1
Flags: W
LayerCount: 2
Fore
SplineSet
43 719 m 1,0,-1
 93 719 l 1,1,-1
 55 559 l 1,2,-1
 19 559 l 1,3,-1
 43 719 l 1,0,-1
EndSplineSet
Validated: 1
EndChar

StartChar: parenleft
Encoding: 40 40 7
Width: 130
GlyphClass: 1
Flags: W
LayerCount: 2
Fore
SplineSet
80 -154 m 1,0,1
 57 -53 57 -53 45 59.5 c 128,-1,2
 33 172 33 172 33 283 c 0,3,4
 33 393 33 393 45 505.5 c 128,-1,5
 57 618 57 618 80 719 c 1,6,-1
 113 719 l 1,7,8
 94 621 94 621 86 508 c 128,-1,9
 78 395 78 395 78 283 c 0,10,11
 78 170 78 170 85.5 57 c 128,-1,12
 93 -56 93 -56 113 -154 c 1,13,-1
 80 -154 l 1,0,1
EndSplineSet
Validated: 1
EndChar

StartChar: parenright
Encoding: 41 41 8
Width: 130
GlyphClass: 1
Flags: W
LayerCount: 2
Fore
SplineSet
49 719 m 1,0,1
 72 618 72 618 84 505.5 c 128,-1,2
 96 393 96 393 96 283 c 0,3,4
 96 172 96 172 84 59.5 c 128,-1,5
 72 -53 72 -53 49 -154 c 1,6,-1
 16 -154 l 1,7,8
 35 -56 35 -56 43 57.5 c 128,-1,9
 51 171 51 171 51 283 c 256,10,11
 51 395 51 395 43.5 508 c 128,-1,12
 36 621 36 621 16 719 c 1,13,-1
 49 719 l 1,0,1
EndSplineSet
Validated: 1
EndChar

StartChar: asterisk
Encoding: 42 42 9
Width: 222
GlyphClass: 1
Flags: W
LayerCount: 2
Fore
SplineSet
10 645 m 1,0,-1
 91 636 l 1,1,2
 80 653 80 653 67 669.5 c 128,-1,3
 54 686 54 686 43 703 c 1,4,-1
 79 720 l 1,5,-1
 109 650 l 1,6,7
 117 667 117 667 125 685.5 c 128,-1,8
 133 704 133 704 141 720 c 1,9,-1
 177 703 l 1,10,-1
 131 637 l 1,11,12
 151 639 151 639 171 641 c 128,-1,13
 191 643 191 643 211 645 c 1,14,-1
 211 605 l 1,15,-1
 131 613 l 1,16,17
 142 598 142 598 154 580 c 128,-1,18
 166 562 166 562 177 548 c 1,19,-1
 141 529 l 1,20,-1
 109 601 l 1,21,22
 101 584 101 584 94 564.5 c 128,-1,23
 87 545 87 545 79 529 c 1,24,-1
 43 548 l 1,25,-1
 89 613 l 1,26,27
 69 611 69 611 49.5 609 c 128,-1,28
 30 607 30 607 10 605 c 1,29,-1
 10 645 l 1,0,-1
EndSplineSet
Validated: 1
EndChar

StartChar: plus
Encoding: 43 43 10
Width: 600
GlyphClass: 1
Flags: W
LayerCount: 2
Fore
SplineSet
280 235 m 1,0,-1
 45 235 l 1,1,-1
 45 271 l 1,2,-1
 280 271 l 1,3,-1
 280 506 l 1,4,-1
 316 506 l 1,5,-1
 316 271 l 1,6,-1
 551 271 l 1,7,-1
 551 235 l 1,8,-1
 316 235 l 1,9,-1
 316 0 l 1,10,-1
 280 0 l 1,11,-1
 280 235 l 1,0,-1
EndSplineSet
Validated: 1
EndChar

StartChar: comma
Encoding: 44 44 11
Width: 112
GlyphClass: 1
Flags: W
LayerCount: 2
Fore
SplineSet
41 57 m 1,0,-1
 91 57 l 1,1,-1
 56 -77 l 1,2,-1
 21 -77 l 1,3,-1
 41 57 l 1,0,-1
EndSplineSet
Validated: 1
EndChar

StartChar: hyphen
Encoding: 45 45 12
Width: 111
GlyphClass: 1
Flags: W
LayerCount: 2
Fore
SplineSet
6 267 m 1,0,-1
 104 267 l 1,1,-1
 104 235 l 1,2,-1
 6 235 l 1,3,-1
 6 267 l 1,0,-1
EndSplineSet
Validated: 1
EndChar

StartChar: period
Encoding: 46 46 13
Width: 112
GlyphClass: 1
Flags: W
LayerCount: 2
Fore
SplineSet
31 57 m 1,0,-1
 80 57 l 1,1,-1
 80 0 l 1,2,-1
 31 0 l 1,3,-1
 31 57 l 1,0,-1
EndSplineSet
Validated: 1
EndChar

StartChar: slash
Encoding: 47 47 14
Width: 204
GlyphClass: 1
Flags: W
LayerCount: 2
Fore
SplineSet
157 784 m 1,0,-1
 192 784 l 1,1,-1
 46 -64 l 1,2,-1
 10 -64 l 1,3,-1
 157 784 l 1,0,-1
EndSplineSet
Validated: 1
EndChar

StartChar: zero
Encoding: 48 48 15
Width: 224
GlyphClass: 1
Flags: W
LayerCount: 2
Fore
SplineSet
31 656 m 2,0,1
 31 688 31 688 51.5 705.5 c 128,-1,2
 72 723 72 723 111 723 c 0,3,4
 191 723 191 723 191 652 c 2,5,-1
 191 67 l 2,6,7
 191 33 191 33 171 14.5 c 128,-1,8
 151 -4 151 -4 111 -4 c 0,9,10
 72 -4 72 -4 51.5 14.5 c 128,-1,11
 31 33 31 33 31 67 c 2,12,-1
 31 656 l 2,0,1
73 72 m 2,13,14
 73 32 73 32 111 32 c 0,15,16
 150 32 150 32 150 72 c 2,17,-1
 150 647 l 2,18,19
 150 688 150 688 111 688 c 0,20,21
 73 688 73 688 73 647 c 2,22,-1
 73 72 l 2,13,14
EndSplineSet
Validated: 1
EndChar

StartChar: one
Encoding: 49 49 16
Width: 224
GlyphClass: 1
Flags: W
LayerCount: 2
Fore
SplineSet
97 644 m 1,0,1
 88 629 88 629 76.5 610.5 c 128,-1,2
 65 592 65 592 57 578 c 1,3,-1
 57 643 l 1,4,-1
 107 719 l 1,5,-1
 141 719 l 1,6,-1
 141 0 l 1,7,-1
 99 0 l 1,8,-1
 97 644 l 1,0,1
EndSplineSet
Validated: 1
EndChar

StartChar: two
Encoding: 50 50 17
Width: 224
GlyphClass: 1
Flags: W
LayerCount: 2
Fore
SplineSet
31 49 m 1,0,-1
 134 458 l 2,1,2
 139 478 139 478 141 496 c 128,-1,3
 143 514 143 514 143 534 c 2,4,-1
 143 647 l 2,5,6
 143 688 143 688 109 688 c 0,7,8
 90 688 90 688 83.5 676.5 c 128,-1,9
 77 665 77 665 77 637 c 2,10,-1
 77 544 l 1,11,-1
 35 544 l 1,12,-1
 35 642 l 2,13,14
 35 681 35 681 52.5 702 c 128,-1,15
 70 723 70 723 110 723 c 0,16,17
 152 723 152 723 168 700 c 128,-1,18
 184 677 184 677 184 645 c 2,19,-1
 184 538 l 2,20,21
 184 512 184 512 181.5 486.5 c 128,-1,22
 179 461 179 461 172 432 c 0,23,24
 146 334 146 334 119.5 234 c 128,-1,25
 93 134 93 134 68 36 c 1,26,-1
 191 36 l 1,27,-1
 191 0 l 1,28,-1
 31 0 l 1,29,-1
 31 49 l 1,0,-1
EndSplineSet
Validated: 1
EndChar

StartChar: three
Encoding: 51 51 18
Width: 224
GlyphClass: 1
Flags: W
LayerCount: 2
Fore
SplineSet
87 385 m 1,0,-1
 100 385 l 2,1,2
 122 385 122 385 133.5 395.5 c 128,-1,3
 145 406 145 406 145 441 c 2,4,-1
 145 647 l 2,5,6
 145 667 145 667 137 677.5 c 128,-1,7
 129 688 129 688 108 688 c 0,8,9
 90 688 90 688 83 677.5 c 128,-1,10
 76 667 76 667 76 647 c 2,11,-1
 76 545 l 1,12,-1
 34 545 l 1,13,-1
 34 653 l 2,14,15
 34 723 34 723 108 723 c 0,16,17
 150 723 150 723 168 705 c 128,-1,18
 186 687 186 687 186 652 c 2,19,-1
 186 430 l 2,20,21
 186 401 186 401 175 387.5 c 128,-1,22
 164 374 164 374 150 369 c 1,23,24
 165 364 165 364 178 350 c 128,-1,25
 191 336 191 336 191 301 c 2,26,-1
 191 67 l 2,27,28
 191 33 191 33 171 14.5 c 128,-1,29
 151 -4 151 -4 111 -4 c 0,30,31
 72 -4 72 -4 51.5 14.5 c 128,-1,32
 31 33 31 33 31 67 c 2,33,-1
 31 186 l 1,34,-1
 73 186 l 1,35,-1
 73 72 l 2,36,37
 75 32 75 32 110 32 c 0,38,39
 150 32 150 32 150 72 c 2,40,-1
 150 301 l 2,41,42
 150 332 150 332 139.5 341 c 128,-1,43
 129 350 129 350 102 350 c 2,44,-1
 87 350 l 1,45,-1
 87 385 l 1,0,-1
EndSplineSet
Validated: 1
EndChar

StartChar: four
Encoding: 52 52 19
Width: 224
GlyphClass: 1
Flags: W
LayerCount: 2
Fore
SplineSet
131 191 m 1,0,-1
 18 191 l 1,1,-1
 18 243 l 1,2,-1
 111 719 l 1,3,-1
 173 719 l 1,4,-1
 173 226 l 1,5,-1
 214 226 l 1,6,-1
 214 191 l 1,7,-1
 173 191 l 1,8,-1
 173 0 l 1,9,-1
 131 0 l 1,10,-1
 131 191 l 1,0,-1
129 636 m 1,11,12
 127 624 127 624 124.5 610 c 128,-1,13
 122 596 122 596 120 584 c 0,14,15
 105 495 105 495 88 405 c 128,-1,16
 71 315 71 315 55 226 c 1,17,-1
 131 226 l 1,18,-1
 129 636 l 1,11,12
EndSplineSet
Validated: 1
EndChar

StartChar: five
Encoding: 53 53 20
Width: 224
GlyphClass: 1
Flags: W
LayerCount: 2
Fore
SplineSet
191 82 m 2,0,1
 191 43 191 43 173.5 19.5 c 128,-1,2
 156 -4 156 -4 109 -4 c 0,3,4
 71 -4 71 -4 51 18 c 128,-1,5
 31 40 31 40 31 88 c 2,6,-1
 31 187 l 1,7,-1
 73 187 l 1,8,-1
 73 77 l 2,9,10
 73 53 73 53 84 42.5 c 128,-1,11
 95 32 95 32 111 32 c 0,12,13
 128 32 128 32 139 42 c 128,-1,14
 150 52 150 52 150 84 c 2,15,-1
 150 401 l 2,16,17
 150 421 150 421 143 433 c 128,-1,18
 136 445 136 445 120 445 c 0,19,20
 106 445 106 445 97 439 c 128,-1,21
 88 433 88 433 83 417.5 c 128,-1,22
 78 402 78 402 76 375.5 c 128,-1,23
 74 349 74 349 73 308 c 1,24,-1
 31 312 l 1,25,-1
 39 719 l 1,26,-1
 179 719 l 1,27,-1
 179 684 l 1,28,-1
 82 684 l 1,29,30
 80 624 80 624 78 569.5 c 128,-1,31
 76 515 76 515 74 454 c 1,32,33
 80 464 80 464 92 472 c 128,-1,34
 104 480 104 480 124 480 c 0,35,36
 161 480 161 480 176 459.5 c 128,-1,37
 191 439 191 439 191 404 c 2,38,-1
 191 82 l 2,0,1
EndSplineSet
Validated: 1
EndChar

StartChar: six
Encoding: 54 54 21
Width: 224
GlyphClass: 1
Flags: W
LayerCount: 2
Fore
SplineSet
147 647 m 2,0,1
 147 688 147 688 110 688 c 256,2,3
 73 688 73 688 73 647 c 2,4,-1
 75 452 l 1,5,6
 90 473 90 473 126 473 c 0,7,8
 164 473 164 473 177.5 452.5 c 128,-1,9
 191 432 191 432 191 397 c 2,10,-1
 191 67 l 2,11,12
 191 33 191 33 169.5 14.5 c 128,-1,13
 148 -4 148 -4 110 -4 c 256,14,15
 72 -4 72 -4 51.5 14.5 c 128,-1,16
 31 33 31 33 31 67 c 2,17,-1
 31 652 l 2,18,19
 31 723 31 723 110 723 c 0,20,21
 188 723 188 723 188 652 c 2,22,-1
 188 528 l 1,23,-1
 147 528 l 1,24,-1
 147 647 l 2,0,1
150 395 m 2,25,26
 150 438 150 438 113 438 c 0,27,28
 98 438 98 438 85.5 423 c 128,-1,29
 73 408 73 408 73 385 c 2,30,-1
 73 72 l 2,31,32
 73 52 73 52 84 42 c 128,-1,33
 95 32 95 32 115 32 c 0,34,35
 150 32 150 32 150 72 c 2,36,-1
 150 395 l 2,25,26
EndSplineSet
Validated: 1
EndChar

StartChar: seven
Encoding: 55 55 22
Width: 224
GlyphClass: 1
Flags: W
LayerCount: 2
Fore
SplineSet
31 719 m 1,0,-1
 191 719 l 1,1,-1
 191 684 l 1,2,-1
 108 0 l 1,3,-1
 63 0 l 1,4,-1
 150 684 l 1,5,-1
 31 684 l 1,6,-1
 31 719 l 1,0,-1
EndSplineSet
Validated: 1
EndChar

StartChar: eight
Encoding: 56 56 23
Width: 224
GlyphClass: 1
Flags: W
LayerCount: 2
Fore
SplineSet
31 339 m 2,0,1
 31 364 31 364 41 377.5 c 128,-1,2
 51 391 51 391 65 397 c 1,3,4
 37 409 37 409 37 458 c 2,5,-1
 37 656 l 2,6,7
 37 688 37 688 54 705.5 c 128,-1,8
 71 723 71 723 110 723 c 0,9,10
 150 723 150 723 167.5 705.5 c 128,-1,11
 185 688 185 688 185 656 c 2,12,-1
 185 458 l 2,13,14
 184 433 184 433 178 418 c 128,-1,15
 172 403 172 403 158 396 c 1,16,17
 172 391 172 391 181.5 376.5 c 128,-1,18
 191 362 191 362 191 339 c 2,19,-1
 191 67 l 2,20,21
 191 33 191 33 170 14.5 c 128,-1,22
 149 -4 149 -4 110 -4 c 0,23,24
 72 -4 72 -4 51.5 14.5 c 128,-1,25
 31 33 31 33 31 67 c 2,26,-1
 31 339 l 2,0,1
144 654 m 2,27,28
 144 671 144 671 137.5 679.5 c 128,-1,29
 131 688 131 688 111 688 c 0,30,31
 92 688 92 688 85.5 679.5 c 128,-1,32
 79 671 79 671 79 654 c 2,33,-1
 79 448 l 2,34,35
 79 433 79 433 85.5 423.5 c 128,-1,36
 92 414 92 414 111 414 c 0,37,38
 131 414 131 414 137.5 423.5 c 128,-1,39
 144 433 144 433 144 448 c 2,40,-1
 144 654 l 2,27,28
150 338 m 2,41,42
 150 358 150 358 142.5 368 c 128,-1,43
 135 378 135 378 110 378 c 0,44,45
 87 378 87 378 80 368 c 128,-1,46
 73 358 73 358 73 338 c 2,47,-1
 73 72 l 2,48,49
 73 52 73 52 80 42 c 128,-1,50
 87 32 87 32 110 32 c 0,51,52
 135 32 135 32 142.5 42 c 128,-1,53
 150 52 150 52 150 72 c 2,54,-1
 150 338 l 2,41,42
EndSplineSet
Validated: 1
EndChar

StartChar: nine
Encoding: 57 57 24
Width: 224
GlyphClass: 1
Flags: W
LayerCount: 2
Fore
SplineSet
76 72 m 2,0,1
 76 32 76 32 112 32 c 0,2,3
 150 32 150 32 150 72 c 2,4,-1
 148 268 l 1,5,6
 133 246 133 246 97 246 c 0,7,8
 59 246 59 246 45 266.5 c 128,-1,9
 31 287 31 287 31 322 c 2,10,-1
 31 652 l 2,11,12
 31 687 31 687 52.5 705 c 128,-1,13
 74 723 74 723 112 723 c 0,14,15
 191 723 191 723 191 652 c 2,16,-1
 191 67 l 2,17,18
 191 33 191 33 171 14.5 c 128,-1,19
 151 -4 151 -4 112 -4 c 0,20,21
 74 -4 74 -4 54 14.5 c 128,-1,22
 34 33 34 33 34 67 c 2,23,-1
 34 192 l 1,24,-1
 76 192 l 1,25,-1
 76 72 l 2,0,1
73 324 m 2,26,27
 73 282 73 282 109 282 c 0,28,29
 124 282 124 282 137 296.5 c 128,-1,30
 150 311 150 311 150 334 c 2,31,-1
 150 647 l 2,32,33
 150 688 150 688 107 688 c 0,34,35
 73 688 73 688 73 647 c 2,36,-1
 73 324 l 2,26,27
EndSplineSet
Validated: 1
EndChar

StartChar: colon
Encoding: 58 58 25
Width: 112
GlyphClass: 1
Flags: W
LayerCount: 2
Fore
SplineSet
31 502 m 1,0,-1
 80 502 l 1,1,-1
 80 445 l 1,2,-1
 31 445 l 1,3,-1
 31 502 l 1,0,-1
31 57 m 1,4,-1
 80 57 l 1,5,-1
 80 0 l 1,6,-1
 31 0 l 1,7,-1
 31 57 l 1,4,-1
EndSplineSet
Validated: 1
EndChar

StartChar: semicolon
Encoding: 59 59 26
Width: 112
GlyphClass: 1
Flags: W
LayerCount: 2
Fore
SplineSet
41 57 m 1,0,-1
 91 57 l 1,1,-1
 56 -77 l 1,2,-1
 21 -77 l 1,3,-1
 41 57 l 1,0,-1
41 502 m 1,4,-1
 90 502 l 1,5,-1
 90 445 l 1,6,-1
 41 445 l 1,7,-1
 41 502 l 1,4,-1
EndSplineSet
Validated: 1
EndChar

StartChar: less
Encoding: 60 60 27
Width: 300
GlyphClass: 1
Flags: W
LayerCount: 2
Fore
SplineSet
22 275 m 1,0,-1
 275 520 l 1,1,-1
 275 483 l 1,2,-1
 42 258 l 1,3,4
 100 201 100 201 158.5 144.5 c 128,-1,5
 217 88 217 88 275 31 c 1,6,-1
 275 -6 l 1,7,-1
 22 241 l 1,8,-1
 22 275 l 1,0,-1
EndSplineSet
Validated: 1
EndChar

StartChar: equal
Encoding: 61 61 28
Width: 300
GlyphClass: 1
Flags: W
LayerCount: 2
Fore
SplineSet
22 367 m 1,0,-1
 275 367 l 1,1,-1
 275 331 l 1,2,-1
 22 331 l 1,3,-1
 22 367 l 1,0,-1
22 175 m 1,4,-1
 275 175 l 1,5,-1
 275 139 l 1,6,-1
 22 139 l 1,7,-1
 22 175 l 1,4,-1
EndSplineSet
Validated: 1
EndChar

StartChar: greater
Encoding: 62 62 29
Width: 300
GlyphClass: 1
Flags: W
LayerCount: 2
Fore
SplineSet
275 241 m 1,0,-1
 22 -6 l 1,1,-1
 22 31 l 1,2,-1
 256 258 l 1,3,-1
 22 483 l 1,4,-1
 22 520 l 1,5,-1
 275 275 l 1,6,-1
 275 241 l 1,0,-1
EndSplineSet
Validated: 1
EndChar

StartChar: question
Encoding: 63 63 30
Width: 222
GlyphClass: 1
Flags: W
LayerCount: 2
Fore
SplineSet
42 649 m 2,0,1
 42 681 42 681 58 702 c 128,-1,2
 74 723 74 723 112 723 c 0,3,4
 155 723 155 723 173 705.5 c 128,-1,5
 191 688 191 688 191 636 c 2,6,-1
 191 542 l 2,7,8
 191 513 191 513 185.5 484.5 c 128,-1,9
 180 456 180 456 172 432 c 2,10,-1
 154 378 l 2,11,12
 144 350 144 350 139 330 c 128,-1,13
 134 310 134 310 134 282 c 2,14,-1
 134 164 l 1,15,-1
 93 164 l 1,16,-1
 93 305 l 2,17,18
 93 334 93 334 101.5 362 c 128,-1,19
 110 390 110 390 121 419 c 0,20,21
 132 447 132 447 140.5 474 c 128,-1,22
 149 501 149 501 150 529 c 2,23,-1
 150 647 l 2,24,25
 150 671 150 671 140 679.5 c 128,-1,26
 130 688 130 688 115 688 c 0,27,28
 99 688 99 688 91.5 678.5 c 128,-1,29
 84 669 84 669 84 646 c 2,30,-1
 84 547 l 1,31,-1
 42 547 l 1,32,-1
 42 649 l 2,0,1
91 57 m 1,33,-1
 140 57 l 1,34,-1
 140 0 l 1,35,-1
 91 0 l 1,36,-1
 91 57 l 1,33,-1
EndSplineSet
Validated: 1
EndChar

StartChar: at
Encoding: 64 64 31
Width: 490
GlyphClass: 1
Flags: W
LayerCount: 2
Fore
SplineSet
309 410 m 0,0,1
 309 446 309 446 297 467.5 c 128,-1,2
 285 489 285 489 257 489 c 0,3,4
 231 489 231 489 210.5 471.5 c 128,-1,5
 190 454 190 454 175.5 427.5 c 128,-1,6
 161 401 161 401 153.5 369.5 c 128,-1,7
 146 338 146 338 146 311 c 0,8,9
 146 272 146 272 161.5 251 c 128,-1,10
 177 230 177 230 204 230 c 0,11,12
 222 230 222 230 240.5 245.5 c 128,-1,13
 259 261 259 261 274.5 286.5 c 128,-1,14
 290 312 290 312 299.5 344.5 c 128,-1,15
 309 377 309 377 309 410 c 0,0,1
340 505 m 1,16,-1
 366 505 l 1,17,-1
 311 293 l 2,18,19
 308 282 308 282 305 270.5 c 128,-1,20
 302 259 302 259 302 252 c 0,21,22
 302 243 302 243 309 236.5 c 128,-1,23
 316 230 316 230 324 230 c 0,24,25
 343 230 343 230 362 245 c 128,-1,26
 381 260 381 260 395 285 c 128,-1,27
 409 310 409 310 418 341 c 128,-1,28
 427 372 427 372 427 405 c 0,29,30
 427 450 427 450 412 485.5 c 128,-1,31
 397 521 397 521 372.5 545 c 128,-1,32
 348 569 348 569 316.5 582 c 128,-1,33
 285 595 285 595 252 595 c 0,34,35
 211 595 211 595 175.5 576 c 128,-1,36
 140 557 140 557 114 524 c 128,-1,37
 88 491 88 491 72.5 448 c 128,-1,38
 57 405 57 405 57 357 c 0,39,40
 57 306 57 306 72.5 263 c 128,-1,41
 88 220 88 220 115 189.5 c 128,-1,42
 142 159 142 159 177.5 141.5 c 128,-1,43
 213 124 213 124 253 124 c 0,44,45
 301 124 301 124 345 152.5 c 128,-1,46
 389 181 389 181 415 229 c 1,47,-1
 443 229 l 1,48,49
 429 197 429 197 408 172 c 128,-1,50
 387 147 387 147 362 130 c 128,-1,51
 337 113 337 113 309 103.5 c 128,-1,52
 281 94 281 94 253 94 c 0,53,54
 204 94 204 94 163.5 114 c 128,-1,55
 123 134 123 134 93.5 170 c 128,-1,56
 64 206 64 206 47.5 255 c 128,-1,57
 31 304 31 304 31 362 c 0,58,59
 31 418 31 418 48 466 c 128,-1,60
 65 514 65 514 94.5 549.5 c 128,-1,61
 124 585 124 585 164 605 c 128,-1,62
 204 625 204 625 250 625 c 0,63,64
 293 625 293 625 330 609.5 c 128,-1,65
 367 594 367 594 394.5 565 c 128,-1,66
 422 536 422 536 437.5 495 c 128,-1,67
 453 454 453 454 453 404 c 0,68,69
 453 364 453 364 440.5 326.5 c 128,-1,70
 428 289 428 289 408 260.5 c 128,-1,71
 388 232 388 232 364 215 c 128,-1,72
 340 198 340 198 316 198 c 0,73,74
 300 198 300 198 288 209.5 c 128,-1,75
 276 221 276 221 274 246 c 1,76,77
 245 198 245 198 197 198 c 0,78,79
 179 198 179 198 165 207 c 128,-1,80
 151 216 151 216 140.5 231 c 128,-1,81
 130 246 130 246 124.5 266 c 128,-1,82
 119 286 119 286 119 308 c 0,83,84
 119 345 119 345 129 382.5 c 128,-1,85
 139 420 139 420 157.5 450.5 c 128,-1,86
 176 481 176 481 202 500.5 c 128,-1,87
 228 520 228 520 260 520 c 0,88,89
 288 520 288 520 305 499 c 128,-1,90
 322 478 322 478 326 454 c 1,91,-1
 340 505 l 1,16,-1
EndSplineSet
Validated: 1
EndChar

StartChar: A
Encoding: 65 65 32
Width: 244
GlyphClass: 1
Flags: W
LayerCount: 2
Fore
SplineSet
165 209 m 1,0,-1
 73 209 l 1,1,2
 68 158 68 158 62 104.5 c 128,-1,3
 56 51 56 51 51 0 c 1,4,-1
 10 0 l 1,5,-1
 90 722 l 1,6,-1
 151 722 l 1,7,-1
 234 0 l 1,8,-1
 188 0 l 1,9,-1
 165 209 l 1,0,-1
162 245 m 1,10,11
 156 304 156 304 149.5 361 c 128,-1,12
 143 418 143 418 137 477 c 0,13,14
 135 487 135 487 134.5 497.5 c 128,-1,15
 134 508 134 508 132 518 c 0,16,17
 130 540 130 540 128 556.5 c 128,-1,18
 126 573 126 573 124.5 589 c 128,-1,19
 123 605 123 605 121 622 c 128,-1,20
 119 639 119 639 118 661 c 1,21,22
 116 642 116 642 115 623 c 128,-1,23
 114 604 114 604 112 585 c 0,24,25
 110 557 110 557 108 530.5 c 128,-1,26
 106 504 106 504 103 477 c 0,27,28
 97 420 97 420 90 361 c 128,-1,29
 83 302 83 302 77 245 c 1,30,-1
 162 245 l 1,10,11
EndSplineSet
Validated: 1
EndChar

StartChar: B
Encoding: 66 66 33
Width: 241
GlyphClass: 1
Flags: W
LayerCount: 2
Fore
SplineSet
30 722 m 1,0,-1
 119 722 l 2,1,2
 157 722 157 722 181 703.5 c 128,-1,3
 205 685 205 685 205 643 c 2,4,-1
 205 434 l 2,5,6
 205 408 205 408 192 393.5 c 128,-1,7
 179 379 179 379 159 373 c 1,8,9
 180 368 180 368 195 352.5 c 128,-1,10
 210 337 210 337 210 305 c 2,11,-1
 210 79 l 2,12,13
 210 37 210 37 187 18.5 c 128,-1,14
 164 0 164 0 129 0 c 2,15,-1
 30 0 l 1,16,-1
 30 722 l 1,0,-1
116 389 m 2,17,18
 142 389 142 389 150.5 404 c 128,-1,19
 159 419 159 419 159 436 c 2,20,-1
 159 645 l 2,21,22
 159 667 159 667 150 676.5 c 128,-1,23
 141 686 141 686 114 686 c 2,24,-1
 76 686 l 1,25,-1
 76 389 l 1,26,-1
 116 389 l 2,17,18
76 353 m 1,27,-1
 76 36 l 1,28,-1
 114 36 l 2,29,30
 142 36 142 36 153 46 c 128,-1,31
 164 56 164 56 164 76 c 2,32,-1
 164 304 l 2,33,34
 164 353 164 353 116 353 c 2,35,-1
 76 353 l 1,27,-1
EndSplineSet
Validated: 1
EndChar

StartChar: C
Encoding: 67 67 34
Width: 204
GlyphClass: 1
Flags: W
LayerCount: 2
Fore
SplineSet
16 646 m 2,0,1
 16 684 16 684 39 705 c 128,-1,2
 62 726 62 726 104 726 c 0,3,4
 145 726 145 726 166 705 c 128,-1,5
 187 684 187 684 187 646 c 2,6,-1
 187 525 l 1,7,-1
 141 525 l 1,8,-1
 141 640 l 2,9,10
 141 660 141 660 133.5 675 c 128,-1,11
 126 690 126 690 104 690 c 0,12,13
 84 690 84 690 73 679 c 128,-1,14
 62 668 62 668 62 649 c 2,15,-1
 62 73 l 2,16,17
 62 54 62 54 73 43 c 128,-1,18
 84 32 84 32 104 32 c 0,19,20
 126 32 126 32 133.5 44 c 128,-1,21
 141 56 141 56 141 82 c 2,22,-1
 141 207 l 1,23,-1
 187 207 l 1,24,-1
 187 76 l 2,25,26
 187 38 187 38 166 17 c 128,-1,27
 145 -4 145 -4 104 -4 c 0,28,29
 62 -4 62 -4 39 17 c 128,-1,30
 16 38 16 38 16 76 c 2,31,-1
 16 646 l 2,0,1
EndSplineSet
Validated: 1
EndChar

StartChar: D
Encoding: 68 68 35
Width: 241
GlyphClass: 1
Flags: W
LayerCount: 2
Fore
SplineSet
30 722 m 1,0,-1
 118 722 l 2,1,2
 163 722 163 722 186.5 703.5 c 128,-1,3
 210 685 210 685 210 643 c 2,4,-1
 210 79 l 2,5,6
 210 37 210 37 186.5 18.5 c 128,-1,7
 163 0 163 0 118 0 c 2,8,-1
 30 0 l 1,9,-1
 30 722 l 1,0,-1
114 36 m 2,10,11
 164 36 164 36 164 76 c 2,12,-1
 164 646 l 2,13,14
 164 686 164 686 114 686 c 2,15,-1
 76 686 l 1,16,-1
 76 36 l 1,17,-1
 114 36 l 2,10,11
EndSplineSet
Validated: 1
EndChar

StartChar: E
Encoding: 69 69 36
Width: 185
GlyphClass: 1
Flags: W
LayerCount: 2
Fore
SplineSet
30 722 m 1,0,-1
 172 722 l 1,1,-1
 172 686 l 1,2,-1
 76 686 l 1,3,-1
 76 389 l 1,4,-1
 166 389 l 1,5,-1
 166 353 l 1,6,-1
 76 353 l 1,7,-1
 76 36 l 1,8,-1
 179 36 l 1,9,-1
 179 0 l 1,10,-1
 30 0 l 1,11,-1
 30 722 l 1,0,-1
EndSplineSet
Validated: 1
EndChar

StartChar: F
Encoding: 70 70 37
Width: 167
GlyphClass: 1
Flags: W
LayerCount: 2
Fore
SplineSet
30 722 m 1,0,-1
 172 722 l 1,1,-1
 172 686 l 1,2,-1
 76 686 l 1,3,-1
 76 389 l 1,4,-1
 168 389 l 1,5,-1
 168 353 l 1,6,-1
 76 353 l 1,7,-1
 76 0 l 1,8,-1
 30 0 l 1,9,-1
 30 722 l 1,0,-1
EndSplineSet
Validated: 1
EndChar

StartChar: G
Encoding: 71 71 38
Width: 241
GlyphClass: 1
Flags: W
LayerCount: 2
Fore
SplineSet
124 351 m 1,0,-1
 210 351 l 1,1,-1
 210 20 l 1,2,-1
 201 13 l 2,3,4
 190 6 190 6 169.5 1 c 128,-1,5
 149 -4 149 -4 120 -4 c 0,6,7
 77 -4 77 -4 53.5 17 c 128,-1,8
 30 38 30 38 30 76 c 2,9,-1
 30 646 l 2,10,11
 30 684 30 684 53.5 705 c 128,-1,12
 77 726 77 726 120 726 c 0,13,14
 164 726 164 726 187 705 c 128,-1,15
 210 684 210 684 210 646 c 2,16,-1
 210 527 l 1,17,-1
 164 527 l 1,18,-1
 164 641 l 2,19,20
 164 663 164 663 151.5 676.5 c 128,-1,21
 139 690 139 690 120 690 c 0,22,23
 102 690 102 690 89 676.5 c 128,-1,24
 76 663 76 663 76 641 c 2,25,-1
 76 73 l 2,26,27
 76 54 76 54 89 43 c 128,-1,28
 102 32 102 32 120 32 c 0,29,30
 134 32 134 32 145 35 c 128,-1,31
 156 38 156 38 164 43 c 1,32,-1
 164 315 l 1,33,-1
 124 315 l 1,34,-1
 124 351 l 1,0,-1
EndSplineSet
Validated: 1
EndChar

StartChar: H
Encoding: 72 72 39
Width: 241
GlyphClass: 1
Flags: W
LayerCount: 2
Fore
SplineSet
30 722 m 1,0,-1
 76 722 l 1,1,-1
 76 389 l 1,2,-1
 164 389 l 1,3,-1
 164 722 l 1,4,-1
 210 722 l 1,5,-1
 210 0 l 1,6,-1
 164 0 l 1,7,-1
 164 353 l 1,8,-1
 76 353 l 1,9,-1
 76 0 l 1,10,-1
 30 0 l 1,11,-1
 30 722 l 1,0,-1
EndSplineSet
Validated: 1
EndChar

StartChar: I
Encoding: 73 73 40
Width: 112
GlyphClass: 1
Flags: W
LayerCount: 2
Fore
SplineSet
33 722 m 1,0,-1
 79 722 l 1,1,-1
 79 0 l 1,2,-1
 33 0 l 1,3,-1
 33 722 l 1,0,-1
EndSplineSet
Validated: 1
EndChar

StartChar: J
Encoding: 74 74 41
Width: 185
GlyphClass: 1
Flags: W
LayerCount: 2
Fore
SplineSet
45 197 m 1,0,-1
 45 73 l 2,1,2
 45 54 45 54 51.5 43 c 128,-1,3
 58 32 58 32 77 32 c 256,4,5
 96 32 96 32 102 43 c 128,-1,6
 108 54 108 54 108 73 c 2,7,-1
 108 722 l 1,8,-1
 154 722 l 1,9,-1
 154 72 l 2,10,11
 154 37 154 37 132.5 16.5 c 128,-1,12
 111 -4 111 -4 77 -4 c 0,13,14
 42 -4 42 -4 20.5 16.5 c 128,-1,15
 -1 37 -1 37 -1 72 c 2,16,-1
 -1 197 l 1,17,-1
 45 197 l 1,0,-1
EndSplineSet
Validated: 1
EndChar

StartChar: K
Encoding: 75 75 42
Width: 204
GlyphClass: 1
Flags: W
LayerCount: 2
Fore
SplineSet
30 722 m 1,0,-1
 76 722 l 1,1,-1
 76 0 l 1,2,-1
 30 0 l 1,3,-1
 30 722 l 1,0,-1
70 382 m 1,4,-1
 169 722 l 1,5,-1
 211 722 l 1,6,-1
 112 382 l 1,7,8
 138 289 138 289 166.5 191 c 128,-1,9
 195 93 195 93 221 0 c 1,10,-1
 175 0 l 1,11,-1
 70 382 l 1,4,-1
EndSplineSet
Validated: 5
EndChar

StartChar: L
Encoding: 76 76 43
Width: 185
GlyphClass: 1
Flags: W
LayerCount: 2
Fore
SplineSet
30 722 m 1,0,-1
 76 722 l 1,1,-1
 76 36 l 1,2,-1
 180 36 l 1,3,-1
 180 0 l 1,4,-1
 30 0 l 1,5,-1
 30 722 l 1,0,-1
EndSplineSet
Validated: 1
EndChar

StartChar: M
Encoding: 77 77 44
Width: 333
GlyphClass: 1
Flags: W
LayerCount: 2
Fore
SplineSet
33 722 m 1,0,-1
 105 722 l 1,1,-1
 148 288 l 2,2,3
 151 260 151 260 153.5 237 c 128,-1,4
 156 214 156 214 158 191 c 128,-1,5
 160 168 160 168 161.5 143 c 128,-1,6
 163 118 163 118 165 85 c 1,7,8
 168 136 168 136 172 191 c 128,-1,9
 176 246 176 246 181 288 c 0,10,11
 192 392 192 392 204 504.5 c 128,-1,12
 216 617 216 617 227 722 c 1,13,-1
 298 722 l 1,14,-1
 298 0 l 1,15,-1
 253 0 l 1,16,-1
 253 447 l 2,17,18
 253 464 253 464 253.5 481 c 128,-1,19
 254 498 254 498 254 518 c 128,-1,20
 254 538 254 538 254.5 563 c 128,-1,21
 255 588 255 588 255 621 c 1,22,23
 253 603 253 603 251 583.5 c 128,-1,24
 249 564 249 564 247 547 c 0,25,26
 243 509 243 509 239.5 472 c 128,-1,27
 236 435 236 435 233 406 c 0,28,29
 224 309 224 309 213 202.5 c 128,-1,30
 202 96 202 96 193 0 c 1,31,-1
 138 0 l 1,32,-1
 97 402 l 2,33,34
 96 412 96 412 95 424 c 128,-1,35
 94 436 94 436 92 450 c 0,36,37
 89 477 89 477 87 497 c 128,-1,38
 85 517 85 517 83 535.5 c 128,-1,39
 81 554 81 554 79 573 c 128,-1,40
 77 592 77 592 75 616 c 1,41,42
 76 589 76 589 76.5 564.5 c 128,-1,43
 77 540 77 540 78 518 c 0,44,45
 79 499 79 499 79 478.5 c 128,-1,46
 79 458 79 458 79 447 c 2,47,-1
 79 0 l 1,48,-1
 33 0 l 1,49,-1
 33 722 l 1,0,-1
EndSplineSet
Validated: 1
EndChar

StartChar: N
Encoding: 78 78 45
Width: 259
GlyphClass: 1
Flags: W
LayerCount: 2
Fore
SplineSet
30 722 m 1,0,-1
 96 722 l 1,1,-1
 163 257 l 2,2,3
 172 186 172 186 189 84 c 1,4,5
 186 144 186 144 184 191 c 128,-1,6
 182 238 182 238 182 263 c 2,7,-1
 182 722 l 1,8,-1
 228 722 l 1,9,-1
 228 0 l 1,10,-1
 162 0 l 1,11,-1
 93 459 l 2,12,13
 89 485 89 485 83 535.5 c 128,-1,14
 77 586 77 586 70 644 c 1,15,16
 71 615 71 615 72 589 c 128,-1,17
 73 563 73 563 74 542 c 0,18,19
 75 520 75 520 75.5 504.5 c 128,-1,20
 76 489 76 489 76 481 c 2,21,-1
 76 0 l 1,22,-1
 30 0 l 1,23,-1
 30 722 l 1,0,-1
EndSplineSet
Validated: 1
EndChar

StartChar: O
Encoding: 79 79 46
Width: 241
GlyphClass: 1
Flags: W
LayerCount: 2
Fore
SplineSet
210 76 m 2,0,1
 210 38 210 38 187 17 c 128,-1,2
 164 -4 164 -4 120 -4 c 0,3,4
 77 -4 77 -4 53.5 17 c 128,-1,5
 30 38 30 38 30 76 c 2,6,-1
 30 646 l 2,7,8
 30 684 30 684 53.5 705 c 128,-1,9
 77 726 77 726 120 726 c 0,10,11
 164 726 164 726 187 705 c 128,-1,12
 210 684 210 684 210 646 c 2,13,-1
 210 76 l 2,0,1
164 645 m 2,14,15
 164 667 164 667 152 678.5 c 128,-1,16
 140 690 140 690 120 690 c 256,17,18
 100 690 100 690 88 678.5 c 128,-1,19
 76 667 76 667 76 645 c 2,20,-1
 76 77 l 2,21,22
 76 55 76 55 88 43.5 c 128,-1,23
 100 32 100 32 120 32 c 256,24,25
 140 32 140 32 152 43.5 c 128,-1,26
 164 55 164 55 164 77 c 2,27,-1
 164 645 l 2,14,15
EndSplineSet
Validated: 1
EndChar

StartChar: P
Encoding: 80 80 47
Width: 222
GlyphClass: 1
Flags: W
LayerCount: 2
Fore
SplineSet
30 722 m 1,0,-1
 122 722 l 2,1,2
 207 722 207 722 207 651 c 2,3,-1
 207 417 l 2,4,5
 207 385 207 385 185.5 365 c 128,-1,6
 164 345 164 345 122 345 c 2,7,-1
 76 345 l 1,8,-1
 76 0 l 1,9,-1
 30 0 l 1,10,-1
 30 722 l 1,0,-1
116 381 m 2,11,12
 136 381 136 381 148.5 391 c 128,-1,13
 161 401 161 401 161 421 c 2,14,-1
 161 645 l 2,15,16
 161 666 161 666 149 676 c 128,-1,17
 137 686 137 686 116 686 c 2,18,-1
 76 686 l 1,19,-1
 76 381 l 1,20,-1
 116 381 l 2,11,12
EndSplineSet
Validated: 1
EndChar

StartChar: Q
Encoding: 81 81 48
Width: 241
GlyphClass: 1
Flags: W
LayerCount: 2
Fore
SplineSet
30 646 m 2,0,1
 30 684 30 684 53.5 705 c 128,-1,2
 77 726 77 726 121 726 c 0,3,4
 164 726 164 726 187 705 c 128,-1,5
 210 684 210 684 210 646 c 2,6,-1
 210 92 l 2,7,8
 210 68 210 68 206.5 56 c 128,-1,9
 203 44 203 44 189 32 c 1,10,11
 191 32 191 32 195.5 33 c 128,-1,12
 200 34 200 34 202 34 c 0,13,14
 208 35 208 35 213.5 35.5 c 128,-1,15
 219 36 219 36 224 36 c 2,16,-1
 238 36 l 1,17,-1
 238 0 l 1,18,-1
 167 0 l 2,19,20
 156 -1 156 -1 144 -2 c 128,-1,21
 132 -3 132 -3 121 -4 c 0,22,23
 77 -4 77 -4 53.5 17 c 128,-1,24
 30 38 30 38 30 76 c 2,25,-1
 30 646 l 2,0,1
164 646 m 2,26,27
 164 667 164 667 152.5 678.5 c 128,-1,28
 141 690 141 690 121 690 c 256,29,30
 101 690 101 690 88.5 678.5 c 128,-1,31
 76 667 76 667 76 646 c 2,32,-1
 76 77 l 2,33,34
 76 55 76 55 88.5 43.5 c 128,-1,35
 101 32 101 32 121 32 c 256,36,37
 141 32 141 32 152.5 43.5 c 128,-1,38
 164 55 164 55 164 77 c 2,39,-1
 164 646 l 2,26,27
EndSplineSet
Validated: 1
EndChar

StartChar: R
Encoding: 82 82 49
Width: 241
GlyphClass: 1
Flags: W
LayerCount: 2
Fore
SplineSet
30 722 m 1,0,-1
 122 722 l 2,1,2
 160 722 160 722 183.5 705 c 128,-1,3
 207 688 207 688 207 653 c 2,4,-1
 207 441 l 2,5,6
 207 415 207 415 198 396.5 c 128,-1,7
 189 378 189 378 159 370 c 1,8,9
 179 364 179 364 193 348 c 128,-1,10
 207 332 207 332 207 304 c 2,11,-1
 207 0 l 1,12,-1
 161 0 l 1,13,-1
 161 304 l 2,14,15
 161 323 161 323 149.5 338 c 128,-1,16
 138 353 138 353 110 353 c 2,17,-1
 76 353 l 1,18,-1
 76 0 l 1,19,-1
 30 0 l 1,20,-1
 30 722 l 1,0,-1
112 389 m 2,21,22
 161 389 161 389 161 433 c 2,23,-1
 161 645 l 2,24,25
 161 686 161 686 116 686 c 2,26,-1
 76 686 l 1,27,-1
 76 389 l 1,28,-1
 112 389 l 2,21,22
EndSplineSet
Validated: 1
EndChar

StartChar: S
Encoding: 83 83 50
Width: 209
GlyphClass: 1
Flags: W
LayerCount: 2
Fore
SplineSet
58 72 m 2,0,1
 58 56 58 56 66.5 44 c 128,-1,2
 75 32 75 32 101 32 c 0,3,4
 124 32 124 32 135 41.5 c 128,-1,5
 146 51 146 51 146 74 c 2,6,-1
 146 197 l 2,7,8
 146 225 146 225 141 244.5 c 128,-1,9
 136 264 136 264 125 289 c 2,10,-1
 42 446 l 2,11,12
 30 469 30 469 23 496.5 c 128,-1,13
 16 524 16 524 16 544 c 2,14,-1
 16 649 l 2,15,16
 16 685 16 685 39 705.5 c 128,-1,17
 62 726 62 726 102 726 c 0,18,19
 144 726 144 726 165 709.5 c 128,-1,20
 186 693 186 693 186 657 c 2,21,-1
 186 526 l 1,22,-1
 144 526 l 1,23,-1
 144 653 l 2,24,25
 144 690 144 690 105 690 c 0,26,27
 85 690 85 690 75 678.5 c 128,-1,28
 65 667 65 667 65 651 c 2,29,-1
 65 540 l 2,30,31
 65 507 65 507 81 472 c 0,32,33
 101 434 101 434 121.5 394.5 c 128,-1,34
 142 355 142 355 162 316 c 0,35,36
 175 291 175 291 183.5 264.5 c 128,-1,37
 192 238 192 238 192 207 c 2,38,-1
 192 72 l 2,39,40
 192 37 192 37 172 16.5 c 128,-1,41
 152 -4 152 -4 104 -4 c 256,42,43
 56 -4 56 -4 36 16.5 c 128,-1,44
 16 37 16 37 16 75 c 2,45,-1
 16 205 l 1,46,-1
 58 205 l 1,47,-1
 58 72 l 2,0,1
EndSplineSet
Validated: 1
EndChar

StartChar: T
Encoding: 84 84 51
Width: 168
GlyphClass: 1
Flags: W
LayerCount: 2
Fore
SplineSet
61 686 m 1,0,-1
 -10 686 l 1,1,-1
 -10 722 l 1,2,-1
 177 722 l 1,3,-1
 177 686 l 1,4,-1
 106 686 l 1,5,-1
 106 0 l 1,6,-1
 61 0 l 1,7,-1
 61 686 l 1,0,-1
EndSplineSet
Validated: 1
EndChar

StartChar: U
Encoding: 85 85 52
Width: 241
GlyphClass: 1
Flags: W
LayerCount: 2
Fore
SplineSet
210 722 m 1,0,-1
 210 76 l 2,1,2
 210 38 210 38 187 17 c 128,-1,3
 164 -4 164 -4 120 -4 c 0,4,5
 77 -4 77 -4 53.5 17 c 128,-1,6
 30 38 30 38 30 76 c 2,7,-1
 30 722 l 1,8,-1
 76 722 l 1,9,-1
 76 77 l 2,10,11
 76 55 76 55 88 43.5 c 128,-1,12
 100 32 100 32 120 32 c 256,13,14
 140 32 140 32 152 43.5 c 128,-1,15
 164 55 164 55 164 77 c 2,16,-1
 164 722 l 1,17,-1
 210 722 l 1,0,-1
EndSplineSet
Validated: 1
EndChar

StartChar: V
Encoding: 86 86 53
Width: 204
GlyphClass: 1
Flags: W
LayerCount: 2
Fore
SplineSet
-6 722 m 1,0,-1
 40 722 l 1,1,-1
 88 247 l 2,2,3
 91 214 91 214 93.5 182.5 c 128,-1,4
 96 151 96 151 98 119 c 256,5,6
 100 87 100 87 104 57 c 1,7,8
 106 80 106 80 107.5 103.5 c 128,-1,9
 109 127 109 127 111 150 c 0,10,11
 112 173 112 173 113.5 198 c 128,-1,12
 115 223 115 223 117 247 c 2,13,-1
 164 722 l 1,14,-1
 209 722 l 1,15,-1
 131 0 l 1,16,-1
 72 0 l 1,17,-1
 -6 722 l 1,0,-1
EndSplineSet
Validated: 1
EndChar

StartChar: W
Encoding: 87 87 54
Width: 333
GlyphClass: 1
Flags: W
LayerCount: 2
Fore
SplineSet
179 457 m 2,0,1
 177 469 177 469 176.5 483 c 128,-1,2
 176 497 176 497 174 509 c 0,3,4
 172 531 172 531 170 548 c 128,-1,5
 168 565 168 565 166.5 580.5 c 128,-1,6
 165 596 165 596 163.5 613 c 128,-1,7
 162 630 162 630 161 653 c 1,8,9
 159 630 159 630 158 608 c 128,-1,10
 157 586 157 586 156 563 c 0,11,12
 154 537 154 537 152.5 509.5 c 128,-1,13
 151 482 151 482 149 455 c 2,14,-1
 110 0 l 1,15,-1
 51 0 l 1,16,-1
 1 722 l 1,17,-1
 42 722 l 1,18,-1
 71 281 l 2,19,20
 72 270 72 270 72.5 257 c 128,-1,21
 73 244 73 244 74 233 c 0,22,23
 75 208 75 208 76.5 188.5 c 128,-1,24
 78 169 78 169 79 150 c 128,-1,25
 80 131 80 131 81 111 c 128,-1,26
 82 91 82 91 84 66 c 1,27,28
 86 92 86 92 87 118.5 c 128,-1,29
 88 145 88 145 89 171 c 0,30,31
 91 198 91 198 92 225.5 c 128,-1,32
 93 253 93 253 95 281 c 2,33,-1
 134 722 l 1,34,-1
 195 722 l 1,35,-1
 233 281 l 2,36,37
 236 251 236 251 238 228 c 128,-1,38
 240 205 240 205 242 182.5 c 128,-1,39
 244 160 244 160 245.5 136 c 128,-1,40
 247 112 247 112 249 82 c 1,41,42
 250 95 250 95 250.5 112.5 c 128,-1,43
 251 130 251 130 251 143 c 0,44,45
 253 177 253 177 254.5 211.5 c 128,-1,46
 256 246 256 246 258 281 c 2,47,-1
 290 722 l 1,48,-1
 331 722 l 1,49,-1
 277 0 l 1,50,-1
 221 0 l 1,51,-1
 179 457 l 2,0,1
EndSplineSet
Validated: 1
EndChar

StartChar: X
Encoding: 88 88 55
Width: 204
GlyphClass: 1
Flags: W
LayerCount: 2
Fore
SplineSet
-2 722 m 1,0,-1
 45 722 l 1,1,-1
 104 421 l 1,2,3
 118 494 118 494 134 571.5 c 128,-1,4
 150 649 150 649 164 722 c 1,5,-1
 207 722 l 1,6,-1
 130 376 l 1,7,8
 150 283 150 283 171 187.5 c 128,-1,9
 192 92 192 92 212 0 c 1,10,-1
 165 0 l 1,11,-1
 102 330 l 1,12,13
 94 291 94 291 85.5 249 c 128,-1,14
 77 207 77 207 68 164.5 c 128,-1,15
 59 122 59 122 50.5 80.5 c 128,-1,16
 42 39 42 39 34 0 c 1,17,-1
 -9 0 l 1,18,-1
 73 376 l 1,19,-1
 -2 722 l 1,0,-1
EndSplineSet
Validated: 1
EndChar

StartChar: Y
Encoding: 89 89 56
Width: 204
GlyphClass: 1
Flags: W
LayerCount: 2
Fore
SplineSet
161 722 m 1,0,-1
 208 722 l 1,1,-1
 124 285 l 1,2,-1
 124 0 l 1,3,-1
 79 0 l 1,4,-1
 79 285 l 1,5,6
 70 334 70 334 59 390.5 c 128,-1,7
 48 447 48 447 37 504 c 128,-1,8
 26 561 26 561 15 617 c 128,-1,9
 4 673 4 673 -5 722 c 1,10,-1
 42 722 l 1,11,-1
 103 351 l 1,12,-1
 161 722 l 1,0,-1
EndSplineSet
Validated: 1
EndChar

StartChar: Z
Encoding: 90 90 57
Width: 167
GlyphClass: 1
Flags: W
LayerCount: 2
Fore
SplineSet
-3 44 m 1,0,-1
 117 686 l 1,1,-1
 8 686 l 1,2,-1
 8 722 l 1,3,-1
 160 722 l 1,4,-1
 160 678 l 1,5,-1
 40 36 l 1,6,-1
 169 36 l 1,7,-1
 169 0 l 1,8,-1
 -3 0 l 1,9,-1
 -3 44 l 1,0,-1
EndSplineSet
Validated: 1
EndChar

StartChar: bracketleft
Encoding: 91 91 58
Width: 167
GlyphClass: 1
Flags: W
LayerCount: 2
Fore
SplineSet
42 719 m 1,0,-1
 149 719 l 1,1,-1
 149 684 l 1,2,-1
 84 684 l 1,3,-1
 84 -119 l 1,4,-1
 149 -119 l 1,5,-1
 149 -154 l 1,6,-1
 42 -154 l 1,7,-1
 42 719 l 1,0,-1
EndSplineSet
Validated: 1
EndChar

StartChar: backslash
Encoding: 92 92 59
Width: 204
GlyphClass: 1
Flags: W
LayerCount: 2
Fore
SplineSet
10 784 m 1,0,-1
 46 784 l 1,1,-1
 192 -64 l 1,2,-1
 156 -64 l 1,3,-1
 10 784 l 1,0,-1
EndSplineSet
Validated: 1
EndChar

StartChar: bracketright
Encoding: 93 93 60
Width: 167
GlyphClass: 1
Flags: W
LayerCount: 2
Fore
SplineSet
124 -154 m 1,0,-1
 17 -154 l 1,1,-1
 17 -119 l 1,2,-1
 82 -119 l 1,3,-1
 82 684 l 1,4,-1
 17 684 l 1,5,-1
 17 719 l 1,6,-1
 124 719 l 1,7,-1
 124 -154 l 1,0,-1
EndSplineSet
Validated: 1
EndChar

StartChar: asciicircum
Encoding: 94 94 61
Width: 300
GlyphClass: 1
Flags: W
LayerCount: 2
Fore
SplineSet
262 266 m 1,0,-1
 149 680 l 1,1,2
 121 577 121 577 92.5 473 c 128,-1,3
 64 369 64 369 36 266 c 1,4,-1
 17 266 l 1,5,-1
 139 719 l 1,6,-1
 159 719 l 1,7,-1
 280 266 l 1,8,-1
 262 266 l 1,0,-1
EndSplineSet
Validated: 1
EndChar

StartChar: underscore
Encoding: 95 95 62
Width: 500
GlyphClass: 1
Flags: W
LayerCount: 2
Fore
SplineSet
-1 -124 m 1,0,-1
 -1 -68 l 1,1,-1
 499 -68 l 1,2,-1
 499 -124 l 1,3,-1
 -1 -124 l 1,0,-1
EndSplineSet
Validated: 1
EndChar

StartChar: quoteleft
Encoding: 8216 8216 63
Width: 112
GlyphClass: 1
Flags: W
LayerCount: 2
Fore
SplineSet
57 719 m 1,0,-1
 92 719 l 1,1,-1
 69 559 l 1,2,-1
 18 559 l 1,3,-1
 57 719 l 1,0,-1
EndSplineSet
Validated: 1
EndChar

StartChar: braceleft
Encoding: 123 123 64
Width: 222
GlyphClass: 1
Flags: W
LayerCount: 2
Fore
SplineSet
31 300 m 1,0,1
 51 300 51 300 70.5 316.5 c 128,-1,2
 90 333 90 333 90 364 c 2,3,-1
 90 605 l 2,4,5
 90 670 90 670 105 694.5 c 128,-1,6
 120 719 120 719 155 719 c 2,7,-1
 189 719 l 1,8,-1
 189 684 l 1,9,-1
 161 684 l 2,10,11
 142 684 142 684 136.5 663.5 c 128,-1,12
 131 643 131 643 131 605 c 2,13,-1
 131 372 l 2,14,15
 131 332 131 332 116 310.5 c 128,-1,16
 101 289 101 289 82 282 c 1,17,18
 100 274 100 274 115.5 252 c 128,-1,19
 131 230 131 230 131 194 c 2,20,-1
 131 -40 l 2,21,22
 131 -78 131 -78 136.5 -98.5 c 128,-1,23
 142 -119 142 -119 161 -119 c 2,24,-1
 189 -119 l 1,25,-1
 189 -154 l 1,26,-1
 155 -154 l 2,27,28
 120 -154 120 -154 105 -129.5 c 128,-1,29
 90 -105 90 -105 90 -40 c 2,30,-1
 90 202 l 2,31,32
 90 232 90 232 70.5 248.5 c 128,-1,33
 51 265 51 265 31 265 c 1,34,-1
 31 300 l 1,0,1
EndSplineSet
Validated: 1
EndChar

StartChar: bar
Encoding: 124 124 65
Width: 222
GlyphClass: 1
Flags: W
LayerCount: 2
Fore
SplineSet
90 723 m 1,0,-1
 131 723 l 1,1,-1
 131 -4 l 1,2,-1
 90 -4 l 1,3,-1
 90 723 l 1,0,-1
EndSplineSet
Validated: 1
EndChar

StartChar: braceright
Encoding: 125 125 66
Width: 222
GlyphClass: 1
Flags: W
LayerCount: 2
Fore
SplineSet
31 -119 m 1,0,-1
 60 -119 l 2,1,2
 79 -119 79 -119 84.5 -98.5 c 128,-1,3
 90 -78 90 -78 90 -40 c 2,4,-1
 90 194 l 2,5,6
 90 233 90 233 104.5 255 c 128,-1,7
 119 277 119 277 139 284 c 1,8,9
 120 291 120 291 105 313 c 128,-1,10
 90 335 90 335 90 372 c 2,11,-1
 90 605 l 2,12,13
 90 643 90 643 84.5 663.5 c 128,-1,14
 79 684 79 684 60 684 c 2,15,-1
 31 684 l 1,16,-1
 31 719 l 1,17,-1
 66 719 l 2,18,19
 100 719 100 719 115.5 694.5 c 128,-1,20
 131 670 131 670 131 605 c 2,21,-1
 131 364 l 2,22,23
 131 333 131 333 150.5 316.5 c 128,-1,24
 170 300 170 300 189 300 c 1,25,-1
 189 265 l 1,26,27
 170 265 170 265 150.5 248.5 c 128,-1,28
 131 232 131 232 131 202 c 2,29,-1
 131 -40 l 2,30,31
 131 -105 131 -105 115.5 -129.5 c 128,-1,32
 100 -154 100 -154 66 -154 c 2,33,-1
 31 -154 l 1,34,-1
 31 -119 l 1,0,-1
EndSplineSet
Validated: 1
EndChar

StartChar: asciitilde
Encoding: 126 126 67
Width: 300
GlyphClass: 1
Flags: W
LayerCount: 2
Fore
SplineSet
34 219 m 1,0,1
 45 254 45 254 58 279 c 128,-1,2
 71 304 71 304 96 304 c 0,3,4
 112 304 112 304 126.5 293.5 c 128,-1,5
 141 283 141 283 154 269 c 0,6,7
 166 257 166 257 178 247 c 128,-1,8
 190 237 190 237 201 237 c 0,9,10
 210 237 210 237 217 244 c 128,-1,11
 224 251 224 251 230 262 c 128,-1,12
 236 273 236 273 240.5 286.5 c 128,-1,13
 245 300 245 300 248 313 c 1,14,-1
 263 287 l 1,15,16
 252 249 252 249 239.5 225.5 c 128,-1,17
 227 202 227 202 201 202 c 0,18,19
 186 202 186 202 172 212.5 c 128,-1,20
 158 223 158 223 145 237 c 0,21,22
 133 248 133 248 120.5 258.5 c 128,-1,23
 108 269 108 269 96 269 c 0,24,25
 88 269 88 269 81 262.5 c 128,-1,26
 74 256 74 256 69 246 c 128,-1,27
 64 236 64 236 60 224 c 128,-1,28
 56 212 56 212 53 202 c 1,29,-1
 53 203 l 1,30,31
 52 201 52 201 51 198 c 128,-1,32
 50 195 50 195 50 193 c 1,33,-1
 34 219 l 1,0,1
EndSplineSet
Validated: 1
EndChar

StartChar: sterling
Encoding: 163 163 68
Width: 1331
GlyphClass: 1
Flags: W
LayerCount: 2
Fore
SplineSet
683 427 m 2,0,1
 683 420 683 420 686 414 c 0,2,3
 690 408 690 408 703 408 c 0,4,5
 714 408 714 408 718 413 c 0,6,7
 723 417 723 417 723 428 c 2,8,-1
 723 483 l 2,9,10
 723 491 723 491 722.5 496 c 128,-1,11
 722 501 722 501 721 506 c 0,12,13
 720 513 720 513 713 526 c 2,14,-1
 675 597 l 2,15,16
 673 603 673 603 671 608.5 c 128,-1,17
 669 614 669 614 667 620 c 0,18,19
 664 633 664 633 664 643 c 2,20,-1
 664 691 l 2,21,22
 664 707 664 707 674 717 c 0,23,24
 680 721 680 721 687 723.5 c 128,-1,25
 694 726 694 726 703 726 c 0,26,27
 720 726 720 726 732 719 c 0,28,29
 737 714 737 714 739.5 708.5 c 128,-1,30
 742 703 742 703 742 694 c 2,31,-1
 742 634 l 1,32,-1
 722 634 l 1,33,-1
 722 693 l 2,34,35
 722 709 722 709 705 709 c 0,36,37
 697 709 697 709 691 705 c 0,38,39
 686 700 686 700 686 692 c 2,40,-1
 686 641 l 2,41,42
 686 624 686 624 694 609 c 0,43,44
 698 601 698 601 702.5 592 c 128,-1,45
 707 583 707 583 712 574 c 256,46,47
 717 565 717 565 721.5 556 c 128,-1,48
 726 547 726 547 731 538 c 0,49,50
 733 533 733 533 735.5 527 c 128,-1,51
 738 521 738 521 740 515 c 0,52,53
 745 500 745 500 745 489 c 2,54,-1
 745 427 l 2,55,56
 745 411 745 411 735 401 c 0,57,58
 726 392 726 392 704 392 c 256,59,60
 682 392 682 392 672 401 c 0,61,62
 664 411 664 411 664 428 c 2,63,-1
 664 488 l 1,64,-1
 683 488 l 1,65,-1
 683 427 l 2,0,1
766 724 m 1,66,-1
 808 724 l 2,67,68
 847 724 847 724 847 692 c 2,69,-1
 847 585 l 2,70,71
 847 571 847 571 837 561 c 0,72,73
 826 552 826 552 808 552 c 2,74,-1
 787 552 l 1,75,-1
 787 393 l 1,76,-1
 766 393 l 1,77,-1
 766 724 l 1,66,-1
805 568 m 2,78,79
 815 568 815 568 820 573 c 256,80,81
 825 578 825 578 825 586 c 2,82,-1
 825 689 l 2,83,84
 825 697 825 697 820 704 c 0,85,86
 814 708 814 708 805 708 c 2,87,-1
 787 708 l 1,88,-1
 787 568 l 1,89,-1
 805 568 l 2,78,79
868 724 m 1,90,-1
 933 724 l 1,91,-1
 933 708 l 1,92,-1
 888 708 l 1,93,-1
 888 572 l 1,94,-1
 930 572 l 1,95,-1
 930 556 l 1,96,-1
 888 556 l 1,97,-1
 888 410 l 1,98,-1
 935 410 l 1,99,-1
 935 393 l 1,100,-1
 868 393 l 1,101,-1
 868 724 l 1,90,-1
946 689 m 2,102,103
 946 707 946 707 956 716 c 0,104,105
 968 726 968 726 985 726 c 0,106,107
 1003 726 1003 726 1014 717 c 0,108,109
 1023 708 1023 708 1023 690 c 2,110,-1
 1023 634 l 1,111,-1
 1002 634 l 1,112,-1
 1002 687 l 2,113,114
 1002 695 1002 695 999 703 c 0,115,116
 996 709 996 709 985 709 c 0,117,118
 978 709 978 709 972 705 c 0,119,120
 966 699 966 699 966 691 c 2,121,-1
 966 427 l 2,122,123
 966 419 966 419 972 413 c 0,124,125
 977 408 977 408 985 408 c 0,126,127
 996 408 996 408 999 414 c 256,128,129
 1002 420 1002 420 1002 431 c 2,130,-1
 1002 489 l 1,131,-1
 1023 489 l 1,132,-1
 1023 429 l 2,133,134
 1023 410 1023 410 1014 402 c 0,135,136
 1005 392 1005 392 985 392 c 0,137,138
 966 392 966 392 956 402 c 0,139,140
 946 411 946 411 946 429 c 2,141,-1
 946 689 l 2,102,103
1047 724 m 1,142,-1
 1068 724 l 1,143,-1
 1068 393 l 1,144,-1
 1047 393 l 1,145,-1
 1047 724 l 1,142,-1
1159 490 m 1,146,-1
 1116 490 l 1,147,148
 1114 478 1114 478 1113.5 466 c 128,-1,149
 1113 454 1113 454 1111 442 c 0,150,151
 1110 430 1110 430 1109 417.5 c 128,-1,152
 1108 405 1108 405 1106 393 c 1,153,-1
 1087 393 l 1,154,-1
 1124 724 l 1,155,-1
 1152 724 l 1,156,-1
 1190 393 l 1,157,-1
 1169 393 l 1,158,-1
 1159 490 l 1,146,-1
1157 506 m 1,159,160
 1155 520 1155 520 1154 533 c 128,-1,161
 1153 546 1153 546 1151 559 c 256,162,163
 1149 572 1149 572 1148.5 585 c 128,-1,164
 1148 598 1148 598 1146 612 c 0,165,166
 1145 614 1145 614 1145 616.5 c 128,-1,167
 1145 619 1145 619 1144 621 c 0,168,169
 1144 628 1144 628 1143 631 c 0,170,171
 1143 640 1143 640 1141 648 c 0,172,173
 1141 653 1141 653 1140.5 656 c 128,-1,174
 1140 659 1140 659 1140 663 c 0,175,176
 1139 668 1139 668 1138.5 671 c 128,-1,177
 1138 674 1138 674 1138 679 c 0,178,179
 1137 682 1137 682 1137 686.5 c 128,-1,180
 1137 691 1137 691 1136 696 c 1,181,-1
 1136 679 l 2,182,183
 1136 674 1136 674 1135.5 670 c 128,-1,184
 1135 666 1135 666 1134 661 c 0,185,186
 1134 655 1134 655 1133.5 648.5 c 128,-1,187
 1133 642 1133 642 1132 636 c 0,188,189
 1132 631 1132 631 1131.5 624.5 c 128,-1,190
 1131 618 1131 618 1130 612 c 0,191,192
 1128 598 1128 598 1127 585.5 c 128,-1,193
 1126 573 1126 573 1124 559 c 256,194,195
 1122 545 1122 545 1121 532 c 128,-1,196
 1120 519 1120 519 1118 506 c 1,197,-1
 1157 506 l 1,159,160
1209 724 m 1,198,-1
 1229 724 l 1,199,-1
 1229 410 l 1,200,-1
 1277 410 l 1,201,-1
 1277 393 l 1,202,-1
 1209 393 l 1,203,-1
 1209 724 l 1,198,-1
70 96 m 1,204,-1
 29 96 l 1,205,206
 27 84 27 84 26 72.5 c 128,-1,207
 25 61 25 61 23 48 c 256,208,209
 21 35 21 35 20.5 23.5 c 128,-1,210
 20 12 20 12 19 0 c 1,211,-1
 0 0 l 1,212,-1
 36 330 l 1,213,-1
 64 330 l 1,214,-1
 102 0 l 1,215,-1
 82 0 l 1,216,-1
 70 96 l 1,204,-1
70 112 m 1,217,218
 68 126 68 126 67 139 c 128,-1,219
 66 152 66 152 64 165 c 256,220,221
 62 178 62 178 60.5 191 c 128,-1,222
 59 204 59 204 58 218 c 0,223,224
 57 221 57 221 57 228 c 0,225,226
 57 230 57 230 57 232.5 c 128,-1,227
 57 235 57 235 56 237 c 0,228,229
 55 242 55 242 55 246.5 c 128,-1,230
 55 251 55 251 54 255 c 256,231,232
 53 259 53 259 53 262.5 c 128,-1,233
 53 266 53 266 52 269 c 0,234,235
 52 273 52 273 51.5 277 c 128,-1,236
 51 281 51 281 51 284 c 0,237,238
 50 289 50 289 49.5 293.5 c 128,-1,239
 49 298 49 298 49 303 c 1,240,241
 48 298 48 298 48 294 c 128,-1,242
 48 290 48 290 48 285 c 0,243,244
 47 281 47 281 47 276.5 c 128,-1,245
 47 272 47 272 46 268 c 0,246,247
 46 261 46 261 45.5 255 c 128,-1,248
 45 249 45 249 45 242 c 0,249,250
 45 237 45 237 44.5 231 c 128,-1,251
 44 225 44 225 43 218 c 0,252,253
 41 205 41 205 39.5 192 c 128,-1,254
 38 179 38 179 36 165 c 256,255,256
 34 151 34 151 33 138.5 c 128,-1,257
 32 126 32 126 31 112 c 1,258,-1
 70 112 l 1,217,218
120 330 m 1,259,-1
 163 330 l 2,260,261
 201 330 201 330 201 298 c 2,262,-1
 201 191 l 2,263,264
 201 176 201 176 192 167 c 0,265,266
 181 158 181 158 163 158 c 2,267,-1
 142 158 l 1,268,-1
 142 0 l 1,269,-1
 120 0 l 1,270,-1
 120 330 l 1,259,-1
160 174 m 2,271,272
 167 174 167 174 175 179 c 0,273,274
 181 183 181 183 181 192 c 2,275,-1
 181 295 l 2,276,277
 181 304 181 304 175 309 c 0,278,279
 170 314 170 314 160 314 c 2,280,-1
 142 314 l 1,281,-1
 142 174 l 1,282,-1
 160 174 l 2,271,272
222 330 m 1,283,-1
 264 330 l 2,284,285
 303 330 303 330 303 298 c 2,286,-1
 303 191 l 2,287,288
 303 177 303 177 293 167 c 0,289,290
 282 158 282 158 264 158 c 2,291,-1
 244 158 l 1,292,-1
 244 0 l 1,293,-1
 222 0 l 1,294,-1
 222 330 l 1,283,-1
261 174 m 2,295,296
 269 174 269 174 276 179 c 0,297,298
 282 183 282 183 282 192 c 2,299,-1
 282 295 l 2,300,301
 282 304 282 304 276 309 c 0,302,303
 271 314 271 314 261 314 c 2,304,-1
 244 314 l 1,305,-1
 244 174 l 1,306,-1
 261 174 l 2,295,296
324 330 m 1,307,-1
 389 330 l 1,308,-1
 389 314 l 1,309,-1
 345 314 l 1,310,-1
 345 178 l 1,311,-1
 386 178 l 1,312,-1
 386 162 l 1,313,-1
 345 162 l 1,314,-1
 345 17 l 1,315,-1
 392 17 l 1,316,-1
 392 0 l 1,317,-1
 324 0 l 1,318,-1
 324 330 l 1,307,-1
470 96 m 1,319,-1
 428 96 l 1,320,321
 426 84 426 84 425.5 72.5 c 128,-1,322
 425 61 425 61 423 48 c 256,323,324
 421 35 421 35 420.5 23.5 c 128,-1,325
 420 12 420 12 418 0 c 1,326,-1
 399 0 l 1,327,-1
 435 330 l 1,328,-1
 463 330 l 1,329,-1
 501 0 l 1,330,-1
 481 0 l 1,331,-1
 470 96 l 1,319,-1
469 112 m 1,332,333
 467 126 467 126 466 139 c 128,-1,334
 465 152 465 152 463 165 c 256,335,336
 461 178 461 178 460 191 c 128,-1,337
 459 204 459 204 458 218 c 0,338,339
 456 224 456 224 456 228 c 0,340,341
 456 230 456 230 456 232.5 c 128,-1,342
 456 235 456 235 455 237 c 0,343,344
 454 242 454 242 454 246.5 c 128,-1,345
 454 251 454 251 453 255 c 256,346,347
 452 259 452 259 452 262.5 c 128,-1,348
 452 266 452 266 451 269 c 0,349,350
 451 273 451 273 450.5 277 c 128,-1,351
 450 281 450 281 450 284 c 0,352,353
 449 289 449 289 449 293.5 c 128,-1,354
 449 298 449 298 448 303 c 1,355,356
 448 298 448 298 447.5 294 c 128,-1,357
 447 290 447 290 447 285 c 0,358,359
 446 281 446 281 446 276.5 c 128,-1,360
 446 272 446 272 446 268 c 0,361,362
 446 261 446 261 445.5 255 c 128,-1,363
 445 249 445 249 444 242 c 0,364,365
 444 237 444 237 443.5 231 c 128,-1,366
 443 225 443 225 442 218 c 0,367,368
 440 205 440 205 438.5 192 c 128,-1,369
 437 179 437 179 435 165 c 256,370,371
 433 151 433 151 432.5 138.5 c 128,-1,372
 432 126 432 126 430 112 c 1,373,-1
 469 112 l 1,332,333
520 330 m 1,374,-1
 562 330 l 2,375,376
 580 330 580 330 590 323 c 256,377,378
 600 316 600 316 600 299 c 2,379,-1
 600 202 l 2,380,381
 600 189 600 189 596 181 c 0,382,383
 593 174 593 174 579 169 c 1,384,385
 589 165 589 165 595 159 c 0,386,387
 600 152 600 152 600 139 c 2,388,-1
 600 0 l 1,389,-1
 580 0 l 1,390,-1
 580 140 l 2,391,392
 580 147 580 147 574 155 c 0,393,394
 569 162 569 162 557 162 c 2,395,-1
 541 162 l 1,396,-1
 541 0 l 1,397,-1
 520 0 l 1,398,-1
 520 330 l 1,374,-1
558 178 m 2,399,400
 580 178 580 178 580 198 c 2,401,-1
 580 295 l 2,402,403
 580 314 580 314 559 314 c 2,404,-1
 541 314 l 1,405,-1
 541 178 l 1,406,-1
 558 178 l 2,399,400
692 96 m 1,407,-1
 649 96 l 1,408,409
 648 84 648 84 647.5 72.5 c 128,-1,410
 647 61 647 61 645 48 c 256,411,412
 643 35 643 35 642 23.5 c 128,-1,413
 641 12 641 12 640 0 c 1,414,-1
 621 0 l 1,415,-1
 658 330 l 1,416,-1
 685 330 l 1,417,-1
 723 0 l 1,418,-1
 702 0 l 1,419,-1
 692 96 l 1,407,-1
690 112 m 1,420,421
 688 126 688 126 687 139 c 128,-1,422
 686 152 686 152 684 165 c 0,423,424
 683 178 683 178 682 191 c 128,-1,425
 681 204 681 204 679 218 c 0,426,427
 678 221 678 221 678 228 c 0,428,429
 678 230 678 230 677.5 232.5 c 128,-1,430
 677 235 677 235 677 237 c 0,431,432
 676 242 676 242 675.5 246.5 c 128,-1,433
 675 251 675 251 675 255 c 0,434,435
 673 265 673 265 673 269 c 0,436,437
 672 273 672 273 672 277 c 128,-1,438
 672 281 672 281 672 284 c 0,439,440
 671 289 671 289 671 293.5 c 128,-1,441
 671 298 671 298 671 303 c 1,442,443
 670 298 670 298 670 294 c 128,-1,444
 670 290 670 290 669 285 c 0,445,446
 669 281 669 281 668.5 276.5 c 128,-1,447
 668 272 668 272 668 268 c 0,448,449
 667 261 667 261 666.5 255 c 128,-1,450
 666 249 666 249 666 242 c 0,451,452
 664 231 664 231 663 218 c 0,453,454
 661 205 661 205 660 192 c 128,-1,455
 659 179 659 179 658 165 c 0,456,457
 656 151 656 151 654.5 138.5 c 128,-1,458
 653 126 653 126 651 112 c 1,459,-1
 690 112 l 1,420,421
742 330 m 1,460,-1
 772 330 l 1,461,-1
 803 117 l 2,462,463
 805 101 805 101 808 81.5 c 128,-1,464
 811 62 811 62 814 39 c 1,465,466
 813 53 813 53 813 65 c 128,-1,467
 813 77 813 77 812 88 c 256,468,469
 811 99 811 99 811 107 c 128,-1,470
 811 115 811 115 811 120 c 2,471,-1
 811 330 l 1,472,-1
 833 330 l 1,473,-1
 833 0 l 1,474,-1
 802 0 l 1,475,-1
 771 210 l 2,476,477
 770 216 770 216 769 225 c 128,-1,478
 768 234 768 234 766 245 c 256,479,480
 764 256 764 256 763 268.5 c 128,-1,481
 762 281 762 281 760 294 c 1,482,483
 760 288 760 288 760 282 c 128,-1,484
 760 276 760 276 761 269 c 0,485,486
 761 264 761 264 761 258.5 c 128,-1,487
 761 253 761 253 762 248 c 2,488,-1
 762 230 l 2,489,490
 763 227 763 227 763 224.5 c 128,-1,491
 763 222 763 222 763 220 c 2,492,-1
 763 0 l 1,493,-1
 742 0 l 1,494,-1
 742 330 l 1,460,-1
853 295 m 2,495,496
 853 313 853 313 864 322 c 0,497,498
 874 332 874 332 894 332 c 0,499,500
 913 332 913 332 922 322 c 0,501,502
 932 314 932 314 932 295 c 2,503,-1
 932 241 l 1,504,-1
 910 241 l 1,505,-1
 910 293 l 2,506,507
 910 298 910 298 910 302 c 128,-1,508
 910 306 910 306 908 309 c 0,509,510
 904 316 904 316 894 316 c 0,511,512
 885 316 885 316 880 311 c 0,513,514
 874 305 874 305 874 297 c 2,515,-1
 874 33 l 2,516,517
 874 25 874 25 880 19 c 0,518,519
 886 15 886 15 894 15 c 0,520,521
 903 15 903 15 908 20 c 0,522,523
 910 24 910 24 910 37 c 2,524,-1
 910 94 l 1,525,-1
 932 94 l 1,526,-1
 932 35 l 2,527,528
 932 19 932 19 922 7 c 0,529,530
 911 -2 911 -2 894 -2 c 0,531,532
 884 -2 884 -2 876.5 0.5 c 128,-1,533
 869 3 869 3 864 7 c 0,534,535
 853 18 853 18 853 35 c 2,536,-1
 853 295 l 2,495,496
954 330 m 1,537,-1
 1019 330 l 1,538,-1
 1019 314 l 1,539,-1
 974 314 l 1,540,-1
 974 178 l 1,541,-1
 1016 178 l 1,542,-1
 1016 162 l 1,543,-1
 974 162 l 1,544,-1
 974 17 l 1,545,-1
 1022 17 l 1,546,-1
 1022 0 l 1,547,-1
 954 0 l 1,548,-1
 954 330 l 1,537,-1
1089 330 m 1,549,-1
 1130 330 l 2,550,551
 1148 330 1148 330 1159 322 c 0,552,553
 1169 314 1169 314 1169 294 c 2,554,-1
 1169 199 l 2,555,556
 1169 186 1169 186 1163 180 c 0,557,558
 1158 173 1158 173 1148 170 c 1,559,560
 1160 168 1160 168 1164 161 c 0,561,562
 1172 153 1172 153 1172 140 c 2,563,-1
 1172 36 l 2,564,565
 1172 17 1172 17 1161 8 c 0,566,567
 1150 0 1150 0 1135 0 c 2,568,-1
 1089 0 l 1,569,-1
 1089 330 l 1,549,-1
1129 178 m 2,570,571
 1141 178 1141 178 1144 185 c 0,572,573
 1148 192 1148 192 1148 200 c 2,574,-1
 1148 295 l 2,575,576
 1148 305 1148 305 1144 310 c 0,577,578
 1140 314 1140 314 1128 314 c 2,579,-1
 1110 314 l 1,580,-1
 1110 178 l 1,581,-1
 1129 178 l 2,570,571
1110 162 m 1,582,-1
 1110 17 l 1,583,-1
 1128 17 l 2,584,585
 1142 17 1142 17 1146 21 c 0,586,587
 1150 27 1150 27 1150 35 c 2,588,-1
 1150 139 l 2,589,590
 1150 162 1150 162 1129 162 c 2,591,-1
 1110 162 l 1,582,-1
1260 330 m 1,592,-1
 1281 330 l 1,593,-1
 1242 130 l 1,594,-1
 1242 0 l 1,595,-1
 1222 0 l 1,596,-1
 1222 130 l 2,597,598
 1220 141 1220 141 1217.5 153.5 c 128,-1,599
 1215 166 1215 166 1212 179 c 0,600,601
 1210 192 1210 192 1207.5 204.5 c 128,-1,602
 1205 217 1205 217 1202 230 c 0,603,604
 1200 244 1200 244 1197.5 257 c 128,-1,605
 1195 270 1195 270 1193 282 c 0,606,607
 1190 295 1190 295 1188 307 c 128,-1,608
 1186 319 1186 319 1184 330 c 1,609,-1
 1205 330 l 1,610,-1
 1233 161 l 1,611,-1
 1260 330 l 1,592,-1
EndSplineSet
Validated: 1
EndChar

StartChar: quotesingle
Encoding: 39 39 69
Width: 112
GlyphClass: 1
Flags: W
LayerCount: 2
Fore
SplineSet
38 719 m 1,0,-1
 73 719 l 1,1,-1
 73 559 l 1,2,-1
 38 559 l 1,3,-1
 38 719 l 1,0,-1
EndSplineSet
Validated: 1
EndChar

StartChar: quotedblleft
Encoding: 8220 8220 70
Width: 167
GlyphClass: 1
Flags: W
LayerCount: 2
Fore
SplineSet
123 719 m 1,0,-1
 159 719 l 1,1,-1
 135 559 l 1,2,-1
 84 559 l 1,3,-1
 123 719 l 1,0,-1
45 719 m 1,4,-1
 81 719 l 1,5,-1
 57 559 l 1,6,-1
 6 559 l 1,7,-1
 45 719 l 1,4,-1
EndSplineSet
Validated: 1
EndChar

StartChar: bullet
Encoding: 8226 8226 71
Width: 242
GlyphClass: 1
Flags: W
LayerCount: 2
Fore
SplineSet
67 375 m 256,0,1
 67 398 67 398 82.5 413.5 c 128,-1,2
 98 429 98 429 121 429 c 256,3,4
 144 429 144 429 159.5 413.5 c 128,-1,5
 175 398 175 398 175 375 c 256,6,7
 175 352 175 352 159.5 336.5 c 128,-1,8
 144 321 144 321 121 321 c 256,9,10
 98 321 98 321 82.5 336.5 c 128,-1,11
 67 352 67 352 67 375 c 256,0,1
EndSplineSet
Validated: 1
EndChar

StartChar: quotesinglbase
Encoding: 8218 8218 72
Width: 153
GlyphClass: 1
Flags: W
LayerCount: 2
Fore
SplineSet
71 96 m 1,0,-1
 29 96 l 1,1,2
 28 85 28 85 27 73 c 128,-1,3
 26 61 26 61 24 48 c 0,4,5
 22 36 22 36 21.5 24 c 128,-1,6
 21 12 21 12 19 0 c 1,7,-1
 0 0 l 1,8,-1
 36 331 l 1,9,-1
 65 331 l 1,10,-1
 103 0 l 1,11,-1
 82 0 l 1,12,-1
 71 96 l 1,0,-1
69 112 m 1,13,14
 68 126 68 126 67 139 c 128,-1,15
 66 152 66 152 64 165 c 0,16,17
 62 179 62 179 61 191.5 c 128,-1,18
 60 204 60 204 59 218 c 0,19,20
 58 221 58 221 57.5 223 c 128,-1,21
 57 225 57 225 57 228 c 0,22,23
 57 230 57 230 57 232.5 c 128,-1,24
 57 235 57 235 56 237 c 0,25,26
 55 242 55 242 55 246.5 c 128,-1,27
 55 251 55 251 54 254 c 0,28,29
 53 259 53 259 53 262 c 128,-1,30
 53 265 53 265 52 269 c 0,31,32
 52 273 52 273 52 276.5 c 128,-1,33
 52 280 52 280 51 285 c 0,34,35
 51 289 51 289 50.5 293 c 128,-1,36
 50 297 50 297 50 302 c 1,37,38
 49 298 49 298 49 294 c 128,-1,39
 49 290 49 290 48 285 c 0,40,41
 48 280 48 280 47.5 276 c 128,-1,42
 47 272 47 272 47 268 c 0,43,44
 46 261 46 261 45.5 255 c 128,-1,45
 45 249 45 249 45 243 c 0,46,47
 44 237 44 237 44 231 c 128,-1,48
 44 225 44 225 43 218 c 0,49,50
 41 205 41 205 39.5 192 c 128,-1,51
 38 179 38 179 36 165 c 0,52,53
 35 151 35 151 34 138 c 128,-1,54
 33 125 33 125 31 112 c 1,55,-1
 69 112 l 1,13,14
EndSplineSet
Validated: 1
EndChar

StartChar: quotedblright
Encoding: 8221 8221 73
Width: 167
GlyphClass: 1
Flags: W
LayerCount: 2
Fore
SplineSet
31 719 m 1,0,-1
 82 719 l 1,1,-1
 43 559 l 1,2,-1
 7 559 l 1,3,-1
 31 719 l 1,0,-1
109 719 m 1,4,-1
 160 719 l 1,5,-1
 121 559 l 1,6,-1
 85 559 l 1,7,-1
 109 719 l 1,4,-1
EndSplineSet
Validated: 1
EndChar

StartChar: grave
Encoding: 96 96 74
Width: 94
GlyphClass: 1
Flags: W
LayerCount: 2
Fore
SplineSet
-18 686 m 1,0,-1
 34 686 l 1,1,-1
 76 585 l 1,2,-1
 44 585 l 1,3,-1
 -18 686 l 1,0,-1
EndSplineSet
Validated: 1
EndChar

StartChar: dieresis
Encoding: 168 168 75
Width: 2302
GlyphClass: 1
Flags: W
LayerCount: 2
Fore
SplineSet
0 462.16015625 m 1,0,-1
 87.6806640625 462.16015625 l 1,1,-1
 87.6806640625 442.959960938 l 1,2,-1
 25.6005859375 442.959960938 l 1,3,-1
 25.6005859375 247.120117188 l 1,4,-1
 83.8408203125 247.120117188 l 1,5,-1
 83.8408203125 227.919921875 l 1,6,-1
 25.6005859375 227.919921875 l 1,7,-1
 25.6005859375 19.2802734375 l 1,8,-1
 92.16015625 19.2802734375 l 1,9,-1
 92.16015625 0.080078125 l 1,10,-1
 0 0.080078125 l 1,11,-1
 0 462.16015625 l 1,0,-1
118.400390625 462.16015625 m 1,12,-1
 156.80078125 462.16015625 l 1,13,-1
 200.3203125 163.919921875 l 2,14,15
 207.954101562 109.529296875 207.954101562 109.529296875 221.440429688 19.2802734375 c 1,16,-1
 222.720703125 19.2802734375 l 1,17,18
 216.3203125 147.280273438 216.3203125 147.280273438 216.3203125 167.759765625 c 2,19,-1
 216.3203125 462.16015625 l 1,20,-1
 241.920898438 462.16015625 l 1,21,-1
 241.920898438 0.080078125 l 1,22,-1
 203.520507812 0.080078125 l 1,23,-1
 158.720703125 294.48046875 l 2,24,25
 155.779296875 313.59765625 155.779296875 313.59765625 140.80078125 442.959960938 c 1,26,-1
 139.520507812 442.959960938 l 1,27,28
 140.067382812 417.247070312 140.067382812 417.247070312 141.204101562 386.484375 c 128,-1,29
 142.33984375 355.720703125 142.33984375 355.720703125 143.169921875 335.168945312 c 128,-1,30
 144 314.6171875 144 314.6171875 144 308.559570312 c 2,31,-1
 144 0.080078125 l 1,32,-1
 118.400390625 0.080078125 l 1,33,-1
 118.400390625 462.16015625 l 1,12,-1
418.560546875 135.120117188 m 1,34,-1
 355.200195312 135.120117188 l 1,35,-1
 341.120117188 0.080078125 l 1,36,-1
 318.080078125 0.080078125 l 1,37,-1
 369.920898438 462.16015625 l 1,38,-1
 405.760742188 462.16015625 l 1,39,-1
 458.880859375 0.080078125 l 1,40,-1
 433.280273438 0.080078125 l 1,41,-1
 418.560546875 135.120117188 l 1,34,-1
416.640625 154.3203125 m 1,42,-1
 400.640625 306 l 2,43,44
 388.724609375 413.241210938 388.724609375 413.241210938 387.840820312 445.51953125 c 1,45,-1
 386.560546875 445.51953125 l 1,46,47
 384 422.479492188 384 422.479492188 380.48046875 375.759765625 c 128,-1,48
 376.959960938 329.040039062 376.959960938 329.040039062 374.400390625 306 c 2,49,-1
 357.760742188 154.3203125 l 1,50,-1
 416.640625 154.3203125 l 1,42,-1
488.950195312 44.8798828125 m 2,51,52
 488.950195312 16.7197265625 488.950195312 16.7197265625 518.390625 16.7197265625 c 0,53,54
 534.854492188 16.7197265625 534.854492188 16.7197265625 542.301757812 23.5859375 c 128,-1,55
 549.75 30.4521484375 549.75 30.4521484375 549.75 46.16015625 c 2,56,-1
 549.75 125.51953125 l 2,57,58
 549.75 153.361328125 549.75 153.361328125 536.310546875 185.040039062 c 2,59,-1
 482.55078125 286.799804688 l 2,60,61
 465.91015625 318.124023438 465.91015625 318.124023438 465.91015625 349.51953125 c 2,62,-1
 465.91015625 416.719726562 l 2,63,64
 465.91015625 439.173828125 465.91015625 439.173828125 480.170898438 451.947265625 c 128,-1,65
 494.432617188 464.719726562 494.432617188 464.719726562 519.030273438 464.719726562 c 0,66,67
 571.510742188 464.719726562 571.510742188 464.719726562 571.510742188 421.83984375 c 2,68,-1
 571.510742188 339.280273438 l 1,69,-1
 548.470703125 339.280273438 l 1,70,-1
 548.470703125 419.280273438 l 2,71,72
 548.470703125 445.51953125 548.470703125 445.51953125 520.950195312 445.51953125 c 0,73,74
 507.954101562 445.51953125 507.954101562 445.51953125 500.692382812 437.756835938 c 128,-1,75
 493.430664062 429.995117188 493.430664062 429.995117188 493.430664062 418 c 2,76,-1
 493.430664062 346.3203125 l 2,77,78
 493.430664062 324.500976562 493.430664062 324.500976562 503.670898438 302.16015625 c 2,79,-1
 556.150390625 201.6796875 l 2,80,81
 575.350585938 163.279296875 575.350585938 163.279296875 575.350585938 131.919921875 c 2,82,-1
 575.350585938 44.8798828125 l 2,83,84
 575.350585938 -2.48046875 575.350585938 -2.48046875 520.310546875 -2.48046875 c 0,85,86
 491.116210938 -2.48046875 491.116210938 -2.48046875 478.512695312 9.88671875 c 128,-1,87
 465.91015625 22.25390625 465.91015625 22.25390625 465.91015625 46.7998046875 c 2,88,-1
 465.91015625 128.719726562 l 1,89,-1
 488.950195312 128.719726562 l 1,90,-1
 488.950195312 44.8798828125 l 2,51,52
622.709960938 44.8798828125 m 2,91,92
 622.709960938 16.7197265625 622.709960938 16.7197265625 652.150390625 16.7197265625 c 0,93,94
 668.614257812 16.7197265625 668.614257812 16.7197265625 676.0625 23.5859375 c 128,-1,95
 683.510742188 30.4521484375 683.510742188 30.4521484375 683.510742188 46.16015625 c 2,96,-1
 683.510742188 125.51953125 l 2,97,98
 683.510742188 153.358398438 683.510742188 153.358398438 670.0703125 185.040039062 c 2,99,-1
 616.310546875 286.799804688 l 2,100,101
 599.670898438 318.122070312 599.670898438 318.122070312 599.670898438 349.51953125 c 2,102,-1
 599.670898438 416.719726562 l 2,103,104
 599.670898438 439.173828125 599.670898438 439.173828125 613.931640625 451.947265625 c 128,-1,105
 628.192382812 464.719726562 628.192382812 464.719726562 652.790039062 464.719726562 c 0,106,107
 705.270507812 464.719726562 705.270507812 464.719726562 705.270507812 421.83984375 c 2,108,-1
 705.270507812 339.280273438 l 1,109,-1
 682.23046875 339.280273438 l 1,110,-1
 682.23046875 419.280273438 l 2,111,112
 682.23046875 445.51953125 682.23046875 445.51953125 654.709960938 445.51953125 c 0,113,114
 641.713867188 445.51953125 641.713867188 445.51953125 634.452148438 437.756835938 c 128,-1,115
 627.190429688 429.995117188 627.190429688 429.995117188 627.190429688 418 c 2,116,-1
 627.190429688 346.3203125 l 2,117,118
 627.190429688 324.500976562 627.190429688 324.500976562 637.430664062 302.16015625 c 2,119,-1
 689.91015625 201.6796875 l 2,120,121
 709.110351562 163.279296875 709.110351562 163.279296875 709.110351562 131.919921875 c 2,122,-1
 709.110351562 44.8798828125 l 2,123,124
 709.110351562 -2.48046875 709.110351562 -2.48046875 654.0703125 -2.48046875 c 0,125,126
 624.875976562 -2.48046875 624.875976562 -2.48046875 612.2734375 9.88671875 c 128,-1,127
 599.670898438 22.25390625 599.670898438 22.25390625 599.670898438 46.7998046875 c 2,128,-1
 599.670898438 128.719726562 l 1,129,-1
 622.709960938 128.719726562 l 1,130,-1
 622.709960938 44.8798828125 l 2,91,92
854.390625 47.4404296875 m 2,131,132
 854.390625 23.416015625 854.390625 23.416015625 839.9765625 10.4677734375 c 128,-1,133
 825.563476562 -2.48046875 825.563476562 -2.48046875 798.709960938 -2.48046875 c 128,-1,134
 771.782226562 -2.48046875 771.782226562 -2.48046875 757.0859375 10.5009765625 c 128,-1,135
 742.390625 23.4833984375 742.390625 23.4833984375 742.390625 47.4404296875 c 2,136,-1
 742.390625 414.799804688 l 2,137,138
 742.390625 438.756835938 742.390625 438.756835938 757.0859375 451.73828125 c 128,-1,139
 771.782226562 464.719726562 771.782226562 464.719726562 798.709960938 464.719726562 c 128,-1,140
 825.563476562 464.719726562 825.563476562 464.719726562 839.9765625 451.772460938 c 128,-1,141
 854.390625 438.82421875 854.390625 438.82421875 854.390625 414.799804688 c 2,142,-1
 854.390625 47.4404296875 l 2,131,132
828.790039062 414.16015625 m 2,143,144
 828.790039062 445.51953125 828.790039062 445.51953125 798.709960938 445.51953125 c 0,145,146
 784.51171875 445.51953125 784.51171875 445.51953125 776.250976562 437.3828125 c 128,-1,147
 767.990234375 429.245117188 767.990234375 429.245117188 767.990234375 414.16015625 c 2,148,-1
 767.990234375 48.080078125 l 2,149,150
 767.990234375 32.994140625 767.990234375 32.994140625 776.250976562 24.857421875 c 128,-1,151
 784.51171875 16.7197265625 784.51171875 16.7197265625 798.709960938 16.7197265625 c 0,152,153
 828.790039062 16.7197265625 828.790039062 16.7197265625 828.790039062 48.080078125 c 2,154,-1
 828.790039062 414.16015625 l 2,143,144
887.670898438 414.799804688 m 2,155,156
 887.670898438 438.641601562 887.670898438 438.641601562 902.063476562 451.680664062 c 128,-1,157
 916.455078125 464.719726562 916.455078125 464.719726562 942.0703125 464.719726562 c 0,158,159
 993.91015625 464.719726562 993.91015625 464.719726562 993.91015625 414.799804688 c 2,160,-1
 993.91015625 338.639648438 l 1,161,-1
 968.310546875 338.639648438 l 1,162,-1
 968.310546875 410.959960938 l 2,163,164
 968.310546875 445.51953125 968.310546875 445.51953125 942.0703125 445.51953125 c 0,165,166
 928.630859375 445.51953125 928.630859375 445.51953125 920.950195312 437.83984375 c 128,-1,167
 913.270507812 430.16015625 913.270507812 430.16015625 913.270507812 416.719726562 c 2,168,-1
 913.270507812 45.51953125 l 2,169,170
 913.270507812 32.080078125 913.270507812 32.080078125 920.950195312 24.3994140625 c 128,-1,171
 928.630859375 16.7197265625 928.630859375 16.7197265625 942.0703125 16.7197265625 c 0,172,173
 956.955078125 16.7197265625 956.955078125 16.7197265625 962.6328125 24.7822265625 c 128,-1,174
 968.310546875 32.8447265625 968.310546875 32.8447265625 968.310546875 51.2802734375 c 2,175,-1
 968.310546875 130 l 1,176,-1
 993.91015625 130 l 1,177,-1
 993.91015625 47.4404296875 l 2,178,179
 993.91015625 -2.48046875 993.91015625 -2.48046875 942.0703125 -2.48046875 c 0,180,181
 916.455078125 -2.48046875 916.455078125 -2.48046875 902.063476562 10.5595703125 c 128,-1,182
 887.670898438 23.5986328125 887.670898438 23.5986328125 887.670898438 47.4404296875 c 2,183,-1
 887.670898438 414.799804688 l 2,155,156
1029.11035156 462.16015625 m 1,184,-1
 1054.70996094 462.16015625 l 1,185,-1
 1054.70996094 0.080078125 l 1,186,-1
 1029.11035156 0.080078125 l 1,187,-1
 1029.11035156 462.16015625 l 1,184,-1
1173.11035156 135.120117188 m 1,188,-1
 1109.75 135.120117188 l 1,189,-1
 1095.67089844 0.080078125 l 1,190,-1
 1072.63085938 0.080078125 l 1,191,-1
 1124.47070312 462.16015625 l 1,192,-1
 1160.31054688 462.16015625 l 1,193,-1
 1213.43066406 0.080078125 l 1,194,-1
 1187.83007812 0.080078125 l 1,195,-1
 1173.11035156 135.120117188 l 1,188,-1
1171.19042969 154.3203125 m 1,196,-1
 1155.19042969 306 l 2,197,198
 1143.27539062 413.233398438 1143.27539062 413.233398438 1142.390625 445.51953125 c 1,199,-1
 1141.11035156 445.51953125 l 1,200,201
 1138.54980469 422.479492188 1138.54980469 422.479492188 1135.03027344 375.759765625 c 128,-1,202
 1131.50976562 329.040039062 1131.50976562 329.040039062 1128.95019531 306 c 2,203,-1
 1112.31054688 154.3203125 l 1,204,-1
 1171.19042969 154.3203125 l 1,196,-1
1242.87011719 442.959960938 m 1,205,-1
 1197.43066406 442.959960938 l 1,206,-1
 1197.43066406 462.16015625 l 1,207,-1
 1313.91015625 462.16015625 l 1,208,-1
 1313.91015625 442.959960938 l 1,209,-1
 1268.47070312 442.959960938 l 1,210,-1
 1268.47070312 0.080078125 l 1,211,-1
 1242.87011719 0.080078125 l 1,212,-1
 1242.87011719 442.959960938 l 1,205,-1
1332.47070312 462.16015625 m 1,213,-1
 1358.0703125 462.16015625 l 1,214,-1
 1358.0703125 0.080078125 l 1,215,-1
 1332.47070312 0.080078125 l 1,216,-1
 1332.47070312 462.16015625 l 1,213,-1
1514.23046875 47.4404296875 m 2,217,218
 1514.23046875 23.416015625 1514.23046875 23.416015625 1499.81738281 10.4677734375 c 128,-1,219
 1485.40332031 -2.48046875 1485.40332031 -2.48046875 1458.55078125 -2.48046875 c 128,-1,220
 1431.62207031 -2.48046875 1431.62207031 -2.48046875 1416.92675781 10.5009765625 c 128,-1,221
 1402.23046875 23.482421875 1402.23046875 23.482421875 1402.23046875 47.4404296875 c 2,222,-1
 1402.23046875 414.799804688 l 2,223,224
 1402.23046875 438.756835938 1402.23046875 438.756835938 1416.92578125 451.73828125 c 128,-1,225
 1431.62207031 464.719726562 1431.62207031 464.719726562 1458.55078125 464.719726562 c 128,-1,226
 1485.40332031 464.719726562 1485.40332031 464.719726562 1499.81738281 451.771484375 c 128,-1,227
 1514.23046875 438.82421875 1514.23046875 438.82421875 1514.23046875 414.799804688 c 2,228,-1
 1514.23046875 47.4404296875 l 2,217,218
1488.63085938 414.16015625 m 2,229,230
 1488.63085938 445.51953125 1488.63085938 445.51953125 1458.55078125 445.51953125 c 0,231,232
 1444.3515625 445.51953125 1444.3515625 445.51953125 1436.09082031 437.3828125 c 128,-1,233
 1427.83007812 429.245117188 1427.83007812 429.245117188 1427.83007812 414.16015625 c 2,234,-1
 1427.83007812 48.080078125 l 2,235,236
 1427.83007812 32.994140625 1427.83007812 32.994140625 1436.09082031 24.857421875 c 128,-1,237
 1444.3515625 16.7197265625 1444.3515625 16.7197265625 1458.55078125 16.7197265625 c 0,238,239
 1488.63085938 16.7197265625 1488.63085938 16.7197265625 1488.63085938 48.080078125 c 2,240,-1
 1488.63085938 414.16015625 l 2,229,230
1556.47070312 462.16015625 m 1,241,-1
 1594.87011719 462.16015625 l 1,242,-1
 1638.390625 163.919921875 l 2,243,244
 1646.02441406 109.529296875 1646.02441406 109.529296875 1659.51074219 19.2802734375 c 1,245,-1
 1660.79003906 19.2802734375 l 1,246,247
 1654.390625 147.299804688 1654.390625 147.299804688 1654.390625 167.759765625 c 2,248,-1
 1654.390625 462.16015625 l 1,249,-1
 1679.99023438 462.16015625 l 1,250,-1
 1679.99023438 0.080078125 l 1,251,-1
 1641.59082031 0.080078125 l 1,252,-1
 1596.79003906 294.48046875 l 2,253,254
 1593.84863281 313.59765625 1593.84863281 313.59765625 1578.87011719 442.959960938 c 1,255,-1
 1577.59082031 442.959960938 l 1,256,257
 1578.13769531 417.24609375 1578.13769531 417.24609375 1579.2734375 386.483398438 c 128,-1,258
 1580.41015625 355.721679688 1580.41015625 355.721679688 1581.24023438 335.168945312 c 128,-1,259
 1582.0703125 314.616210938 1582.0703125 314.616210938 1582.0703125 308.559570312 c 2,260,-1
 1582.0703125 0.080078125 l 1,261,-1
 1556.47070312 0.080078125 l 1,262,-1
 1556.47070312 462.16015625 l 1,241,-1
1856.62011719 135.120117188 m 1,263,-1
 1793.26074219 135.120117188 l 1,264,-1
 1779.18066406 0.080078125 l 1,265,-1
 1756.140625 0.080078125 l 1,266,-1
 1807.98046875 462.16015625 l 1,267,-1
 1843.8203125 462.16015625 l 1,268,-1
 1896.94042969 0.080078125 l 1,269,-1
 1871.34082031 0.080078125 l 1,270,-1
 1856.62011719 135.120117188 l 1,263,-1
1854.70019531 154.3203125 m 1,271,-1
 1838.70019531 306 l 2,272,273
 1826.78515625 413.233398438 1826.78515625 413.233398438 1825.90039062 445.51953125 c 1,274,-1
 1824.62011719 445.51953125 l 1,275,276
 1822.05957031 422.479492188 1822.05957031 422.479492188 1818.54003906 375.759765625 c 128,-1,277
 1815.01953125 329.040039062 1815.01953125 329.040039062 1812.45996094 306 c 2,278,-1
 1795.8203125 154.3203125 l 1,279,-1
 1854.70019531 154.3203125 l 1,271,-1
1883.5 462.16015625 m 1,280,-1
 1909.10058594 462.16015625 l 1,281,-1
 1939.8203125 157.51953125 l 2,282,283
 1942.36621094 130.61328125 1942.36621094 130.61328125 1945.86035156 83.017578125 c 128,-1,284
 1949.35546875 35.421875 1949.35546875 35.421875 1950.70019531 19.2802734375 c 1,285,-1
 1951.98046875 19.2802734375 l 1,286,287
 1954.73730469 44.09375 1954.73730469 44.09375 1957.80371094 90.568359375 c 128,-1,288
 1960.87011719 137.04296875 1960.87011719 137.04296875 1962.86035156 157.51953125 c 2,289,-1
 1992.94042969 462.16015625 l 1,290,-1
 2017.90039062 462.16015625 l 1,291,-1
 1967.98046875 0.080078125 l 1,292,-1
 1933.42089844 0.080078125 l 1,293,-1
 1883.5 462.16015625 l 1,280,-1
2037.10058594 462.16015625 m 1,294,-1
 2124.78027344 462.16015625 l 1,295,-1
 2124.78027344 442.959960938 l 1,296,-1
 2062.70019531 442.959960938 l 1,297,-1
 2062.70019531 247.120117188 l 1,298,-1
 2120.94042969 247.120117188 l 1,299,-1
 2120.94042969 227.919921875 l 1,300,-1
 2062.70019531 227.919921875 l 1,301,-1
 2062.70019531 19.2802734375 l 1,302,-1
 2129.26074219 19.2802734375 l 1,303,-1
 2129.26074219 0.080078125 l 1,304,-1
 2037.10058594 0.080078125 l 1,305,-1
 2037.10058594 462.16015625 l 1,294,-1
2146.54003906 414.799804688 m 2,306,307
 2146.54003906 438.640625 2146.54003906 438.640625 2160.93261719 451.680664062 c 128,-1,308
 2175.32519531 464.719726562 2175.32519531 464.719726562 2200.94042969 464.719726562 c 0,309,310
 2252.78027344 464.719726562 2252.78027344 464.719726562 2252.78027344 414.799804688 c 2,311,-1
 2252.78027344 338.639648438 l 1,312,-1
 2227.18066406 338.639648438 l 1,313,-1
 2227.18066406 410.959960938 l 2,314,315
 2227.18066406 445.51953125 2227.18066406 445.51953125 2200.94042969 445.51953125 c 0,316,317
 2187.5 445.51953125 2187.5 445.51953125 2179.8203125 437.83984375 c 128,-1,318
 2172.140625 430.16015625 2172.140625 430.16015625 2172.140625 416.719726562 c 2,319,-1
 2172.140625 45.51953125 l 2,320,321
 2172.140625 32.080078125 2172.140625 32.080078125 2179.8203125 24.3994140625 c 128,-1,322
 2187.5 16.7197265625 2187.5 16.7197265625 2200.94042969 16.7197265625 c 0,323,324
 2215.82519531 16.7197265625 2215.82519531 16.7197265625 2221.50292969 24.7822265625 c 128,-1,325
 2227.18066406 32.8447265625 2227.18066406 32.8447265625 2227.18066406 51.2802734375 c 2,326,-1
 2227.18066406 130 l 1,327,-1
 2252.78027344 130 l 1,328,-1
 2252.78027344 47.4404296875 l 2,329,330
 2252.78027344 -2.48046875 2252.78027344 -2.48046875 2200.94042969 -2.48046875 c 0,331,332
 2175.32519531 -2.48046875 2175.32519531 -2.48046875 2160.93261719 10.5595703125 c 128,-1,333
 2146.54003906 23.5986328125 2146.54003906 23.5986328125 2146.54003906 47.4404296875 c 2,334,-1
 2146.54003906 414.799804688 l 2,306,307
EndSplineSet
Validated: 524289
EndChar

StartChar: registered
Encoding: 174 174 76
Width: 336
GlyphClass: 1
Flags: W
LayerCount: 2
Fore
SplineSet
89 470 m 1,0,-1
 155 470 l 2,1,2
 212 470 212 470 212 422 c 0,3,4
 212 401 212 401 198.5 390 c 128,-1,5
 185 379 185 379 167 376 c 1,6,7
 179 357 179 357 192 337.5 c 128,-1,8
 205 318 205 318 217 299 c 1,9,-1
 199 299 l 1,10,-1
 149 376 l 1,11,-1
 107 376 l 1,12,-1
 107 299 l 1,13,-1
 89 299 l 1,14,-1
 89 470 l 1,0,-1
149 392 m 2,15,16
 169 392 169 392 181.5 398.5 c 128,-1,17
 194 405 194 405 194 422 c 256,18,19
 194 439 194 439 182 446.5 c 128,-1,20
 170 454 170 454 153 454 c 2,21,-1
 107 454 l 1,22,-1
 107 392 l 1,23,-1
 149 392 l 2,15,16
143 258 m 256,24,25
 169 258 169 258 191.5 268 c 128,-1,26
 214 278 214 278 231 295 c 128,-1,27
 248 312 248 312 258 335 c 128,-1,28
 268 358 268 358 268 384 c 256,29,30
 268 410 268 410 258 433 c 128,-1,31
 248 456 248 456 231 473.5 c 128,-1,32
 214 491 214 491 191.5 501 c 128,-1,33
 169 511 169 511 143 511 c 256,34,35
 117 511 117 511 94.5 501 c 128,-1,36
 72 491 72 491 55 473.5 c 128,-1,37
 38 456 38 456 28 433 c 128,-1,38
 18 410 18 410 18 384 c 256,39,40
 18 358 18 358 28 335 c 128,-1,41
 38 312 38 312 55 295 c 128,-1,42
 72 278 72 278 94.5 268 c 128,-1,43
 117 258 117 258 143 258 c 256,24,25
0 384 m 256,44,45
 0 414 0 414 11 440 c 128,-1,46
 22 466 22 466 41.5 485.5 c 128,-1,47
 61 505 61 505 87 516 c 128,-1,48
 113 527 113 527 143 527 c 256,49,50
 173 527 173 527 199 516 c 128,-1,51
 225 505 225 505 244.5 485.5 c 128,-1,52
 264 466 264 466 275 440 c 128,-1,53
 286 414 286 414 286 384 c 256,54,55
 286 354 286 354 275 328 c 128,-1,56
 264 302 264 302 244.5 282.5 c 128,-1,57
 225 263 225 263 199 252 c 128,-1,58
 173 241 173 241 143 241 c 256,59,60
 113 241 113 241 87 252 c 128,-1,61
 61 263 61 263 41.5 282.5 c 128,-1,62
 22 302 22 302 11 328 c 128,-1,63
 0 354 0 354 0 384 c 256,44,45
EndSplineSet
Validated: 1
EndChar

StartChar: copyright
Encoding: 169 169 77
Width: 344
GlyphClass: 1
Flags: W
LayerCount: 2
Fore
SplineSet
210 410 m 1,0,1
 200 456 200 456 150 456 c 0,2,3
 114 456 114 456 97 431.5 c 128,-1,4
 80 407 80 407 80 380 c 0,5,6
 80 348 80 348 97.5 325 c 128,-1,7
 115 302 115 302 147 302 c 0,8,9
 175 302 175 302 190 315 c 128,-1,10
 205 328 205 328 210 351 c 1,11,-1
 228 351 l 1,12,13
 223 321 223 321 202 303 c 128,-1,14
 181 285 181 285 147 285 c 0,15,16
 110 285 110 285 85.5 308.5 c 128,-1,17
 61 332 61 332 61 380 c 0,18,19
 61 424 61 424 86.5 448.5 c 128,-1,20
 112 473 112 473 150 473 c 0,21,22
 181 473 181 473 202 457.5 c 128,-1,23
 223 442 223 442 228 410 c 1,24,-1
 210 410 l 1,0,1
276 379 m 256,25,26
 276 406 276 406 266 429.5 c 128,-1,27
 256 453 256 453 238.5 471 c 128,-1,28
 221 489 221 489 197.5 499 c 128,-1,29
 174 509 174 509 147 509 c 0,30,31
 121 509 121 509 97.5 499 c 128,-1,32
 74 489 74 489 56.5 471 c 128,-1,33
 39 453 39 453 28.5 429.5 c 128,-1,34
 18 406 18 406 18 379 c 256,35,36
 18 352 18 352 28.5 328.5 c 128,-1,37
 39 305 39 305 56.5 287 c 128,-1,38
 74 269 74 269 97.5 259 c 128,-1,39
 121 249 121 249 147 249 c 0,40,41
 174 249 174 249 197.5 259 c 128,-1,42
 221 269 221 269 238.5 287 c 128,-1,43
 256 305 256 305 266 328.5 c 128,-1,44
 276 352 276 352 276 379 c 256,25,26
0 379 m 256,45,46
 0 409 0 409 11.5 436 c 128,-1,47
 23 463 23 463 43 483 c 128,-1,48
 63 503 63 503 90 514.5 c 128,-1,49
 117 526 117 526 147 526 c 256,50,51
 177 526 177 526 204 514.5 c 128,-1,52
 231 503 231 503 251 483 c 128,-1,53
 271 463 271 463 282.5 436 c 128,-1,54
 294 409 294 409 294 379 c 256,55,56
 294 349 294 349 282.5 322 c 128,-1,57
 271 295 271 295 251 275 c 128,-1,58
 231 255 231 255 204 243.5 c 128,-1,59
 177 232 177 232 147 232 c 256,60,61
 117 232 117 232 90 243.5 c 128,-1,62
 63 255 63 255 43 275 c 128,-1,63
 23 295 23 295 11.5 322 c 128,-1,64
 0 349 0 349 0 379 c 256,45,46
EndSplineSet
Validated: 1
EndChar

StartChar: trademark
Encoding: 8482 8482 78
Width: 452
GlyphClass: 1
Flags: W
LayerCount: 2
Fore
SplineSet
79 698 m 1,0,-1
 16 698 l 1,1,-1
 16 723 l 1,2,-1
 167 723 l 1,3,-1
 167 698 l 1,4,-1
 103 698 l 1,5,-1
 103 532 l 1,6,-1
 79 532 l 1,7,-1
 79 698 l 1,0,-1
349 676 m 1,8,9
 334 640 334 640 317.5 603.5 c 128,-1,10
 301 567 301 567 286 532 c 1,11,-1
 267 532 l 1,12,-1
 204 678 l 1,13,-1
 204 532 l 1,14,-1
 179 532 l 1,15,-1
 179 723 l 1,16,-1
 212 723 l 1,17,-1
 277 577 l 1,18,19
 282 588 282 588 287.5 599.5 c 128,-1,20
 293 611 293 611 298 622 c 0,21,22
 309 646 309 646 319.5 672 c 128,-1,23
 330 698 330 698 340 723 c 1,24,-1
 375 723 l 1,25,-1
 375 532 l 1,26,-1
 349 532 l 1,27,-1
 349 676 l 1,8,9
EndSplineSet
Validated: 1
EndChar

StartChar: a
Encoding: 97 97 80
Width: 452
GlyphClass: 1
Flags: W
LayerCount: 2
Fore
SplineSet
0.08984375 721.01953125 m 1,0,-1
 62.419921875 721.01953125 l 1,1,-1
 62.419921875 707.370117188 l 1,2,-1
 18.2900390625 707.370117188 l 1,3,-1
 18.2900390625 568.139648438 l 1,4,-1
 59.6904296875 568.139648438 l 1,5,-1
 59.6904296875 554.490234375 l 1,6,-1
 18.2900390625 554.490234375 l 1,7,-1
 18.2900390625 406.16015625 l 1,8,-1
 65.6103515625 406.16015625 l 1,9,-1
 65.6103515625 392.509765625 l 1,10,-1
 0.08984375 392.509765625 l 1,11,-1
 0.08984375 721.01953125 l 1,0,-1
34.2099609375 785.1796875 m 1,12,-1
 54.23046875 785.1796875 l 1,13,-1
 27.83984375 741.5 l 1,14,-1
 16.009765625 741.5 l 1,15,-1
 34.2099609375 785.1796875 l 1,12,-1
77.8896484375 687.349609375 m 2,16,17
 77.8896484375 704.299804688 77.8896484375 704.299804688 88.123046875 713.569335938 c 128,-1,18
 98.3564453125 722.83984375 98.3564453125 722.83984375 116.5703125 722.83984375 c 0,19,20
 153.419921875 722.83984375 153.419921875 722.83984375 153.419921875 687.349609375 c 2,21,-1
 153.419921875 633.200195312 l 1,22,-1
 135.219726562 633.200195312 l 1,23,-1
 135.219726562 684.620117188 l 2,24,25
 135.219726562 709.190429688 135.219726562 709.190429688 116.5703125 709.190429688 c 0,26,27
 96.08984375 709.190429688 96.08984375 709.190429688 96.08984375 688.709960938 c 2,28,-1
 96.08984375 424.809570312 l 2,29,30
 96.08984375 404.330078125 96.08984375 404.330078125 116.5703125 404.330078125 c 0,31,32
 127.15234375 404.330078125 127.15234375 404.330078125 131.185546875 410.059570312 c 128,-1,33
 135.219726562 415.790039062 135.219726562 415.790039062 135.219726562 428.900390625 c 2,34,-1
 135.219726562 484.860351562 l 1,35,-1
 153.419921875 484.860351562 l 1,36,-1
 153.419921875 426.16015625 l 2,37,38
 153.419921875 390.669921875 153.419921875 390.669921875 116.5703125 390.669921875 c 0,39,40
 98.361328125 390.669921875 98.361328125 390.669921875 88.1259765625 399.940429688 c 128,-1,41
 77.8896484375 409.211914062 77.8896484375 409.211914062 77.8896484375 426.16015625 c 2,42,-1
 77.8896484375 687.349609375 l 2,16,17
177.080078125 721.01953125 m 1,43,-1
 218.030273438 721.01953125 l 2,44,45
 255.33984375 721.01953125 255.33984375 721.01953125 255.33984375 690.540039062 c 2,46,-1
 255.33984375 593.620117188 l 2,47,48
 255.33984375 563.522460938 255.33984375 563.522460938 227.129882812 561.309570312 c 1,49,-1
 227.129882812 560.400390625 l 1,50,51
 255.33984375 558.057617188 255.33984375 558.057617188 255.33984375 530.8203125 c 2,52,-1
 255.33984375 392.5 l 1,53,-1
 237.139648438 392.5 l 1,54,-1
 237.139648438 530.8203125 l 2,55,56
 237.139648438 554.48046875 237.139648438 554.48046875 212.120117188 554.48046875 c 2,57,-1
 195.290039062 554.48046875 l 1,58,-1
 195.290039062 392.5 l 1,59,-1
 177.08984375 392.5 l 1,60,-1
 177.080078125 721.01953125 l 1,43,-1
213.01953125 568.139648438 m 1,61,62
 237.129882812 568.139648438 237.129882812 568.139648438 237.129882812 589.98046875 c 2,63,-1
 237.129882812 686.900390625 l 2,64,65
 237.129882812 707.379882812 237.129882812 707.379882812 214.83984375 707.379882812 c 2,66,-1
 195.280273438 707.379882812 l 1,67,-1
 195.280273438 568.150390625 l 1,68,-1
 213.01953125 568.139648438 l 1,61,62
288.099609375 721.01953125 m 1,69,-1
 306.299804688 721.01953125 l 1,70,-1
 306.299804688 392.509765625 l 1,71,-1
 288.099609375 392.509765625 l 1,72,-1
 288.099609375 721.01953125 l 1,69,-1
351.799804688 707.370117188 m 1,73,-1
 319.490234375 707.370117188 l 1,74,-1
 319.490234375 721.01953125 l 1,75,-1
 402.299804688 721.01953125 l 1,76,-1
 402.299804688 707.370117188 l 1,77,-1
 369.990234375 707.370117188 l 1,78,-1
 369.990234375 392.509765625 l 1,79,-1
 351.790039062 392.509765625 l 1,80,-1
 351.799804688 707.370117188 l 1,73,-1
115.209960938 328.51953125 m 1,81,-1
 156.16015625 328.51953125 l 2,82,83
 193.469726562 328.51953125 193.469726562 328.51953125 193.469726562 297.120117188 c 2,84,-1
 193.469726562 189.740234375 l 2,85,86
 193.469726562 175.375976562 193.469726562 175.375976562 183.815429688 166.862304688 c 128,-1,87
 174.16015625 158.349609375 174.16015625 158.349609375 156.16015625 158.349609375 c 2,88,-1
 133.41015625 158.349609375 l 1,89,-1
 133.41015625 0.009765625 l 1,90,-1
 115.209960938 0.009765625 l 1,91,-1
 115.209960938 328.51953125 l 1,81,-1
152.969726562 172 m 1,92,93
 175.259765625 172 175.259765625 172 175.259765625 191.5703125 c 2,94,-1
 175.259765625 294.400390625 l 2,95,96
 175.259765625 314.879882812 175.259765625 314.879882812 152.969726562 314.879882812 c 2,97,-1
 133.41015625 314.879882812 l 1,98,-1
 133.41015625 172.009765625 l 1,99,-1
 152.969726562 172 l 1,92,93
264.440429688 96.01953125 m 1,100,-1
 219.389648438 96.01953125 l 1,101,-1
 209.379882812 0.009765625 l 1,102,-1
 193 0.009765625 l 1,103,-1
 229.860351562 328.51953125 l 1,104,-1
 255.33984375 328.51953125 l 1,105,-1
 293.110351562 0.009765625 l 1,106,-1
 274.91015625 0.009765625 l 1,107,-1
 264.440429688 96.01953125 l 1,100,-1
263.080078125 109.669921875 m 1,108,-1
 251.700195312 217.509765625 l 2,109,110
 243.228515625 293.740234375 243.228515625 293.740234375 242.599609375 316.700195312 c 1,111,-1
 241.690429688 316.700195312 l 1,112,113
 239.870117188 300.31640625 239.870117188 300.31640625 237.364257812 267.1015625 c 128,-1,114
 234.859375 233.885742188 234.859375 233.885742188 233.040039062 217.509765625 c 2,115,-1
 221.209960938 109.669921875 l 1,116,-1
 263.080078125 109.669921875 l 1,108,-1
304.48046875 328.51953125 m 1,117,-1
 345.4296875 328.51953125 l 2,118,119
 382.740234375 328.51953125 382.740234375 328.51953125 382.740234375 298.040039062 c 2,120,-1
 382.740234375 201.120117188 l 2,121,122
 382.740234375 171.03125 382.740234375 171.03125 354.530273438 168.8203125 c 1,123,-1
 354.530273438 167.91015625 l 1,124,125
 382.740234375 165.55078125 382.740234375 165.55078125 382.740234375 138.330078125 c 2,126,-1
 382.740234375 0.009765625 l 1,127,-1
 364.540039062 0.009765625 l 1,128,-1
 364.540039062 138.330078125 l 2,129,130
 364.540039062 161.990234375 364.540039062 161.990234375 339.51953125 161.990234375 c 2,131,-1
 322.690429688 161.990234375 l 1,132,-1
 322.690429688 0.009765625 l 1,133,-1
 304.490234375 0.009765625 l 1,134,-1
 304.48046875 328.51953125 l 1,117,-1
340.419921875 175.639648438 m 1,135,136
 364.530273438 175.639648438 364.530273438 175.639648438 364.530273438 197.48046875 c 2,137,-1
 364.530273438 294.400390625 l 2,138,139
 364.530273438 314.879882812 364.530273438 314.879882812 342.240234375 314.879882812 c 2,140,-1
 322.6796875 314.879882812 l 1,141,-1
 322.6796875 175.650390625 l 1,142,-1
 340.419921875 175.639648438 l 1,135,136
EndSplineSet
Validated: 1
EndChar

StartChar: b
Encoding: 98 98 81
Width: 698
GlyphClass: 1
Flags: W
LayerCount: 2
Fore
SplineSet
0 685 m 2,0,1
 0 704 0 704 10 713 c 256,2,3
 20 722 20 722 39 722 c 0,4,5
 59 722 59 722 67 713 c 0,6,7
 78 704 78 704 78 685 c 2,8,-1
 78 631 l 1,9,-1
 57 631 l 1,10,-1
 57 683 l 2,11,12
 57 691 57 691 53 699 c 0,13,14
 49 706 49 706 39 706 c 0,15,16
 35 706 35 706 31.5 705 c 128,-1,17
 28 704 28 704 26 700 c 0,18,19
 21 697 21 697 21 688 c 2,20,-1
 21 425 l 2,21,22
 21 416 21 416 26 411 c 0,23,24
 29 407 29 407 39 407 c 256,25,26
 49 407 49 407 53 411 c 0,27,28
 57 419 57 419 57 429 c 2,29,-1
 57 486 l 1,30,-1
 78 486 l 1,31,-1
 78 427 l 2,32,33
 78 411 78 411 67 400 c 0,34,35
 60 390 60 390 39 390 c 0,36,37
 20 390 20 390 10 400 c 256,38,39
 0 410 0 410 0 427 c 2,40,-1
 0 685 l 2,0,1
160 487 m 1,41,-1
 119 487 l 1,42,43
 117 476 117 476 116 464 c 128,-1,44
 115 452 115 452 114 440 c 0,45,46
 111 414 111 414 108 392 c 1,47,-1
 90 392 l 1,48,-1
 126 721 l 1,49,-1
 154 721 l 1,50,-1
 192 392 l 1,51,-1
 170 392 l 1,52,-1
 160 487 l 1,41,-1
159 504 m 1,53,54
 157 517 157 517 156 530 c 128,-1,55
 155 543 155 543 153 557 c 0,56,57
 151 569 151 569 150 582 c 128,-1,58
 149 595 149 595 148 609 c 0,59,60
 147 612 147 612 147 619 c 0,61,62
 147 622 147 622 145 628 c 0,63,64
 144 633 144 633 144 637 c 128,-1,65
 144 641 144 641 143 645 c 0,66,67
 142 650 142 650 142 660 c 0,68,69
 142 665 142 665 140 675 c 0,70,71
 140 679 140 679 139.5 683.5 c 128,-1,72
 139 688 139 688 139 693 c 1,73,74
 138 688 138 688 138 684 c 128,-1,75
 138 680 138 680 137 675 c 0,76,77
 137 671 137 671 136.5 667 c 128,-1,78
 136 663 136 663 136 658 c 0,79,80
 135 652 135 652 135 646 c 128,-1,81
 135 640 135 640 134 634 c 0,82,83
 134 628 134 628 133.5 621.5 c 128,-1,84
 133 615 133 615 132 609 c 0,85,86
 130 596 130 596 129 583 c 128,-1,87
 128 570 128 570 126 557 c 0,88,89
 124 543 124 543 123 530 c 128,-1,90
 122 517 122 517 121 504 c 1,91,-1
 159 504 l 1,53,54
222 424 m 2,92,93
 222 416 222 416 226 411 c 0,94,95
 229 407 229 407 242 407 c 0,96,97
 254 407 254 407 257 411 c 0,98,99
 263 415 263 415 263 425 c 2,100,-1
 263 481 l 2,101,102
 263 494 263 494 260 503 c 0,103,104
 259 507 259 507 257 512.5 c 128,-1,105
 255 518 255 518 253 523 c 2,106,-1
 215 595 l 2,107,108
 213 600 213 600 210.5 605.5 c 128,-1,109
 208 611 208 611 206 618 c 0,110,111
 205 625 205 625 204 630 c 128,-1,112
 203 635 203 635 203 639 c 2,113,-1
 203 687 l 2,114,115
 203 704 203 704 213 714 c 0,116,117
 224 722 224 722 242 722 c 0,118,119
 261 722 261 722 271 715 c 0,120,121
 281 707 281 707 281 691 c 2,122,-1
 281 632 l 1,123,-1
 262 632 l 1,124,-1
 262 689 l 2,125,126
 262 706 262 706 244 706 c 0,127,128
 236 706 236 706 230 700 c 0,129,130
 226 697 226 697 226 688 c 2,131,-1
 226 638 l 2,132,133
 226 621 226 621 233 607 c 2,134,-1
 251 571 l 2,135,136
 256 563 256 563 260.5 553.5 c 128,-1,137
 265 544 265 544 270 536 c 0,138,139
 276 525 276 525 279 512 c 0,140,141
 284 499 284 499 284 486 c 2,142,-1
 284 424 l 2,143,144
 284 411 284 411 275 400 c 0,145,146
 266 390 266 390 243 390 c 256,147,148
 220 390 220 390 213 400 c 0,149,150
 203 409 203 409 203 426 c 2,151,-1
 203 486 l 1,152,-1
 222 486 l 1,153,-1
 222 424 l 2,92,93
319 705 m 1,154,-1
 287 705 l 1,155,-1
 287 721 l 1,156,-1
 372 721 l 1,157,-1
 372 705 l 1,158,-1
 340 705 l 1,159,-1
 340 392 l 1,160,-1
 319 392 l 1,161,-1
 319 705 l 1,154,-1
383 721 m 1,162,-1
 404 721 l 1,163,-1
 404 392 l 1,164,-1
 383 392 l 1,165,-1
 383 721 l 1,162,-1
433 721 m 1,166,-1
 462 721 l 1,167,-1
 493 508 l 2,168,169
 497 476 497 476 505 430 c 1,170,171
 504 457 504 457 502 479 c 2,172,-1
 502 512 l 1,173,-1
 502 721 l 1,174,-1
 523 721 l 1,175,-1
 523 392 l 1,176,-1
 492 392 l 1,177,-1
 462 600 l 2,178,179
 460 606 460 606 459 615.5 c 128,-1,180
 458 625 458 625 456 636 c 0,181,182
 455 647 455 647 454 659 c 128,-1,183
 453 671 453 671 451 685 c 1,184,-1
 451 660 l 2,185,186
 452 654 452 654 452 649 c 128,-1,187
 452 644 452 644 453 639 c 0,188,189
 453 634 453 634 453.5 630 c 128,-1,190
 454 626 454 626 454 621 c 2,191,-1
 454 611 l 1,192,-1
 454 392 l 1,193,-1
 433 392 l 1,194,-1
 433 721 l 1,166,-1
593 552 m 1,195,-1
 633 552 l 1,196,-1
 633 401 l 1,197,-1
 628 398 l 2,198,199
 626 396 626 396 622.5 394.5 c 128,-1,200
 619 393 619 393 614 393 c 0,201,202
 603 390 603 390 591 390 c 0,203,204
 572 390 572 390 562 400 c 0,205,206
 551 410 551 410 551 427 c 2,207,-1
 551 685 l 2,208,209
 551 705 551 705 562 713 c 0,210,211
 572 722 572 722 591 722 c 0,212,213
 611 722 611 722 622 713 c 0,214,215
 633 702 633 702 633 685 c 2,216,-1
 633 632 l 1,217,-1
 612 632 l 1,218,-1
 612 684 l 2,219,220
 612 693 612 693 605 700 c 0,221,222
 600 706 600 706 591 706 c 0,223,224
 584 706 584 706 577 700 c 0,225,226
 575 696 575 696 573 692.5 c 128,-1,227
 571 689 571 689 571 684 c 2,228,-1
 571 425 l 2,229,230
 571 420 571 420 573 417 c 128,-1,231
 575 414 575 414 577 411 c 0,232,233
 584 407 584 407 591 407 c 2,234,-1
 603 407 l 2,235,236
 605 409 605 409 607.5 409 c 128,-1,237
 610 409 610 409 612 411 c 2,238,-1
 612 536 l 1,239,-1
 593 536 l 1,240,-1
 593 552 l 1,195,-1
457 329 m 1,241,-1
 498 329 l 2,242,243
 515 329 515 329 526 321 c 0,244,245
 537 312 537 312 537 293 c 2,246,-1
 537 198 l 2,247,248
 537 186 537 186 531 179 c 0,249,250
 525 173 525 173 516 170 c 1,251,252
 526 167 526 167 533 160 c 256,253,254
 540 153 540 153 540 139 c 2,255,-1
 540 36 l 2,256,257
 540 26 540 26 537 20 c 128,-1,258
 534 14 534 14 529 9 c 0,259,260
 520 0 520 0 502 0 c 2,261,-1
 457 0 l 1,262,-1
 457 329 l 1,241,-1
497 177 m 2,263,264
 508 177 508 177 512 184 c 0,265,266
 516 189 516 189 516 199 c 2,267,-1
 516 294 l 2,268,269
 516 305 516 305 512 308 c 0,270,271
 509 313 509 313 496 313 c 2,272,-1
 478 313 l 1,273,-1
 478 177 l 1,274,-1
 497 177 l 2,263,264
478 160 m 1,275,-1
 478 16 l 1,276,-1
 496 16 l 2,277,278
 509 16 509 16 513 21 c 0,279,280
 519 25 519 25 519 35 c 2,281,-1
 519 138 l 2,282,283
 519 160 519 160 497 160 c 2,284,-1
 478 160 l 1,275,-1
626 329 m 1,285,-1
 648 329 l 1,286,-1
 610 130 l 1,287,-1
 610 0 l 1,288,-1
 590 0 l 1,289,-1
 590 130 l 2,290,291
 588 141 588 141 585.5 152.5 c 128,-1,292
 583 164 583 164 580 178 c 0,293,294
 577 191 577 191 575 203.5 c 128,-1,295
 573 216 573 216 570 229 c 0,296,297
 568 243 568 243 565.5 255.5 c 128,-1,298
 563 268 563 268 561 281 c 0,299,300
 558 294 558 294 555.5 306 c 128,-1,301
 553 318 553 318 551 329 c 1,302,-1
 572 329 l 1,303,-1
 600 160 l 1,304,-1
 626 329 l 1,285,-1
EndSplineSet
Validated: 1
EndChar

StartChar: c
Encoding: 99 99 82
Width: 740
GlyphClass: 1
Flags: W
LayerCount: 2
Fore
SplineSet
0 721.01953125 m 1,0,-1
 30.0302734375 721.01953125 l 1,1,-1
 50.0498046875 523.08984375 l 2,2,3
 56.2763671875 463.944335938 56.2763671875 463.944335938 58.240234375 406.150390625 c 1,4,-1
 59.150390625 406.150390625 l 1,5,6
 63.669921875 484.984375 63.669921875 484.984375 67.7998046875 523.08984375 c 2,7,-1
 88.73046875 721.01953125 l 1,8,-1
 118.759765625 721.01953125 l 1,9,-1
 118.759765625 392.509765625 l 1,10,-1
 100.559570312 392.509765625 l 1,11,-1
 100.559570312 596.349609375 l 2,12,13
 100.559570312 624.569335938 100.559570312 624.569335938 102.379882812 707.370117188 c 1,14,-1
 101.469726562 707.370117188 l 1,15,16
 99.5576171875 687.205078125 99.5576171875 687.205078125 94.98046875 641.325195312 c 128,-1,17
 90.404296875 595.444335938 90.404296875 595.444335938 88.73046875 577.240234375 c 2,18,-1
 70.5302734375 392.509765625 l 1,19,-1
 47.7802734375 392.509765625 l 1,20,-1
 29.1201171875 575.419921875 l 2,21,22
 18.224609375 687.991210938 18.224609375 687.991210938 17.2900390625 707.370117188 c 1,23,-1
 16.3798828125 707.370117188 l 1,24,25
 16.111328125 682.165039062 16.111328125 682.165039062 17.15625 641.842773438 c 128,-1,26
 18.2001953125 601.51953125 18.2001953125 601.51953125 18.2001953125 596.349609375 c 2,27,-1
 18.2001953125 392.509765625 l 1,28,-1
 0 392.509765625 l 1,29,-1
 0 721.01953125 l 1,0,-1
229.76953125 721.01953125 m 1,30,-1
 229.76953125 426.1796875 l 2,31,32
 229.76953125 390.690429688 229.76953125 390.690429688 190.190429688 390.690429688 c 0,33,34
 150.150390625 390.690429688 150.150390625 390.690429688 150.150390625 426.1796875 c 2,35,-1
 150.150390625 721.01953125 l 1,36,-1
 168.349609375 721.01953125 l 1,37,-1
 168.349609375 426.629882812 l 2,38,39
 168.349609375 404.33984375 168.349609375 404.33984375 190.190429688 404.33984375 c 0,40,41
 211.5703125 404.33984375 211.5703125 404.33984375 211.5703125 426.629882812 c 2,42,-1
 211.5703125 721.01953125 l 1,43,-1
 229.76953125 721.01953125 l 1,30,-1
269.809570312 424.360351562 m 1,44,45
 269.809570312 404.33984375 269.809570312 404.33984375 290.740234375 404.33984375 c 0,46,47
 313.030273438 404.33984375 313.030273438 404.33984375 313.030273438 425.26953125 c 2,48,-1
 313.030273438 481.690429688 l 2,49,50
 313.030273438 501.489257812 313.030273438 501.489257812 303.48046875 524.009765625 c 2,51,-1
 265.259765625 596.360351562 l 2,52,53
 253.4296875 618.643554688 253.4296875 618.643554688 253.4296875 640.950195312 c 2,54,-1
 253.4296875 688.719726562 l 2,55,56
 253.4296875 704.686523438 253.4296875 704.686523438 263.567382812 713.768554688 c 128,-1,57
 273.705078125 722.849609375 273.705078125 722.849609375 291.190429688 722.849609375 c 0,58,59
 328.5 722.849609375 328.5 722.849609375 328.5 692.360351562 c 2,60,-1
 328.5 633.66015625 l 1,61,-1
 312.120117188 633.66015625 l 1,62,-1
 312.120117188 690.540039062 l 2,63,64
 312.120117188 709.190429688 312.120117188 709.190429688 292.559570312 709.190429688 c 0,65,66
 283.321289062 709.190429688 283.321289062 709.190429688 278.15625 703.670898438 c 128,-1,67
 272.990234375 698.150390625 272.990234375 698.150390625 272.990234375 689.629882812 c 2,68,-1
 272.990234375 638.669921875 l 2,69,70
 272.990234375 623.168945312 272.990234375 623.168945312 280.26953125 607.26953125 c 2,71,-1
 317.580078125 535.830078125 l 2,72,73
 331.23046875 508.510742188 331.23046875 508.510742188 331.23046875 486.23046875 c 2,74,-1
 331.23046875 424.349609375 l 2,75,76
 331.23046875 390.6796875 331.23046875 390.6796875 292.099609375 390.6796875 c 0,77,78
 253.4296875 390.6796875 253.4296875 390.6796875 253.4296875 425.719726562 c 2,79,-1
 253.4296875 483.959960938 l 1,80,-1
 269.809570312 483.959960938 l 1,81,-1
 269.809570312 424.360351562 l 1,44,45
356.259765625 721.01953125 m 1,82,-1
 374.459960938 721.01953125 l 1,83,-1
 374.459960938 392.509765625 l 1,84,-1
 356.259765625 392.509765625 l 1,85,-1
 356.259765625 721.01953125 l 1,82,-1
405.860351562 687.349609375 m 2,86,87
 405.860351562 722.83984375 405.860351562 722.83984375 445.900390625 722.83984375 c 0,88,89
 485.48046875 722.83984375 485.48046875 722.83984375 485.48046875 687.349609375 c 2,90,-1
 485.48046875 433.459960938 l 2,91,92
 485.48046875 413.53125 485.48046875 413.53125 473.650390625 405.25 c 1,93,-1
 473.650390625 404.33984375 l 1,94,95
 476.765625 404.537109375 476.765625 404.537109375 483.498046875 405.348632812 c 128,-1,96
 490.23046875 406.16015625 490.23046875 406.16015625 493.209960938 406.16015625 c 2,97,-1
 498.219726562 406.16015625 l 1,98,-1
 498.219726562 392.509765625 l 1,99,-1
 467.280273438 392.509765625 l 1,100,-1
 445.900390625 390.690429688 l 2,101,102
 405.860351562 390.690429688 405.860351562 390.690429688 405.860351562 426.1796875 c 2,103,-1
 405.860351562 687.349609375 l 2,86,87
467.280273438 687.349609375 m 2,104,105
 467.280273438 709.190429688 467.280273438 709.190429688 445.900390625 709.190429688 c 0,106,107
 424.059570312 709.190429688 424.059570312 709.190429688 424.059570312 687.349609375 c 2,108,-1
 424.059570312 426.629882812 l 2,109,110
 424.059570312 404.33984375 424.059570312 404.33984375 445.900390625 404.33984375 c 0,111,112
 467.280273438 404.33984375 467.280273438 404.33984375 467.280273438 426.629882812 c 2,113,-1
 467.280273438 687.349609375 l 2,104,105
595.139648438 721.01953125 m 1,114,-1
 595.139648438 426.1796875 l 2,115,116
 595.139648438 390.690429688 595.139648438 390.690429688 555.559570312 390.690429688 c 0,117,118
 515.51953125 390.690429688 515.51953125 390.690429688 515.51953125 426.1796875 c 2,119,-1
 515.51953125 721.01953125 l 1,120,-1
 533.719726562 721.01953125 l 1,121,-1
 533.719726562 426.629882812 l 2,122,123
 533.719726562 404.33984375 533.719726562 404.33984375 555.559570312 404.33984375 c 0,124,125
 576.940429688 404.33984375 576.940429688 404.33984375 576.940429688 426.629882812 c 2,126,-1
 576.940429688 721.01953125 l 1,127,-1
 595.139648438 721.01953125 l 1,114,-1
625.16015625 721.01953125 m 1,128,-1
 687.5 721.01953125 l 1,129,-1
 687.5 707.370117188 l 1,130,-1
 643.360351562 707.370117188 l 1,131,-1
 643.360351562 568.139648438 l 1,132,-1
 684.76953125 568.139648438 l 1,133,-1
 684.76953125 554.490234375 l 1,134,-1
 643.360351562 554.490234375 l 1,135,-1
 643.360351562 406.16015625 l 1,136,-1
 690.6796875 406.16015625 l 1,137,-1
 690.6796875 392.509765625 l 1,138,-1
 625.16015625 392.509765625 l 1,139,-1
 625.16015625 721.01953125 l 1,128,-1
515.509765625 328.51953125 m 1,140,-1
 554.190429688 328.51953125 l 2,141,142
 595.139648438 328.51953125 595.139648438 328.51953125 595.139648438 293.490234375 c 2,143,-1
 595.139648438 35.0498046875 l 2,144,145
 595.139648438 0.009765625 595.139648438 0.009765625 554.190429688 0.009765625 c 2,146,-1
 515.509765625 0.009765625 l 1,147,-1
 515.509765625 328.51953125 l 1,140,-1
552.370117188 13.66015625 m 2,148,149
 576.940429688 13.66015625 576.940429688 13.66015625 576.940429688 33.6796875 c 2,150,-1
 576.940429688 294.849609375 l 2,151,152
 576.940429688 314.870117188 576.940429688 314.870117188 552.370117188 314.870117188 c 2,153,-1
 533.709960938 314.870117188 l 1,154,-1
 533.709960938 13.66015625 l 1,155,-1
 552.370117188 13.66015625 l 2,148,149
625.16015625 328.51953125 m 1,156,-1
 687.5 328.51953125 l 1,157,-1
 687.5 314.870117188 l 1,158,-1
 643.360351562 314.870117188 l 1,159,-1
 643.360351562 175.639648438 l 1,160,-1
 684.76953125 175.639648438 l 1,161,-1
 684.76953125 161.990234375 l 1,162,-1
 643.360351562 161.990234375 l 1,163,-1
 643.360351562 13.66015625 l 1,164,-1
 690.6796875 13.66015625 l 1,165,-1
 690.6796875 0.009765625 l 1,166,-1
 625.16015625 0.009765625 l 1,167,-1
 625.16015625 328.51953125 l 1,156,-1
EndSplineSet
Validated: 33
EndChar

StartChar: d
Encoding: 100 100 83
Width: 852
GlyphClass: 1
Flags: W
LayerCount: 2
Fore
SplineSet
0 687.349609375 m 2,0,1
 0 704.299804688 0 704.299804688 10.232421875 713.569335938 c 128,-1,2
 20.4658203125 722.83984375 20.4658203125 722.83984375 38.6796875 722.83984375 c 0,3,4
 75.529296875 722.83984375 75.529296875 722.83984375 75.529296875 687.349609375 c 2,5,-1
 75.529296875 633.200195312 l 1,6,-1
 57.330078125 633.200195312 l 1,7,-1
 57.330078125 684.620117188 l 2,8,9
 57.330078125 709.190429688 57.330078125 709.190429688 38.6796875 709.190429688 c 0,10,11
 18.2001953125 709.190429688 18.2001953125 709.190429688 18.2001953125 688.709960938 c 2,12,-1
 18.2001953125 424.809570312 l 2,13,14
 18.2001953125 404.330078125 18.2001953125 404.330078125 38.6796875 404.330078125 c 0,15,16
 49.26171875 404.330078125 49.26171875 404.330078125 53.2958984375 410.059570312 c 128,-1,17
 57.330078125 415.790039062 57.330078125 415.790039062 57.330078125 428.900390625 c 2,18,-1
 57.330078125 484.860351562 l 1,19,-1
 75.529296875 484.860351562 l 1,20,-1
 75.529296875 426.16015625 l 2,21,22
 75.529296875 390.669921875 75.529296875 390.669921875 38.6796875 390.669921875 c 0,23,24
 20.470703125 390.669921875 20.470703125 390.669921875 10.2353515625 399.940429688 c 128,-1,25
 0 409.211914062 0 409.211914062 0 426.16015625 c 2,26,-1
 0 687.349609375 l 2,0,1
178.809570312 426.1796875 m 2,27,28
 178.809570312 390.690429688 178.809570312 390.690429688 139.229492188 390.690429688 c 0,29,30
 99.189453125 390.690429688 99.189453125 390.690429688 99.189453125 426.1796875 c 2,31,-1
 99.189453125 687.349609375 l 2,32,33
 99.189453125 722.83984375 99.189453125 722.83984375 139.229492188 722.83984375 c 0,34,35
 178.809570312 722.83984375 178.809570312 722.83984375 178.809570312 687.349609375 c 2,36,-1
 178.809570312 426.1796875 l 2,27,28
160.609375 686.900390625 m 2,37,38
 160.609375 709.190429688 160.609375 709.190429688 139.219726562 709.190429688 c 0,39,40
 117.379882812 709.190429688 117.379882812 709.190429688 117.379882812 686.900390625 c 2,41,-1
 117.379882812 426.639648438 l 2,42,43
 117.379882812 404.349609375 117.379882812 404.349609375 139.219726562 404.349609375 c 0,44,45
 160.609375 404.349609375 160.609375 404.349609375 160.609375 426.639648438 c 2,46,-1
 160.609375 686.900390625 l 2,37,38
218.849609375 424.360351562 m 1,47,48
 218.849609375 404.33984375 218.849609375 404.33984375 239.779296875 404.33984375 c 0,49,50
 262.069335938 404.33984375 262.069335938 404.33984375 262.069335938 425.26953125 c 2,51,-1
 262.069335938 481.690429688 l 2,52,53
 262.069335938 501.493164062 262.069335938 501.493164062 252.51953125 524.009765625 c 2,54,-1
 214.299804688 596.360351562 l 2,55,56
 202.469726562 618.641601562 202.469726562 618.641601562 202.469726562 640.950195312 c 2,57,-1
 202.469726562 688.719726562 l 2,58,59
 202.469726562 704.6875 202.469726562 704.6875 212.608398438 713.768554688 c 128,-1,60
 222.748046875 722.849609375 222.748046875 722.849609375 240.239257812 722.849609375 c 0,61,62
 277.549804688 722.849609375 277.549804688 722.849609375 277.549804688 692.360351562 c 2,63,-1
 277.549804688 633.66015625 l 1,64,-1
 261.169921875 633.66015625 l 1,65,-1
 261.169921875 690.540039062 l 2,66,67
 261.169921875 709.190429688 261.169921875 709.190429688 241.609375 709.190429688 c 0,68,69
 232.37109375 709.190429688 232.37109375 709.190429688 227.206054688 703.670898438 c 128,-1,70
 222.040039062 698.150390625 222.040039062 698.150390625 222.040039062 689.629882812 c 2,71,-1
 222.040039062 638.669921875 l 2,72,73
 222.040039062 623.168945312 222.040039062 623.168945312 229.319335938 607.26953125 c 2,74,-1
 266.629882812 535.830078125 l 2,75,76
 280.279296875 508.549804688 280.279296875 508.549804688 280.279296875 486.23046875 c 2,77,-1
 280.279296875 424.349609375 l 2,78,79
 280.279296875 390.6796875 280.279296875 390.6796875 241.149414062 390.6796875 c 0,80,81
 202.469726562 390.6796875 202.469726562 390.6796875 202.469726562 425.719726562 c 2,82,-1
 202.469726562 483.959960938 l 1,83,-1
 218.849609375 483.959960938 l 1,84,-1
 218.849609375 424.360351562 l 1,47,48
318.040039062 707.370117188 m 1,85,-1
 285.739257812 707.370117188 l 1,86,-1
 285.739257812 721.01953125 l 1,87,-1
 368.549804688 721.01953125 l 1,88,-1
 368.549804688 707.370117188 l 1,89,-1
 336.25 707.370117188 l 1,90,-1
 336.25 392.509765625 l 1,91,-1
 318.049804688 392.509765625 l 1,92,-1
 318.040039062 707.370117188 l 1,85,-1
460 721.01953125 m 1,93,-1
 460 426.1796875 l 2,94,95
 460 390.690429688 460 390.690429688 420.419921875 390.690429688 c 0,96,97
 380.379882812 390.690429688 380.379882812 390.690429688 380.379882812 426.1796875 c 2,98,-1
 380.379882812 721.01953125 l 1,99,-1
 398.580078125 721.01953125 l 1,100,-1
 398.580078125 426.629882812 l 2,101,102
 398.580078125 404.33984375 398.580078125 404.33984375 420.419921875 404.33984375 c 0,103,104
 441.799804688 404.33984375 441.799804688 404.33984375 441.799804688 426.629882812 c 2,105,-1
 441.799804688 721.01953125 l 1,106,-1
 460 721.01953125 l 1,93,-1
491.389648438 721.01953125 m 1,107,-1
 521.419921875 721.01953125 l 1,108,-1
 541.439453125 523.08984375 l 2,109,110
 547.645507812 464.142578125 547.645507812 464.142578125 549.629882812 406.150390625 c 1,111,-1
 550.540039062 406.150390625 l 1,112,113
 555.100585938 485.3671875 555.100585938 485.3671875 559.189453125 523.08984375 c 2,114,-1
 580.120117188 721.01953125 l 1,115,-1
 610.149414062 721.01953125 l 1,116,-1
 610.149414062 392.509765625 l 1,117,-1
 591.950195312 392.509765625 l 1,118,-1
 591.950195312 596.349609375 l 2,119,120
 591.950195312 624.61328125 591.950195312 624.61328125 593.76953125 707.370117188 c 1,121,-1
 592.859375 707.370117188 l 1,122,123
 590.947265625 687.205078125 590.947265625 687.205078125 586.370117188 641.325195312 c 128,-1,124
 581.793945312 595.444335938 581.793945312 595.444335938 580.120117188 577.240234375 c 2,125,-1
 561.919921875 392.509765625 l 1,126,-1
 539.169921875 392.509765625 l 1,127,-1
 520.509765625 575.419921875 l 2,128,129
 509.614257812 687.991210938 509.614257812 687.991210938 508.6796875 707.370117188 c 1,130,-1
 507.76953125 707.370117188 l 1,131,132
 507.500976562 682.165039062 507.500976562 682.165039062 508.545898438 641.842773438 c 128,-1,133
 509.58984375 601.51953125 509.58984375 601.51953125 509.58984375 596.349609375 c 2,134,-1
 509.58984375 392.509765625 l 1,135,-1
 491.389648438 392.509765625 l 1,136,-1
 491.389648438 721.01953125 l 1,107,-1
641.540039062 721.01953125 m 1,137,-1
 703.879882812 721.01953125 l 1,138,-1
 703.879882812 707.370117188 l 1,139,-1
 659.739257812 707.370117188 l 1,140,-1
 659.739257812 568.139648438 l 1,141,-1
 701.149414062 568.139648438 l 1,142,-1
 701.149414062 554.490234375 l 1,143,-1
 659.739257812 554.490234375 l 1,144,-1
 659.739257812 406.16015625 l 1,145,-1
 707.059570312 406.16015625 l 1,146,-1
 707.059570312 392.509765625 l 1,147,-1
 641.540039062 392.509765625 l 1,148,-1
 641.540039062 721.01953125 l 1,137,-1
735.719726562 424.360351562 m 1,149,150
 735.719726562 404.33984375 735.719726562 404.33984375 756.649414062 404.33984375 c 0,151,152
 778.939453125 404.33984375 778.939453125 404.33984375 778.939453125 425.26953125 c 2,153,-1
 778.939453125 481.690429688 l 2,154,155
 778.939453125 501.493164062 778.939453125 501.493164062 769.389648438 524.009765625 c 2,156,-1
 731.169921875 596.360351562 l 2,157,158
 719.33984375 618.641601562 719.33984375 618.641601562 719.33984375 640.950195312 c 2,159,-1
 719.33984375 688.719726562 l 2,160,161
 719.33984375 704.686523438 719.33984375 704.686523438 729.477539062 713.768554688 c 128,-1,162
 739.614257812 722.849609375 739.614257812 722.849609375 757.099609375 722.849609375 c 0,163,164
 794.41015625 722.849609375 794.41015625 722.849609375 794.41015625 692.360351562 c 2,165,-1
 794.41015625 633.66015625 l 1,166,-1
 778.029296875 633.66015625 l 1,167,-1
 778.029296875 690.540039062 l 2,168,169
 778.029296875 709.190429688 778.029296875 709.190429688 758.469726562 709.190429688 c 0,170,171
 749.23046875 709.190429688 749.23046875 709.190429688 744.065429688 703.670898438 c 128,-1,172
 738.899414062 698.150390625 738.899414062 698.150390625 738.899414062 689.629882812 c 2,173,-1
 738.899414062 638.669921875 l 2,174,175
 738.899414062 623.170898438 738.899414062 623.170898438 746.1796875 607.26953125 c 2,176,-1
 783.489257812 535.830078125 l 2,177,178
 797.139648438 508.547851562 797.139648438 508.547851562 797.139648438 486.23046875 c 2,179,-1
 797.139648438 424.349609375 l 2,180,181
 797.139648438 390.6796875 797.139648438 390.6796875 758.009765625 390.6796875 c 0,182,183
 719.33984375 390.6796875 719.33984375 390.6796875 719.33984375 425.719726562 c 2,184,-1
 719.33984375 483.959960938 l 1,185,-1
 735.719726562 483.959960938 l 1,186,-1
 735.719726562 424.360351562 l 1,149,150
626.979492188 328.51953125 m 1,187,-1
 665.66015625 328.51953125 l 2,188,189
 706.609375 328.51953125 706.609375 328.51953125 706.609375 293.490234375 c 2,190,-1
 706.609375 35.0498046875 l 2,191,192
 706.609375 0.009765625 706.609375 0.009765625 665.66015625 0.009765625 c 2,193,-1
 626.979492188 0.009765625 l 1,194,-1
 626.979492188 328.51953125 l 1,187,-1
663.83984375 13.66015625 m 2,195,196
 688.41015625 13.66015625 688.41015625 13.66015625 688.41015625 33.6796875 c 2,197,-1
 688.41015625 294.849609375 l 2,198,199
 688.41015625 314.870117188 688.41015625 314.870117188 663.83984375 314.870117188 c 2,200,-1
 645.1796875 314.870117188 l 1,201,-1
 645.1796875 13.66015625 l 1,202,-1
 663.83984375 13.66015625 l 2,195,196
736.629882812 328.51953125 m 1,203,-1
 798.969726562 328.51953125 l 1,204,-1
 798.969726562 314.870117188 l 1,205,-1
 754.830078125 314.870117188 l 1,206,-1
 754.830078125 175.639648438 l 1,207,-1
 796.239257812 175.639648438 l 1,208,-1
 796.239257812 161.990234375 l 1,209,-1
 754.830078125 161.990234375 l 1,210,-1
 754.830078125 13.66015625 l 1,211,-1
 802.149414062 13.66015625 l 1,212,-1
 802.149414062 0.009765625 l 1,213,-1
 736.629882812 0.009765625 l 1,214,-1
 736.629882812 328.51953125 l 1,203,-1
EndSplineSet
Validated: 33
EndChar

StartChar: e
Encoding: 101 101 84
Width: 767
GlyphClass: 1
Flags: W
LayerCount: 2
Fore
SplineSet
0 721.01953125 m 1,0,-1
 30.0302734375 721.01953125 l 1,1,-1
 50.0498046875 523.08984375 l 2,2,3
 56.27734375 463.920898438 56.27734375 463.920898438 58.240234375 406.150390625 c 1,4,-1
 59.1494140625 406.150390625 l 1,5,6
 63.6728515625 485.025390625 63.6728515625 485.025390625 67.7998046875 523.08984375 c 2,7,-1
 88.7294921875 721.01953125 l 1,8,-1
 118.759765625 721.01953125 l 1,9,-1
 118.759765625 392.509765625 l 1,10,-1
 100.559570312 392.509765625 l 1,11,-1
 100.559570312 596.349609375 l 2,12,13
 100.559570312 624.569335938 100.559570312 624.569335938 102.379882812 707.370117188 c 1,14,-1
 101.469726562 707.370117188 l 1,15,16
 99.5546875 687.177734375 99.5546875 687.177734375 94.978515625 641.303710938 c 128,-1,17
 90.40234375 595.430664062 90.40234375 595.430664062 88.7294921875 577.240234375 c 2,18,-1
 70.5302734375 392.509765625 l 1,19,-1
 47.7802734375 392.509765625 l 1,20,-1
 29.1201171875 575.419921875 l 2,21,22
 18.2236328125 688.000976562 18.2236328125 688.000976562 17.2900390625 707.370117188 c 1,23,-1
 16.3798828125 707.370117188 l 1,24,25
 16.111328125 682.165039062 16.111328125 682.165039062 17.15625 641.842773438 c 128,-1,26
 18.2001953125 601.51953125 18.2001953125 601.51953125 18.2001953125 596.349609375 c 2,27,-1
 18.2001953125 392.509765625 l 1,28,-1
 0 392.509765625 l 1,29,-1
 0 721.01953125 l 1,0,-1
229.76953125 426.1796875 m 2,30,31
 229.76953125 390.690429688 229.76953125 390.690429688 190.189453125 390.690429688 c 0,32,33
 150.149414062 390.690429688 150.149414062 390.690429688 150.149414062 426.1796875 c 2,34,-1
 150.149414062 687.349609375 l 2,35,36
 150.149414062 722.83984375 150.149414062 722.83984375 190.189453125 722.83984375 c 0,37,38
 229.76953125 722.83984375 229.76953125 722.83984375 229.76953125 687.349609375 c 2,39,-1
 229.76953125 426.1796875 l 2,30,31
211.5703125 686.900390625 m 2,40,41
 211.5703125 709.190429688 211.5703125 709.190429688 190.189453125 709.190429688 c 0,42,43
 168.349609375 709.190429688 168.349609375 709.190429688 168.349609375 686.900390625 c 2,44,-1
 168.349609375 426.639648438 l 2,45,46
 168.349609375 404.349609375 168.349609375 404.349609375 190.189453125 404.349609375 c 0,47,48
 211.5703125 404.349609375 211.5703125 404.349609375 211.5703125 426.639648438 c 2,49,-1
 211.5703125 686.900390625 l 2,40,41
259.799804688 721.01953125 m 1,50,-1
 287.099609375 721.01953125 l 1,51,-1
 318.040039062 508.990234375 l 2,52,53
 323.502929688 470.051757812 323.502929688 470.051757812 333.059570312 406.16015625 c 1,54,-1
 333.969726562 406.16015625 l 1,55,56
 329.419921875 496.946289062 329.419921875 496.946289062 329.419921875 511.719726562 c 2,57,-1
 329.419921875 721.01953125 l 1,58,-1
 347.620117188 721.01953125 l 1,59,-1
 347.620117188 392.509765625 l 1,60,-1
 320.3203125 392.509765625 l 1,61,-1
 288.469726562 601.809570312 l 2,62,63
 286.336914062 615.676757812 286.336914062 615.676757812 275.729492188 707.370117188 c 1,64,-1
 274.8203125 707.370117188 l 1,65,66
 275.208984375 689.08984375 275.208984375 689.08984375 276.015625 667.21875 c 128,-1,67
 276.822265625 645.34765625 276.822265625 645.34765625 277.411132812 630.737304688 c 128,-1,68
 278 616.126953125 278 616.126953125 278 611.8203125 c 2,69,-1
 278 392.509765625 l 1,70,-1
 259.799804688 392.509765625 l 1,71,-1
 259.799804688 721.01953125 l 1,50,-1
391.75 707.370117188 m 1,72,-1
 359.450195312 707.370117188 l 1,73,-1
 359.450195312 721.01953125 l 1,74,-1
 442.259765625 721.01953125 l 1,75,-1
 442.259765625 707.370117188 l 1,76,-1
 409.959960938 707.370117188 l 1,77,-1
 409.959960938 392.509765625 l 1,78,-1
 391.759765625 392.509765625 l 1,79,-1
 391.75 707.370117188 l 1,72,-1
502.309570312 488.51953125 m 1,80,-1
 457.26953125 488.51953125 l 1,81,-1
 447.259765625 392.509765625 l 1,82,-1
 430.879882812 392.509765625 l 1,83,-1
 467.729492188 721.01953125 l 1,84,-1
 493.209960938 721.01953125 l 1,85,-1
 530.969726562 392.509765625 l 1,86,-1
 512.76953125 392.509765625 l 1,87,-1
 502.309570312 488.51953125 l 1,80,-1
500.950195312 502.169921875 m 1,88,-1
 489.5703125 610.009765625 l 2,89,90
 481.098632812 686.237304688 481.098632812 686.237304688 480.469726562 709.200195312 c 1,91,-1
 479.559570312 709.200195312 l 1,92,93
 477.740234375 692.8203125 477.740234375 692.8203125 475.240234375 659.60546875 c 128,-1,94
 472.740234375 626.389648438 472.740234375 626.389648438 470.919921875 610.009765625 c 2,95,-1
 459.08984375 502.169921875 l 1,96,-1
 500.950195312 502.169921875 l 1,88,-1
585.5703125 550.849609375 m 1,97,-1
 621.969726562 550.849609375 l 1,98,-1
 621.969726562 400.700195312 l 1,99,-1
 619.689453125 399.33984375 l 2,100,101
 605.8515625 390.690429688 605.8515625 390.690429688 582.379882812 390.690429688 c 0,102,103
 542.33984375 390.690429688 542.33984375 390.690429688 542.33984375 426.1796875 c 2,104,-1
 542.33984375 687.349609375 l 2,105,106
 542.33984375 722.83984375 542.33984375 722.83984375 582.379882812 722.83984375 c 0,107,108
 621.959960938 722.83984375 621.959960938 722.83984375 621.959960938 687.349609375 c 2,109,-1
 621.959960938 634.110351562 l 1,110,-1
 603.759765625 634.110351562 l 1,111,-1
 603.759765625 685.0703125 l 2,112,113
 603.759765625 695.865234375 603.759765625 695.865234375 597.731445312 702.522460938 c 128,-1,114
 591.703125 709.1796875 591.703125 709.1796875 582.379882812 709.1796875 c 128,-1,115
 573.008789062 709.1796875 573.008789062 709.1796875 566.774414062 702.495117188 c 128,-1,116
 560.540039062 695.809570312 560.540039062 695.809570312 560.540039062 685.0703125 c 2,117,-1
 560.540039062 424.809570312 l 2,118,119
 560.540039062 415.467773438 560.540039062 415.467773438 566.736328125 409.899414062 c 128,-1,120
 572.932617188 404.330078125 572.932617188 404.330078125 582.379882812 404.330078125 c 0,121,122
 594.662109375 404.330078125 594.662109375 404.330078125 603.759765625 409.790039062 c 1,123,-1
 603.759765625 537.190429688 l 1,124,-1
 585.559570312 537.190429688 l 1,125,-1
 585.5703125 550.849609375 l 1,97,-1
652 721.01953125 m 1,126,-1
 714.33984375 721.01953125 l 1,127,-1
 714.33984375 707.370117188 l 1,128,-1
 670.200195312 707.370117188 l 1,129,-1
 670.200195312 568.139648438 l 1,130,-1
 711.609375 568.139648438 l 1,131,-1
 711.609375 554.490234375 l 1,132,-1
 670.200195312 554.490234375 l 1,133,-1
 670.200195312 406.16015625 l 1,134,-1
 717.51953125 406.16015625 l 1,135,-1
 717.51953125 392.509765625 l 1,136,-1
 652 392.509765625 l 1,137,-1
 652 721.01953125 l 1,126,-1
542.349609375 328.51953125 m 1,138,-1
 581.030273438 328.51953125 l 2,139,140
 621.979492188 328.51953125 621.979492188 328.51953125 621.979492188 293.490234375 c 2,141,-1
 621.979492188 35.0498046875 l 2,142,143
 621.979492188 0.009765625 621.979492188 0.009765625 581.030273438 0.009765625 c 2,144,-1
 542.349609375 0.009765625 l 1,145,-1
 542.349609375 328.51953125 l 1,138,-1
579.209960938 13.66015625 m 2,146,147
 603.780273438 13.66015625 603.780273438 13.66015625 603.780273438 33.6796875 c 2,148,-1
 603.780273438 294.849609375 l 2,149,150
 603.780273438 314.870117188 603.780273438 314.870117188 579.209960938 314.870117188 c 2,151,-1
 560.549804688 314.870117188 l 1,152,-1
 560.549804688 13.66015625 l 1,153,-1
 579.209960938 13.66015625 l 2,146,147
652 328.51953125 m 1,154,-1
 714.33984375 328.51953125 l 1,155,-1
 714.33984375 314.870117188 l 1,156,-1
 670.200195312 314.870117188 l 1,157,-1
 670.200195312 175.639648438 l 1,158,-1
 711.609375 175.639648438 l 1,159,-1
 711.609375 161.990234375 l 1,160,-1
 670.200195312 161.990234375 l 1,161,-1
 670.200195312 13.66015625 l 1,162,-1
 717.51953125 13.66015625 l 1,163,-1
 717.51953125 0.009765625 l 1,164,-1
 652 0.009765625 l 1,165,-1
 652 328.51953125 l 1,154,-1
EndSplineSet
Validated: 33
EndChar

StartChar: f
Encoding: 102 102 85
Width: 1010
GlyphClass: 1
Flags: W
LayerCount: 2
Fore
SplineSet
605.149414062 687.349609375 m 2,0,1
 605.149414062 704.298828125 605.149414062 704.298828125 615.380859375 713.569335938 c 128,-1,2
 625.612304688 722.83984375 625.612304688 722.83984375 643.819335938 722.83984375 c 0,3,4
 680.6796875 722.83984375 680.6796875 722.83984375 680.6796875 687.349609375 c 2,5,-1
 680.6796875 633.200195312 l 1,6,-1
 662.479492188 633.200195312 l 1,7,-1
 662.479492188 684.620117188 l 2,8,9
 662.479492188 709.190429688 662.479492188 709.190429688 643.819335938 709.190429688 c 0,10,11
 623.33984375 709.190429688 623.33984375 709.190429688 623.33984375 688.709960938 c 2,12,-1
 623.33984375 424.809570312 l 2,13,14
 623.33984375 404.330078125 623.33984375 404.330078125 643.819335938 404.330078125 c 0,15,16
 654.403320312 404.330078125 654.403320312 404.330078125 658.44140625 410.060546875 c 128,-1,17
 662.479492188 415.791992188 662.479492188 415.791992188 662.479492188 428.900390625 c 2,18,-1
 662.479492188 484.860351562 l 1,19,-1
 680.6796875 484.860351562 l 1,20,-1
 680.6796875 426.16015625 l 2,21,22
 680.6796875 390.669921875 680.6796875 390.669921875 643.819335938 390.669921875 c 0,23,24
 625.606445312 390.669921875 625.606445312 390.669921875 615.377929688 399.939453125 c 128,-1,25
 605.149414062 409.208984375 605.149414062 409.208984375 605.149414062 426.16015625 c 2,26,-1
 605.149414062 687.349609375 l 2,0,1
704.33984375 721.01953125 m 1,27,-1
 722.540039062 721.01953125 l 1,28,-1
 722.540039062 568.139648438 l 1,29,-1
 765.76953125 568.139648438 l 1,30,-1
 765.76953125 721.01953125 l 1,31,-1
 783.969726562 721.01953125 l 1,32,-1
 783.969726562 392.509765625 l 1,33,-1
 765.76953125 392.509765625 l 1,34,-1
 765.76953125 554.490234375 l 1,35,-1
 722.540039062 554.490234375 l 1,36,-1
 722.540039062 392.509765625 l 1,37,-1
 704.33984375 392.509765625 l 1,38,-1
 704.33984375 721.01953125 l 1,27,-1
813.989257812 721.01953125 m 1,39,-1
 876.329101562 721.01953125 l 1,40,-1
 876.329101562 707.370117188 l 1,41,-1
 832.189453125 707.370117188 l 1,42,-1
 832.189453125 568.139648438 l 1,43,-1
 873.599609375 568.139648438 l 1,44,-1
 873.599609375 554.490234375 l 1,45,-1
 832.189453125 554.490234375 l 1,46,-1
 832.189453125 406.16015625 l 1,47,-1
 879.509765625 406.16015625 l 1,48,-1
 879.509765625 392.509765625 l 1,49,-1
 813.989257812 392.509765625 l 1,50,-1
 813.989257812 721.01953125 l 1,39,-1
898.169921875 721.01953125 m 1,51,-1
 960.509765625 721.01953125 l 1,52,-1
 960.509765625 707.370117188 l 1,53,-1
 916.369140625 707.370117188 l 1,54,-1
 916.369140625 568.139648438 l 1,55,-1
 958.689453125 568.139648438 l 1,56,-1
 958.689453125 554.490234375 l 1,57,-1
 916.369140625 554.490234375 l 1,58,-1
 916.369140625 392.509765625 l 1,59,-1
 898.169921875 392.509765625 l 1,60,-1
 898.169921875 721.01953125 l 1,51,-1
0 328.51953125 m 1,61,-1
 38.6796875 328.51953125 l 2,62,63
 79.6298828125 328.51953125 79.6298828125 328.51953125 79.6298828125 293.490234375 c 2,64,-1
 79.6298828125 35.0498046875 l 2,65,66
 79.6298828125 0.009765625 79.6298828125 0.009765625 38.6796875 0.009765625 c 2,67,-1
 0 0.009765625 l 1,68,-1
 0 328.51953125 l 1,61,-1
36.859375 13.66015625 m 2,69,70
 61.4296875 13.66015625 61.4296875 13.66015625 61.4296875 33.6796875 c 2,71,-1
 61.4296875 294.849609375 l 2,72,73
 61.4296875 314.870117188 61.4296875 314.870117188 36.859375 314.870117188 c 2,74,-1
 18.2099609375 314.870117188 l 1,75,-1
 18.2099609375 13.66015625 l 1,76,-1
 36.859375 13.66015625 l 2,69,70
109.659179688 328.51953125 m 1,77,-1
 171.989257812 328.51953125 l 1,78,-1
 171.989257812 314.870117188 l 1,79,-1
 127.859375 314.870117188 l 1,80,-1
 127.859375 175.639648438 l 1,81,-1
 169.259765625 175.639648438 l 1,82,-1
 169.259765625 161.990234375 l 1,83,-1
 127.859375 161.990234375 l 1,84,-1
 127.859375 13.66015625 l 1,85,-1
 175.1796875 13.66015625 l 1,86,-1
 175.1796875 0.009765625 l 1,87,-1
 109.659179688 0.009765625 l 1,88,-1
 109.659179688 328.51953125 l 1,77,-1
143.779296875 392.6796875 m 1,89,-1
 163.799804688 392.6796875 l 1,90,-1
 137.409179688 349 l 1,91,-1
 125.579101562 349 l 1,92,-1
 143.779296875 392.6796875 l 1,89,-1
187.459960938 294.849609375 m 2,93,94
 187.459960938 311.799804688 187.459960938 311.799804688 197.692382812 321.069335938 c 128,-1,95
 207.92578125 330.33984375 207.92578125 330.33984375 226.139648438 330.33984375 c 0,96,97
 262.989257812 330.33984375 262.989257812 330.33984375 262.989257812 294.849609375 c 2,98,-1
 262.989257812 240.709960938 l 1,99,-1
 244.790039062 240.709960938 l 1,100,-1
 244.790039062 292.129882812 l 2,101,102
 244.790039062 316.700195312 244.790039062 316.700195312 226.139648438 316.700195312 c 0,103,104
 205.659179688 316.700195312 205.659179688 316.700195312 205.659179688 296.219726562 c 2,105,-1
 205.659179688 32.3203125 l 2,106,107
 205.659179688 11.849609375 205.659179688 11.849609375 226.139648438 11.849609375 c 0,108,109
 236.719726562 11.849609375 236.719726562 11.849609375 240.754882812 17.58203125 c 128,-1,110
 244.790039062 23.3154296875 244.790039062 23.3154296875 244.790039062 36.419921875 c 2,111,-1
 244.790039062 92.3798828125 l 1,112,-1
 262.989257812 92.3798828125 l 1,113,-1
 262.989257812 33.6796875 l 2,114,115
 262.989257812 -1.8095703125 262.989257812 -1.8095703125 226.139648438 -1.8095703125 c 0,116,117
 207.930664062 -1.8095703125 207.930664062 -1.8095703125 197.6953125 7.4609375 c 128,-1,118
 187.459960938 16.7314453125 187.459960938 16.7314453125 187.459960938 33.6796875 c 2,119,-1
 187.459960938 294.849609375 l 2,93,94
366.26953125 33.6796875 m 2,120,121
 366.26953125 -1.8095703125 366.26953125 -1.8095703125 326.6796875 -1.8095703125 c 0,122,123
 286.639648438 -1.8095703125 286.639648438 -1.8095703125 286.639648438 33.6796875 c 2,124,-1
 286.639648438 294.849609375 l 2,125,126
 286.639648438 330.33984375 286.639648438 330.33984375 326.6796875 330.33984375 c 0,127,128
 366.26953125 330.33984375 366.26953125 330.33984375 366.26953125 294.849609375 c 2,129,-1
 366.26953125 33.6796875 l 2,120,121
348.069335938 294.400390625 m 2,130,131
 348.069335938 316.700195312 348.069335938 316.700195312 326.6796875 316.700195312 c 0,132,133
 304.83984375 316.700195312 304.83984375 316.700195312 304.83984375 294.400390625 c 2,134,-1
 304.83984375 34.1396484375 l 2,135,136
 304.83984375 11.849609375 304.83984375 11.849609375 326.6796875 11.849609375 c 0,137,138
 348.069335938 11.849609375 348.069335938 11.849609375 348.069335938 34.1396484375 c 2,139,-1
 348.069335938 294.400390625 l 2,130,131
396.299804688 328.51953125 m 1,140,-1
 437.25 328.51953125 l 2,141,142
 474.559570312 328.51953125 474.559570312 328.51953125 474.559570312 298.040039062 c 2,143,-1
 474.559570312 201.120117188 l 2,144,145
 474.559570312 171.03125 474.559570312 171.03125 446.349609375 168.8203125 c 1,146,-1
 446.349609375 167.91015625 l 1,147,148
 474.559570312 165.55078125 474.559570312 165.55078125 474.559570312 138.330078125 c 2,149,-1
 474.559570312 0.009765625 l 1,150,-1
 456.359375 0.009765625 l 1,151,-1
 456.359375 138.330078125 l 2,152,153
 456.359375 161.990234375 456.359375 161.990234375 431.329101562 161.990234375 c 2,154,-1
 414.5 161.990234375 l 1,155,-1
 414.5 0.009765625 l 1,156,-1
 396.299804688 0.009765625 l 1,157,-1
 396.299804688 328.51953125 l 1,140,-1
432.25 175.639648438 m 1,158,159
 456.369140625 175.639648438 456.369140625 175.639648438 456.369140625 197.48046875 c 2,160,-1
 456.369140625 294.400390625 l 2,161,162
 456.369140625 314.879882812 456.369140625 314.879882812 434.069335938 314.879882812 c 2,163,-1
 414.509765625 314.879882812 l 1,164,-1
 414.509765625 175.650390625 l 1,165,-1
 432.25 175.639648438 l 1,158,159
558.739257812 96.01953125 m 1,166,-1
 513.69921875 96.01953125 l 1,167,-1
 503.689453125 0.009765625 l 1,168,-1
 487.309570312 0.009765625 l 1,169,-1
 524.159179688 328.51953125 l 1,170,-1
 549.639648438 328.51953125 l 1,171,-1
 587.399414062 0.009765625 l 1,172,-1
 569.19921875 0.009765625 l 1,173,-1
 558.739257812 96.01953125 l 1,166,-1
557.369140625 109.669921875 m 1,174,-1
 545.989257812 217.509765625 l 2,175,176
 537.518554688 293.754882812 537.518554688 293.754882812 536.889648438 316.700195312 c 1,177,-1
 535.979492188 316.700195312 l 1,178,179
 534.16015625 300.3203125 534.16015625 300.3203125 531.66015625 267.10546875 c 128,-1,180
 529.16015625 233.889648438 529.16015625 233.889648438 527.33984375 217.509765625 c 2,181,-1
 515.509765625 109.669921875 l 1,182,-1
 557.369140625 109.669921875 l 1,174,-1
608.329101562 314.870117188 m 1,183,-1
 576.029296875 314.870117188 l 1,184,-1
 576.029296875 328.51953125 l 1,185,-1
 658.83984375 328.51953125 l 1,186,-1
 658.83984375 314.870117188 l 1,187,-1
 626.540039062 314.870117188 l 1,188,-1
 626.540039062 0.009765625 l 1,189,-1
 608.33984375 0.009765625 l 1,190,-1
 608.329101562 314.870117188 l 1,183,-1
670.669921875 328.51953125 m 1,191,-1
 733.009765625 328.51953125 l 1,192,-1
 733.009765625 314.870117188 l 1,193,-1
 688.869140625 314.870117188 l 1,194,-1
 688.869140625 175.639648438 l 1,195,-1
 730.279296875 175.639648438 l 1,196,-1
 730.279296875 161.990234375 l 1,197,-1
 688.869140625 161.990234375 l 1,198,-1
 688.869140625 13.66015625 l 1,199,-1
 736.189453125 13.66015625 l 1,200,-1
 736.189453125 0.009765625 l 1,201,-1
 670.669921875 0.009765625 l 1,202,-1
 670.669921875 328.51953125 l 1,191,-1
834.469726562 328.51953125 m 1,203,-1
 834.469726562 33.6796875 l 2,204,205
 834.469726562 -1.8095703125 834.469726562 -1.8095703125 794.889648438 -1.8095703125 c 0,206,207
 754.849609375 -1.8095703125 754.849609375 -1.8095703125 754.849609375 33.6796875 c 2,208,-1
 754.849609375 328.51953125 l 1,209,-1
 773.049804688 328.51953125 l 1,210,-1
 773.049804688 34.1298828125 l 2,211,212
 773.049804688 11.83984375 773.049804688 11.83984375 794.889648438 11.83984375 c 0,213,214
 816.26953125 11.83984375 816.26953125 11.83984375 816.26953125 34.1298828125 c 2,215,-1
 816.26953125 328.51953125 l 1,216,-1
 834.469726562 328.51953125 l 1,203,-1
864.489257812 328.51953125 m 1,217,-1
 905.439453125 328.51953125 l 2,218,219
 942.75 328.51953125 942.75 328.51953125 942.75 298.040039062 c 2,220,-1
 942.75 201.120117188 l 2,221,222
 942.75 171.03125 942.75 171.03125 914.540039062 168.8203125 c 1,223,-1
 914.540039062 167.91015625 l 1,224,225
 942.75 165.55078125 942.75 165.55078125 942.75 138.330078125 c 2,226,-1
 942.75 0.009765625 l 1,227,-1
 924.549804688 0.009765625 l 1,228,-1
 924.549804688 138.330078125 l 2,229,230
 924.549804688 161.990234375 924.549804688 161.990234375 899.51953125 161.990234375 c 2,231,-1
 882.689453125 161.990234375 l 1,232,-1
 882.689453125 0.009765625 l 1,233,-1
 864.489257812 0.009765625 l 1,234,-1
 864.489257812 328.51953125 l 1,217,-1
900.439453125 175.639648438 m 1,235,236
 924.559570312 175.639648438 924.559570312 175.639648438 924.559570312 197.48046875 c 2,237,-1
 924.559570312 294.400390625 l 2,238,239
 924.559570312 314.879882812 924.559570312 314.879882812 902.26953125 314.879882812 c 2,240,-1
 882.69921875 314.879882812 l 1,241,-1
 882.69921875 175.650390625 l 1,242,-1
 900.439453125 175.639648438 l 1,235,236
EndSplineSet
Validated: 1
EndChar

StartChar: g
Encoding: 103 103 86
Width: 1338
GlyphClass: 1
Flags: W
LayerCount: 2
Fore
SplineSet
0 721.01953125 m 1,0,-1
 38.6796875 721.01953125 l 2,1,2
 79.6298828125 721.01953125 79.6298828125 721.01953125 79.6298828125 685.98046875 c 2,3,-1
 79.6298828125 427.540039062 l 2,4,5
 79.6298828125 392.5 79.6298828125 392.5 38.6796875 392.5 c 2,6,-1
 0 392.5 l 1,7,-1
 0 721.01953125 l 1,0,-1
36.849609375 406.16015625 m 2,8,9
 61.419921875 406.16015625 61.419921875 406.16015625 61.419921875 426.1796875 c 2,10,-1
 61.419921875 687.349609375 l 2,11,12
 61.419921875 707.370117188 61.419921875 707.370117188 36.849609375 707.370117188 c 2,13,-1
 18.2001953125 707.370117188 l 1,14,-1
 18.2001953125 406.16015625 l 1,15,-1
 36.849609375 406.16015625 l 2,8,9
111.020507812 721.01953125 m 1,16,-1
 129.219726562 721.01953125 l 1,17,-1
 129.219726562 392.509765625 l 1,18,-1
 111.020507812 392.509765625 l 1,19,-1
 111.020507812 721.01953125 l 1,16,-1
160.610351562 721.01953125 m 1,20,-1
 201.560546875 721.01953125 l 2,21,22
 238.870117188 721.01953125 238.870117188 721.01953125 238.870117188 690.540039062 c 2,23,-1
 238.870117188 593.620117188 l 2,24,25
 238.870117188 563.522460938 238.870117188 563.522460938 210.66015625 561.309570312 c 1,26,-1
 210.66015625 560.400390625 l 1,27,28
 238.870117188 558.057617188 238.870117188 558.057617188 238.870117188 530.8203125 c 2,29,-1
 238.870117188 392.5 l 1,30,-1
 220.669921875 392.5 l 1,31,-1
 220.669921875 530.8203125 l 2,32,33
 220.669921875 554.48046875 220.669921875 554.48046875 195.650390625 554.48046875 c 2,34,-1
 178.8203125 554.48046875 l 1,35,-1
 178.8203125 392.5 l 1,36,-1
 160.620117188 392.5 l 1,37,-1
 160.610351562 721.01953125 l 1,20,-1
196.560546875 568.139648438 m 1,38,39
 220.6796875 568.139648438 220.6796875 568.139648438 220.6796875 589.98046875 c 2,40,-1
 220.6796875 686.900390625 l 2,41,42
 220.6796875 707.379882812 220.6796875 707.379882812 198.389648438 707.379882812 c 2,43,-1
 178.830078125 707.379882812 l 1,44,-1
 178.830078125 568.150390625 l 1,45,-1
 196.560546875 568.139648438 l 1,38,39
270.270507812 721.01953125 m 1,46,-1
 332.599609375 721.01953125 l 1,47,-1
 332.599609375 707.370117188 l 1,48,-1
 288.469726562 707.370117188 l 1,49,-1
 288.469726562 568.139648438 l 1,50,-1
 329.870117188 568.139648438 l 1,51,-1
 329.870117188 554.490234375 l 1,52,-1
 288.469726562 554.490234375 l 1,53,-1
 288.469726562 406.16015625 l 1,54,-1
 335.790039062 406.16015625 l 1,55,-1
 335.790039062 392.509765625 l 1,56,-1
 270.270507812 392.509765625 l 1,57,-1
 270.270507812 721.01953125 l 1,46,-1
348.0703125 687.349609375 m 2,58,59
 348.0703125 704.299804688 348.0703125 704.299804688 358.302734375 713.569335938 c 128,-1,60
 368.536132812 722.83984375 368.536132812 722.83984375 386.75 722.83984375 c 0,61,62
 423.599609375 722.83984375 423.599609375 722.83984375 423.599609375 687.349609375 c 2,63,-1
 423.599609375 633.200195312 l 1,64,-1
 405.400390625 633.200195312 l 1,65,-1
 405.400390625 684.620117188 l 2,66,67
 405.400390625 709.190429688 405.400390625 709.190429688 386.75 709.190429688 c 0,68,69
 366.270507812 709.190429688 366.270507812 709.190429688 366.270507812 688.709960938 c 2,70,-1
 366.270507812 424.809570312 l 2,71,72
 366.270507812 404.330078125 366.270507812 404.330078125 386.75 404.330078125 c 0,73,74
 397.33203125 404.330078125 397.33203125 404.330078125 401.366210938 410.059570312 c 128,-1,75
 405.400390625 415.790039062 405.400390625 415.790039062 405.400390625 428.900390625 c 2,76,-1
 405.400390625 484.860351562 l 1,77,-1
 423.599609375 484.860351562 l 1,78,-1
 423.599609375 426.16015625 l 2,79,80
 423.599609375 390.669921875 423.599609375 390.669921875 386.75 390.669921875 c 0,81,82
 368.541015625 390.669921875 368.541015625 390.669921875 358.305664062 399.940429688 c 128,-1,83
 348.0703125 409.211914062 348.0703125 409.211914062 348.0703125 426.16015625 c 2,84,-1
 348.0703125 687.349609375 l 2,58,59
461.360351562 707.370117188 m 1,85,-1
 429.049804688 707.370117188 l 1,86,-1
 429.049804688 721.01953125 l 1,87,-1
 511.860351562 721.01953125 l 1,88,-1
 511.860351562 707.370117188 l 1,89,-1
 479.549804688 707.370117188 l 1,90,-1
 479.549804688 392.509765625 l 1,91,-1
 461.349609375 392.509765625 l 1,92,-1
 461.360351562 707.370117188 l 1,85,-1
523.700195312 721.01953125 m 1,93,-1
 586.030273438 721.01953125 l 1,94,-1
 586.030273438 707.370117188 l 1,95,-1
 541.900390625 707.370117188 l 1,96,-1
 541.900390625 568.139648438 l 1,97,-1
 583.299804688 568.139648438 l 1,98,-1
 583.299804688 554.490234375 l 1,99,-1
 541.900390625 554.490234375 l 1,100,-1
 541.900390625 406.16015625 l 1,101,-1
 589.219726562 406.16015625 l 1,102,-1
 589.219726562 392.509765625 l 1,103,-1
 523.700195312 392.509765625 l 1,104,-1
 523.700195312 721.01953125 l 1,93,-1
687.5 721.01953125 m 1,105,-1
 687.5 426.1796875 l 2,106,107
 687.5 390.690429688 687.5 390.690429688 647.919921875 390.690429688 c 0,108,109
 607.879882812 390.690429688 607.879882812 390.690429688 607.879882812 426.1796875 c 2,110,-1
 607.879882812 721.01953125 l 1,111,-1
 626.080078125 721.01953125 l 1,112,-1
 626.080078125 426.629882812 l 2,113,114
 626.080078125 404.33984375 626.080078125 404.33984375 647.919921875 404.33984375 c 0,115,116
 669.310546875 404.33984375 669.310546875 404.33984375 669.310546875 426.629882812 c 2,117,-1
 669.310546875 721.01953125 l 1,118,-1
 687.5 721.01953125 l 1,105,-1
717.530273438 721.01953125 m 1,119,-1
 758.48046875 721.01953125 l 2,120,121
 795.790039062 721.01953125 795.790039062 721.01953125 795.790039062 690.540039062 c 2,122,-1
 795.790039062 593.620117188 l 2,123,124
 795.790039062 563.522460938 795.790039062 563.522460938 767.580078125 561.309570312 c 1,125,-1
 767.580078125 560.400390625 l 1,126,127
 795.790039062 558.057617188 795.790039062 558.057617188 795.790039062 530.8203125 c 2,128,-1
 795.790039062 392.5 l 1,129,-1
 777.58984375 392.5 l 1,130,-1
 777.58984375 530.8203125 l 2,131,132
 777.58984375 554.48046875 777.58984375 554.48046875 752.560546875 554.48046875 c 2,133,-1
 735.73046875 554.48046875 l 1,134,-1
 735.73046875 392.5 l 1,135,-1
 717.530273438 392.5 l 1,136,-1
 717.530273438 721.01953125 l 1,119,-1
753.469726562 568.139648438 m 1,137,138
 777.58984375 568.139648438 777.58984375 568.139648438 777.58984375 589.98046875 c 2,139,-1
 777.58984375 686.900390625 l 2,140,141
 777.58984375 707.379882812 777.58984375 707.379882812 755.299804688 707.379882812 c 2,142,-1
 735.73046875 707.379882812 l 1,143,-1
 735.73046875 568.150390625 l 1,144,-1
 753.469726562 568.139648438 l 1,137,138
878.139648438 721.01953125 m 1,145,-1
 916.8203125 721.01953125 l 2,146,147
 957.770507812 721.01953125 957.770507812 721.01953125 957.770507812 685.98046875 c 2,148,-1
 957.770507812 427.540039062 l 2,149,150
 957.770507812 392.5 957.770507812 392.5 916.8203125 392.5 c 2,151,-1
 878.139648438 392.5 l 1,152,-1
 878.139648438 721.01953125 l 1,145,-1
914.990234375 406.16015625 m 2,153,154
 939.560546875 406.16015625 939.560546875 406.16015625 939.560546875 426.1796875 c 2,155,-1
 939.560546875 687.349609375 l 2,156,157
 939.560546875 707.370117188 939.560546875 707.370117188 914.990234375 707.370117188 c 2,158,-1
 896.330078125 707.370117188 l 1,159,-1
 896.330078125 406.16015625 l 1,160,-1
 914.990234375 406.16015625 l 2,153,154
987.790039062 721.01953125 m 1,161,-1
 1050.12988281 721.01953125 l 1,162,-1
 1050.12988281 707.370117188 l 1,163,-1
 1005.99023438 707.370117188 l 1,164,-1
 1005.99023438 568.139648438 l 1,165,-1
 1047.40039062 568.139648438 l 1,166,-1
 1047.40039062 554.490234375 l 1,167,-1
 1005.99023438 554.490234375 l 1,168,-1
 1005.99023438 406.16015625 l 1,169,-1
 1053.31054688 406.16015625 l 1,170,-1
 1053.31054688 392.509765625 l 1,171,-1
 987.790039062 392.509765625 l 1,172,-1
 987.790039062 721.01953125 l 1,161,-1
1122.9296875 721.01953125 m 1,173,-1
 1141.12988281 721.01953125 l 1,174,-1
 1141.12988281 406.16015625 l 1,175,-1
 1188.91015625 406.16015625 l 1,176,-1
 1188.91015625 392.509765625 l 1,177,-1
 1122.9296875 392.509765625 l 1,178,-1
 1122.9296875 721.01953125 l 1,173,-1
1259.87988281 488.51953125 m 1,179,-1
 1214.83984375 488.51953125 l 1,180,-1
 1204.83007812 392.509765625 l 1,181,-1
 1188.45019531 392.509765625 l 1,182,-1
 1225.29980469 721.01953125 l 1,183,-1
 1250.78027344 721.01953125 l 1,184,-1
 1288.54003906 392.509765625 l 1,185,-1
 1270.33984375 392.509765625 l 1,186,-1
 1259.87988281 488.51953125 l 1,179,-1
1258.52050781 502.169921875 m 1,187,-1
 1247.13964844 610.009765625 l 2,188,189
 1238.66894531 686.252929688 1238.66894531 686.252929688 1238.04003906 709.200195312 c 1,190,-1
 1237.12988281 709.200195312 l 1,191,192
 1235.31054688 692.8203125 1235.31054688 692.8203125 1232.81054688 659.60546875 c 128,-1,193
 1230.31054688 626.389648438 1230.31054688 626.389648438 1228.49023438 610.009765625 c 2,194,-1
 1216.66015625 502.169921875 l 1,195,-1
 1258.52050781 502.169921875 l 1,187,-1
135.599609375 328.51953125 m 1,196,-1
 176.549804688 328.51953125 l 2,197,198
 213.860351562 328.51953125 213.860351562 328.51953125 213.860351562 297.120117188 c 2,199,-1
 213.860351562 189.740234375 l 2,200,201
 213.860351562 175.375976562 213.860351562 175.375976562 204.205078125 166.862304688 c 128,-1,202
 194.549804688 158.349609375 194.549804688 158.349609375 176.549804688 158.349609375 c 2,203,-1
 153.799804688 158.349609375 l 1,204,-1
 153.799804688 0.009765625 l 1,205,-1
 135.599609375 0.009765625 l 1,206,-1
 135.599609375 328.51953125 l 1,196,-1
173.360351562 172 m 1,207,208
 195.650390625 172 195.650390625 172 195.650390625 191.5703125 c 2,209,-1
 195.650390625 294.400390625 l 2,210,211
 195.650390625 314.879882812 195.650390625 314.879882812 173.360351562 314.879882812 c 2,212,-1
 153.799804688 314.879882812 l 1,213,-1
 153.799804688 172.009765625 l 1,214,-1
 173.360351562 172 l 1,207,208
236.599609375 328.51953125 m 1,215,-1
 254.799804688 328.51953125 l 1,216,-1
 254.799804688 175.639648438 l 1,217,-1
 298.030273438 175.639648438 l 1,218,-1
 298.030273438 328.51953125 l 1,219,-1
 316.23046875 328.51953125 l 1,220,-1
 316.23046875 0.009765625 l 1,221,-1
 298.030273438 0.009765625 l 1,222,-1
 298.030273438 161.990234375 l 1,223,-1
 254.799804688 161.990234375 l 1,224,-1
 254.799804688 0.009765625 l 1,225,-1
 236.599609375 0.009765625 l 1,226,-1
 236.599609375 328.51953125 l 1,215,-1
425.879882812 33.6796875 m 2,227,228
 425.879882812 -1.8095703125 425.879882812 -1.8095703125 386.290039062 -1.8095703125 c 0,229,230
 346.25 -1.8095703125 346.25 -1.8095703125 346.25 33.6796875 c 2,231,-1
 346.25 294.849609375 l 2,232,233
 346.25 330.33984375 346.25 330.33984375 386.290039062 330.33984375 c 0,234,235
 425.879882812 330.33984375 425.879882812 330.33984375 425.879882812 294.849609375 c 2,236,-1
 425.879882812 33.6796875 l 2,227,228
407.6796875 294.400390625 m 2,237,238
 407.6796875 316.700195312 407.6796875 316.700195312 386.290039062 316.700195312 c 0,239,240
 364.450195312 316.700195312 364.450195312 316.700195312 364.450195312 294.400390625 c 2,241,-1
 364.450195312 34.1396484375 l 2,242,243
 364.450195312 11.849609375 364.450195312 11.849609375 386.290039062 11.849609375 c 0,244,245
 407.6796875 11.849609375 407.6796875 11.849609375 407.6796875 34.1396484375 c 2,246,-1
 407.6796875 294.400390625 l 2,237,238
470.009765625 314.870117188 m 1,247,-1
 437.700195312 314.870117188 l 1,248,-1
 437.700195312 328.51953125 l 1,249,-1
 520.509765625 328.51953125 l 1,250,-1
 520.509765625 314.870117188 l 1,251,-1
 488.200195312 314.870117188 l 1,252,-1
 488.200195312 0.009765625 l 1,253,-1
 470 0.009765625 l 1,254,-1
 470.009765625 314.870117188 l 1,247,-1
611.969726562 33.6796875 m 2,255,256
 611.969726562 -1.8095703125 611.969726562 -1.8095703125 572.389648438 -1.8095703125 c 0,257,258
 532.349609375 -1.8095703125 532.349609375 -1.8095703125 532.349609375 33.6796875 c 2,259,-1
 532.349609375 294.849609375 l 2,260,261
 532.349609375 330.33984375 532.349609375 330.33984375 572.389648438 330.33984375 c 0,262,263
 611.969726562 330.33984375 611.969726562 330.33984375 611.969726562 294.849609375 c 2,264,-1
 611.969726562 33.6796875 l 2,255,256
593.770507812 294.400390625 m 2,265,266
 593.770507812 316.700195312 593.770507812 316.700195312 572.379882812 316.700195312 c 0,267,268
 550.540039062 316.700195312 550.540039062 316.700195312 550.540039062 294.400390625 c 2,269,-1
 550.540039062 34.1396484375 l 2,270,271
 550.540039062 11.849609375 550.540039062 11.849609375 572.379882812 11.849609375 c 0,272,273
 593.770507812 11.849609375 593.770507812 11.849609375 593.770507812 34.1396484375 c 2,274,-1
 593.770507812 294.400390625 l 2,265,266
685.23046875 158.349609375 m 1,275,-1
 721.629882812 158.349609375 l 1,276,-1
 721.629882812 8.2001953125 l 1,277,-1
 719.349609375 6.830078125 l 2,278,279
 705.509765625 -1.8203125 705.509765625 -1.8203125 682.040039062 -1.8203125 c 0,280,281
 642 -1.8203125 642 -1.8203125 642 33.669921875 c 2,282,-1
 642 294.83984375 l 2,283,284
 642 330.330078125 642 330.330078125 682.040039062 330.330078125 c 0,285,286
 721.629882812 330.330078125 721.629882812 330.330078125 721.629882812 294.83984375 c 2,287,-1
 721.629882812 241.610351562 l 1,288,-1
 703.4296875 241.610351562 l 1,289,-1
 703.4296875 292.5703125 l 2,290,291
 703.4296875 303.366210938 703.4296875 303.366210938 697.399414062 310.022460938 c 128,-1,292
 691.370117188 316.6796875 691.370117188 316.6796875 682.040039062 316.6796875 c 128,-1,293
 672.663085938 316.6796875 672.663085938 316.6796875 666.431640625 309.99609375 c 128,-1,294
 660.200195312 303.311523438 660.200195312 303.311523438 660.200195312 292.5703125 c 2,295,-1
 660.200195312 32.3095703125 l 2,296,297
 660.200195312 22.9677734375 660.200195312 22.9677734375 666.393554688 17.4033203125 c 128,-1,298
 672.5859375 11.83984375 672.5859375 11.83984375 682.040039062 11.83984375 c 0,299,300
 694.30859375 11.83984375 694.30859375 11.83984375 703.4296875 17.2998046875 c 1,301,-1
 703.4296875 144.700195312 l 1,302,-1
 685.23046875 144.700195312 l 1,303,-1
 685.23046875 158.349609375 l 1,275,-1
751.66015625 328.51953125 m 1,304,-1
 792.610351562 328.51953125 l 2,305,306
 829.919921875 328.51953125 829.919921875 328.51953125 829.919921875 298.040039062 c 2,307,-1
 829.919921875 201.120117188 l 2,308,309
 829.919921875 171.03125 829.919921875 171.03125 801.709960938 168.8203125 c 1,310,-1
 801.709960938 167.91015625 l 1,311,312
 829.919921875 165.55078125 829.919921875 165.55078125 829.919921875 138.330078125 c 2,313,-1
 829.919921875 0.009765625 l 1,314,-1
 811.719726562 0.009765625 l 1,315,-1
 811.719726562 138.330078125 l 2,316,317
 811.719726562 161.990234375 811.719726562 161.990234375 786.690429688 161.990234375 c 2,318,-1
 769.860351562 161.990234375 l 1,319,-1
 769.860351562 0.009765625 l 1,320,-1
 751.66015625 0.009765625 l 1,321,-1
 751.66015625 328.51953125 l 1,304,-1
787.599609375 175.639648438 m 1,322,323
 811.719726562 175.639648438 811.719726562 175.639648438 811.719726562 197.48046875 c 2,324,-1
 811.719726562 294.400390625 l 2,325,326
 811.719726562 314.879882812 811.719726562 314.879882812 789.4296875 314.879882812 c 2,327,-1
 769.860351562 314.879882812 l 1,328,-1
 769.860351562 175.650390625 l 1,329,-1
 787.599609375 175.639648438 l 1,322,323
914.08984375 96.01953125 m 1,330,-1
 869.049804688 96.01953125 l 1,331,-1
 859.040039062 0.009765625 l 1,332,-1
 842.66015625 0.009765625 l 1,333,-1
 879.509765625 328.51953125 l 1,334,-1
 904.990234375 328.51953125 l 1,335,-1
 942.75 0.009765625 l 1,336,-1
 924.549804688 0.009765625 l 1,337,-1
 914.08984375 96.01953125 l 1,330,-1
912.719726562 109.669921875 m 1,338,-1
 901.33984375 217.509765625 l 2,339,340
 892.869140625 293.754882812 892.869140625 293.754882812 892.240234375 316.700195312 c 1,341,-1
 891.330078125 316.700195312 l 1,342,343
 889.509765625 300.3203125 889.509765625 300.3203125 887.009765625 267.10546875 c 128,-1,344
 884.509765625 233.889648438 884.509765625 233.889648438 882.690429688 217.509765625 c 2,345,-1
 870.860351562 109.669921875 l 1,346,-1
 912.719726562 109.669921875 l 1,338,-1
954.129882812 328.51953125 m 1,347,-1
 995.080078125 328.51953125 l 2,348,349
 1032.38964844 328.51953125 1032.38964844 328.51953125 1032.38964844 297.120117188 c 2,350,-1
 1032.38964844 189.740234375 l 2,351,352
 1032.38964844 175.375976562 1032.38964844 175.375976562 1022.73535156 166.862304688 c 128,-1,353
 1013.08007812 158.349609375 1013.08007812 158.349609375 995.080078125 158.349609375 c 2,354,-1
 972.330078125 158.349609375 l 1,355,-1
 972.330078125 0.009765625 l 1,356,-1
 954.129882812 0.009765625 l 1,357,-1
 954.129882812 328.51953125 l 1,347,-1
991.889648438 172 m 1,358,359
 1014.1796875 172 1014.1796875 172 1014.1796875 191.5703125 c 2,360,-1
 1014.1796875 294.400390625 l 2,361,362
 1014.1796875 314.879882812 1014.1796875 314.879882812 991.889648438 314.879882812 c 2,363,-1
 972.3203125 314.879882812 l 1,364,-1
 972.3203125 172.009765625 l 1,365,-1
 991.889648438 172 l 1,358,359
1055.12988281 328.51953125 m 1,366,-1
 1073.33007812 328.51953125 l 1,367,-1
 1073.33007812 175.639648438 l 1,368,-1
 1116.56054688 175.639648438 l 1,369,-1
 1116.56054688 328.51953125 l 1,370,-1
 1134.75976562 328.51953125 l 1,371,-1
 1134.75976562 0.009765625 l 1,372,-1
 1116.56054688 0.009765625 l 1,373,-1
 1116.56054688 161.990234375 l 1,374,-1
 1073.33007812 161.990234375 l 1,375,-1
 1073.33007812 0.009765625 l 1,376,-1
 1055.12988281 0.009765625 l 1,377,-1
 1055.12988281 328.51953125 l 1,366,-1
1166.15039062 328.51953125 m 1,378,-1
 1184.34960938 328.51953125 l 1,379,-1
 1184.34960938 0.009765625 l 1,380,-1
 1166.15039062 0.009765625 l 1,381,-1
 1166.15039062 328.51953125 l 1,378,-1
1215.74023438 328.51953125 m 1,382,-1
 1278.08007812 328.51953125 l 1,383,-1
 1278.08007812 314.870117188 l 1,384,-1
 1233.94042969 314.870117188 l 1,385,-1
 1233.94042969 175.639648438 l 1,386,-1
 1275.34960938 175.639648438 l 1,387,-1
 1275.34960938 161.990234375 l 1,388,-1
 1233.94042969 161.990234375 l 1,389,-1
 1233.94042969 13.66015625 l 1,390,-1
 1281.25976562 13.66015625 l 1,391,-1
 1281.25976562 0.009765625 l 1,392,-1
 1215.74023438 0.009765625 l 1,393,-1
 1215.74023438 328.51953125 l 1,382,-1
EndSplineSet
Validated: 5
EndChar

StartChar: h
Encoding: 104 104 87
Width: 1048
GlyphClass: 1
Flags: W
LayerCount: 2
Fore
SplineSet
0 721.01953125 m 1,0,-1
 40.9501953125 721.01953125 l 2,1,2
 78.259765625 721.01953125 78.259765625 721.01953125 78.259765625 689.620117188 c 2,3,-1
 78.259765625 582.240234375 l 2,4,5
 78.259765625 567.869140625 78.259765625 567.869140625 68.60546875 559.354492188 c 128,-1,6
 58.951171875 550.83984375 58.951171875 550.83984375 40.9501953125 550.83984375 c 2,7,-1
 18.2001953125 550.83984375 l 1,8,-1
 18.2001953125 392.5 l 1,9,-1
 0 392.5 l 1,10,-1
 0 721.01953125 l 1,0,-1
37.76953125 564.5 m 2,11,12
 60.0595703125 564.5 60.0595703125 564.5 60.0595703125 584.059570312 c 2,13,-1
 60.0595703125 686.889648438 l 2,14,15
 60.0595703125 707.370117188 60.0595703125 707.370117188 37.76953125 707.370117188 c 2,16,-1
 18.2099609375 707.370117188 l 1,17,-1
 18.2099609375 564.5 l 1,18,-1
 37.76953125 564.5 l 2,11,12
101.009765625 721.01953125 m 1,19,-1
 141.959960938 721.01953125 l 2,20,21
 179.26953125 721.01953125 179.26953125 721.01953125 179.26953125 690.540039062 c 2,22,-1
 179.26953125 593.620117188 l 2,23,24
 179.26953125 563.522460938 179.26953125 563.522460938 151.059570312 561.309570312 c 1,25,-1
 151.059570312 560.400390625 l 1,26,27
 179.26953125 558.057617188 179.26953125 558.057617188 179.26953125 530.8203125 c 2,28,-1
 179.26953125 392.5 l 1,29,-1
 161.069335938 392.5 l 1,30,-1
 161.069335938 530.8203125 l 2,31,32
 161.069335938 554.48046875 161.069335938 554.48046875 136.049804688 554.48046875 c 2,33,-1
 119.219726562 554.48046875 l 1,34,-1
 119.219726562 392.5 l 1,35,-1
 101.01953125 392.5 l 1,36,-1
 101.009765625 721.01953125 l 1,19,-1
136.950195312 568.139648438 m 1,37,38
 161.059570312 568.139648438 161.059570312 568.139648438 161.059570312 589.98046875 c 2,39,-1
 161.059570312 686.900390625 l 2,40,41
 161.059570312 707.379882812 161.059570312 707.379882812 138.76953125 707.379882812 c 2,42,-1
 119.209960938 707.379882812 l 1,43,-1
 119.209960938 568.150390625 l 1,44,-1
 136.950195312 568.139648438 l 1,37,38
290.280273438 426.1796875 m 2,45,46
 290.280273438 390.690429688 290.280273438 390.690429688 250.689453125 390.690429688 c 0,47,48
 210.649414062 390.690429688 210.649414062 390.690429688 210.649414062 426.1796875 c 2,49,-1
 210.649414062 687.349609375 l 2,50,51
 210.649414062 722.83984375 210.649414062 722.83984375 250.689453125 722.83984375 c 0,52,53
 290.280273438 722.83984375 290.280273438 722.83984375 290.280273438 687.349609375 c 2,54,-1
 290.280273438 426.1796875 l 2,45,46
272.080078125 686.900390625 m 2,55,56
 272.080078125 709.190429688 272.080078125 709.190429688 250.689453125 709.190429688 c 0,57,58
 228.849609375 709.190429688 228.849609375 709.190429688 228.849609375 686.900390625 c 2,59,-1
 228.849609375 426.639648438 l 2,60,61
 228.849609375 404.349609375 228.849609375 404.349609375 250.689453125 404.349609375 c 0,62,63
 272.080078125 404.349609375 272.080078125 404.349609375 272.080078125 426.639648438 c 2,64,-1
 272.080078125 686.900390625 l 2,55,56
320.309570312 721.01953125 m 1,65,-1
 358.990234375 721.01953125 l 2,66,67
 399.939453125 721.01953125 399.939453125 721.01953125 399.939453125 685.98046875 c 2,68,-1
 399.939453125 427.540039062 l 2,69,70
 399.939453125 392.5 399.939453125 392.5 358.990234375 392.5 c 2,71,-1
 320.309570312 392.5 l 1,72,-1
 320.309570312 721.01953125 l 1,65,-1
357.169921875 406.16015625 m 2,73,74
 381.740234375 406.16015625 381.740234375 406.16015625 381.740234375 426.1796875 c 2,75,-1
 381.740234375 687.349609375 l 2,76,77
 381.740234375 707.370117188 381.740234375 707.370117188 357.169921875 707.370117188 c 2,78,-1
 338.51953125 707.370117188 l 1,79,-1
 338.51953125 406.16015625 l 1,80,-1
 357.169921875 406.16015625 l 2,73,74
509.58984375 721.01953125 m 1,81,-1
 509.58984375 426.1796875 l 2,82,83
 509.58984375 390.690429688 509.58984375 390.690429688 470 390.690429688 c 0,84,85
 429.959960938 390.690429688 429.959960938 390.690429688 429.959960938 426.1796875 c 2,86,-1
 429.959960938 721.01953125 l 1,87,-1
 448.16015625 721.01953125 l 1,88,-1
 448.16015625 426.629882812 l 2,89,90
 448.16015625 404.33984375 448.16015625 404.33984375 470 404.33984375 c 0,91,92
 491.389648438 404.33984375 491.389648438 404.33984375 491.389648438 426.629882812 c 2,93,-1
 491.389648438 721.01953125 l 1,94,-1
 509.58984375 721.01953125 l 1,81,-1
533.25 687.349609375 m 2,95,96
 533.25 704.298828125 533.25 704.298828125 543.481445312 713.569335938 c 128,-1,97
 553.712890625 722.83984375 553.712890625 722.83984375 571.919921875 722.83984375 c 0,98,99
 608.780273438 722.83984375 608.780273438 722.83984375 608.780273438 687.349609375 c 2,100,-1
 608.780273438 633.200195312 l 1,101,-1
 590.580078125 633.200195312 l 1,102,-1
 590.580078125 684.620117188 l 2,103,104
 590.580078125 709.190429688 590.580078125 709.190429688 571.919921875 709.190429688 c 0,105,106
 551.439453125 709.190429688 551.439453125 709.190429688 551.439453125 688.709960938 c 2,107,-1
 551.439453125 424.809570312 l 2,108,109
 551.439453125 404.330078125 551.439453125 404.330078125 571.919921875 404.330078125 c 0,110,111
 582.502929688 404.330078125 582.502929688 404.330078125 586.541992188 410.061523438 c 128,-1,112
 590.580078125 415.791992188 590.580078125 415.791992188 590.580078125 428.900390625 c 2,113,-1
 590.580078125 484.860351562 l 1,114,-1
 608.780273438 484.860351562 l 1,115,-1
 608.780273438 426.16015625 l 2,116,117
 608.780273438 390.669921875 608.780273438 390.669921875 571.919921875 390.669921875 c 0,118,119
 553.70703125 390.669921875 553.70703125 390.669921875 543.478515625 399.939453125 c 128,-1,120
 533.25 409.208984375 533.25 409.208984375 533.25 426.16015625 c 2,121,-1
 533.25 687.349609375 l 2,95,96
646.540039062 707.370117188 m 1,122,-1
 614.240234375 707.370117188 l 1,123,-1
 614.240234375 721.01953125 l 1,124,-1
 697.049804688 721.01953125 l 1,125,-1
 697.049804688 707.370117188 l 1,126,-1
 664.75 707.370117188 l 1,127,-1
 664.75 392.509765625 l 1,128,-1
 646.549804688 392.509765625 l 1,129,-1
 646.549804688 707.370117188 l 1,130,-1
 646.540039062 707.370117188 l 1,122,-1
708.879882812 721.01953125 m 1,131,-1
 771.219726562 721.01953125 l 1,132,-1
 771.219726562 707.370117188 l 1,133,-1
 727.080078125 707.370117188 l 1,134,-1
 727.080078125 568.139648438 l 1,135,-1
 768.490234375 568.139648438 l 1,136,-1
 768.490234375 554.490234375 l 1,137,-1
 727.080078125 554.490234375 l 1,138,-1
 727.080078125 406.16015625 l 1,139,-1
 774.399414062 406.16015625 l 1,140,-1
 774.399414062 392.509765625 l 1,141,-1
 708.879882812 392.509765625 l 1,142,-1
 708.879882812 721.01953125 l 1,131,-1
872.6796875 721.01953125 m 1,143,-1
 872.6796875 426.1796875 l 2,144,145
 872.6796875 390.690429688 872.6796875 390.690429688 833.099609375 390.690429688 c 0,146,147
 793.059570312 390.690429688 793.059570312 390.690429688 793.059570312 426.1796875 c 2,148,-1
 793.059570312 721.01953125 l 1,149,-1
 811.259765625 721.01953125 l 1,150,-1
 811.259765625 426.629882812 l 2,151,152
 811.259765625 404.33984375 811.259765625 404.33984375 833.099609375 404.33984375 c 0,153,154
 854.479492188 404.33984375 854.479492188 404.33984375 854.479492188 426.629882812 c 2,155,-1
 854.479492188 721.01953125 l 1,156,-1
 872.6796875 721.01953125 l 1,143,-1
902.700195312 721.01953125 m 1,157,-1
 943.649414062 721.01953125 l 2,158,159
 980.959960938 721.01953125 980.959960938 721.01953125 980.959960938 690.540039062 c 2,160,-1
 980.959960938 593.620117188 l 2,161,162
 980.959960938 563.522460938 980.959960938 563.522460938 952.75 561.309570312 c 1,163,-1
 952.75 560.400390625 l 1,164,165
 980.959960938 558.057617188 980.959960938 558.057617188 980.959960938 530.8203125 c 2,166,-1
 980.959960938 392.5 l 1,167,-1
 962.759765625 392.5 l 1,168,-1
 962.759765625 530.8203125 l 2,169,170
 962.759765625 554.48046875 962.759765625 554.48046875 937.729492188 554.48046875 c 2,171,-1
 920.899414062 554.48046875 l 1,172,-1
 920.899414062 392.5 l 1,173,-1
 902.700195312 392.5 l 1,174,-1
 902.700195312 721.01953125 l 1,157,-1
938.649414062 568.139648438 m 1,175,176
 962.76953125 568.139648438 962.76953125 568.139648438 962.76953125 589.98046875 c 2,177,-1
 962.76953125 686.900390625 l 2,178,179
 962.76953125 707.379882812 962.76953125 707.379882812 940.479492188 707.379882812 c 2,180,-1
 920.91015625 707.379882812 l 1,181,-1
 920.91015625 568.150390625 l 1,182,-1
 938.649414062 568.139648438 l 1,175,176
345.33984375 328.51953125 m 1,183,-1
 407.669921875 328.51953125 l 1,184,-1
 407.669921875 314.870117188 l 1,185,-1
 363.540039062 314.870117188 l 1,186,-1
 363.540039062 175.639648438 l 1,187,-1
 404.939453125 175.639648438 l 1,188,-1
 404.939453125 161.990234375 l 1,189,-1
 363.540039062 161.990234375 l 1,190,-1
 363.540039062 13.66015625 l 1,191,-1
 410.859375 13.66015625 l 1,192,-1
 410.859375 0.009765625 l 1,193,-1
 345.33984375 0.009765625 l 1,194,-1
 345.33984375 328.51953125 l 1,183,-1
415.41015625 328.51953125 m 1,195,-1
 433.609375 328.51953125 l 1,196,-1
 460.91015625 183.830078125 l 1,197,-1
 461.819335938 183.830078125 l 1,198,-1
 490.939453125 328.51953125 l 1,199,-1
 507.319335938 328.51953125 l 1,200,-1
 472.740234375 171.08984375 l 1,201,-1
 509.599609375 0.009765625 l 1,202,-1
 491.399414062 0.009765625 l 1,203,-1
 461.819335938 158.349609375 l 1,204,-1
 460.91015625 158.349609375 l 1,205,-1
 428.599609375 0.009765625 l 1,206,-1
 412.219726562 0.009765625 l 1,207,-1
 449.069335938 171.08984375 l 1,208,-1
 415.41015625 328.51953125 l 1,195,-1
522.330078125 328.51953125 m 1,209,-1
 584.669921875 328.51953125 l 1,210,-1
 584.669921875 314.870117188 l 1,211,-1
 540.530273438 314.870117188 l 1,212,-1
 540.530273438 175.639648438 l 1,213,-1
 581.939453125 175.639648438 l 1,214,-1
 581.939453125 161.990234375 l 1,215,-1
 540.530273438 161.990234375 l 1,216,-1
 540.530273438 13.66015625 l 1,217,-1
 587.849609375 13.66015625 l 1,218,-1
 587.849609375 0.009765625 l 1,219,-1
 522.330078125 0.009765625 l 1,220,-1
 522.330078125 328.51953125 l 1,209,-1
556.459960938 392.6796875 m 1,221,-1
 576.479492188 392.6796875 l 1,222,-1
 550.08984375 349 l 1,223,-1
 538.259765625 349 l 1,224,-1
 556.459960938 392.6796875 l 1,221,-1
600.139648438 294.849609375 m 2,225,226
 600.139648438 311.798828125 600.139648438 311.798828125 610.37109375 321.069335938 c 128,-1,227
 620.602539062 330.33984375 620.602539062 330.33984375 638.809570312 330.33984375 c 0,228,229
 675.669921875 330.33984375 675.669921875 330.33984375 675.669921875 294.849609375 c 2,230,-1
 675.669921875 240.709960938 l 1,231,-1
 657.469726562 240.709960938 l 1,232,-1
 657.469726562 292.129882812 l 2,233,234
 657.469726562 316.700195312 657.469726562 316.700195312 638.809570312 316.700195312 c 0,235,236
 618.330078125 316.700195312 618.330078125 316.700195312 618.330078125 296.219726562 c 2,237,-1
 618.330078125 32.3203125 l 2,238,239
 618.330078125 11.849609375 618.330078125 11.849609375 638.809570312 11.849609375 c 0,240,241
 649.391601562 11.849609375 649.391601562 11.849609375 653.430664062 17.5830078125 c 128,-1,242
 657.469726562 23.3173828125 657.469726562 23.3173828125 657.469726562 36.419921875 c 2,243,-1
 657.469726562 92.3798828125 l 1,244,-1
 675.669921875 92.3798828125 l 1,245,-1
 675.669921875 33.6796875 l 2,246,247
 675.669921875 -1.8095703125 675.669921875 -1.8095703125 638.809570312 -1.8095703125 c 0,248,249
 620.596679688 -1.8095703125 620.596679688 -1.8095703125 610.368164062 7.4599609375 c 128,-1,250
 600.139648438 16.728515625 600.139648438 16.728515625 600.139648438 33.6796875 c 2,251,-1
 600.139648438 294.849609375 l 2,225,226
778.950195312 328.51953125 m 1,252,-1
 778.950195312 33.6796875 l 2,253,254
 778.950195312 -1.8095703125 778.950195312 -1.8095703125 739.370117188 -1.8095703125 c 0,255,256
 699.330078125 -1.8095703125 699.330078125 -1.8095703125 699.330078125 33.6796875 c 2,257,-1
 699.330078125 328.51953125 l 1,258,-1
 717.530273438 328.51953125 l 1,259,-1
 717.530273438 34.1298828125 l 2,260,261
 717.530273438 11.83984375 717.530273438 11.83984375 739.370117188 11.83984375 c 0,262,263
 760.75 11.83984375 760.75 11.83984375 760.75 34.1298828125 c 2,264,-1
 760.75 328.51953125 l 1,265,-1
 778.950195312 328.51953125 l 1,252,-1
823.080078125 314.870117188 m 1,266,-1
 790.780273438 314.870117188 l 1,267,-1
 790.780273438 328.51953125 l 1,268,-1
 873.58984375 328.51953125 l 1,269,-1
 873.58984375 314.870117188 l 1,270,-1
 841.290039062 314.870117188 l 1,271,-1
 841.290039062 0.009765625 l 1,272,-1
 823.08984375 0.009765625 l 1,273,-1
 823.080078125 314.870117188 l 1,266,-1
886.780273438 328.51953125 m 1,274,-1
 904.979492188 328.51953125 l 1,275,-1
 904.979492188 0.009765625 l 1,276,-1
 886.780273438 0.009765625 l 1,277,-1
 886.780273438 328.51953125 l 1,274,-1
936.379882812 328.51953125 m 1,278,-1
 998.719726562 328.51953125 l 1,279,-1
 998.719726562 314.870117188 l 1,280,-1
 954.580078125 314.870117188 l 1,281,-1
 954.580078125 175.639648438 l 1,282,-1
 996.899414062 175.639648438 l 1,283,-1
 996.899414062 161.990234375 l 1,284,-1
 954.580078125 161.990234375 l 1,285,-1
 954.580078125 0.009765625 l 1,286,-1
 936.379882812 0.009765625 l 1,287,-1
 936.379882812 328.51953125 l 1,278,-1
EndSplineSet
Validated: 5
EndChar

StartChar: i
Encoding: 105 105 88
Width: 964
GlyphClass: 1
Flags: W
LayerCount: 2
Fore
SplineSet
0 687.349609375 m 2,0,1
 0 704.299804688 0 704.299804688 10.2333984375 713.569335938 c 128,-1,2
 20.466796875 722.83984375 20.466796875 722.83984375 38.6806640625 722.83984375 c 0,3,4
 75.5302734375 722.83984375 75.5302734375 722.83984375 75.5302734375 687.349609375 c 2,5,-1
 75.5302734375 633.200195312 l 1,6,-1
 57.330078125 633.200195312 l 1,7,-1
 57.330078125 684.620117188 l 2,8,9
 57.330078125 709.190429688 57.330078125 709.190429688 38.6806640625 709.190429688 c 0,10,11
 18.2001953125 709.190429688 18.2001953125 709.190429688 18.2001953125 688.709960938 c 2,12,-1
 18.2001953125 424.809570312 l 2,13,14
 18.2001953125 404.330078125 18.2001953125 404.330078125 38.6806640625 404.330078125 c 0,15,16
 49.2626953125 404.330078125 49.2626953125 404.330078125 53.2958984375 410.059570312 c 128,-1,17
 57.330078125 415.790039062 57.330078125 415.790039062 57.330078125 428.900390625 c 2,18,-1
 57.330078125 484.860351562 l 1,19,-1
 75.5302734375 484.860351562 l 1,20,-1
 75.5302734375 426.16015625 l 2,21,22
 75.5302734375 390.669921875 75.5302734375 390.669921875 38.6806640625 390.669921875 c 0,23,24
 20.4716796875 390.669921875 20.4716796875 390.669921875 10.236328125 399.940429688 c 128,-1,25
 0 409.211914062 0 409.211914062 0 426.16015625 c 2,26,-1
 0 687.349609375 l 2,0,1
178.810546875 426.1796875 m 2,27,28
 178.810546875 390.690429688 178.810546875 390.690429688 139.23046875 390.690429688 c 0,29,30
 99.1904296875 390.690429688 99.1904296875 390.690429688 99.1904296875 426.1796875 c 2,31,-1
 99.1904296875 687.349609375 l 2,32,33
 99.1904296875 722.83984375 99.1904296875 722.83984375 139.23046875 722.83984375 c 0,34,35
 178.810546875 722.83984375 178.810546875 722.83984375 178.810546875 687.349609375 c 2,36,-1
 178.810546875 426.1796875 l 2,27,28
160.610351562 686.900390625 m 2,37,38
 160.610351562 709.190429688 160.610351562 709.190429688 139.220703125 709.190429688 c 0,39,40
 117.380859375 709.190429688 117.380859375 709.190429688 117.380859375 686.900390625 c 2,41,-1
 117.380859375 426.639648438 l 2,42,43
 117.380859375 404.349609375 117.380859375 404.349609375 139.220703125 404.349609375 c 0,44,45
 160.610351562 404.349609375 160.610351562 404.349609375 160.610351562 426.639648438 c 2,46,-1
 160.610351562 686.900390625 l 2,37,38
197.919921875 512.629882812 m 1,47,-1
 240.23046875 512.629882812 l 1,48,-1
 240.23046875 500.799804688 l 1,49,-1
 197.919921875 500.799804688 l 1,50,-1
 197.919921875 512.629882812 l 1,47,-1
259.340820312 721.01953125 m 1,51,-1
 300.290039062 721.01953125 l 2,52,53
 337.600585938 721.01953125 337.600585938 721.01953125 337.600585938 689.620117188 c 2,54,-1
 337.600585938 582.240234375 l 2,55,56
 337.600585938 567.869140625 337.600585938 567.869140625 327.946289062 559.354492188 c 128,-1,57
 318.291015625 550.83984375 318.291015625 550.83984375 300.290039062 550.83984375 c 2,58,-1
 277.540039062 550.83984375 l 1,59,-1
 277.540039062 392.5 l 1,60,-1
 259.340820312 392.5 l 1,61,-1
 259.340820312 721.01953125 l 1,51,-1
297.100585938 564.5 m 2,62,63
 319.390625 564.5 319.390625 564.5 319.390625 584.059570312 c 2,64,-1
 319.390625 686.889648438 l 2,65,66
 319.390625 707.370117188 319.390625 707.370117188 297.100585938 707.370117188 c 2,67,-1
 277.540039062 707.370117188 l 1,68,-1
 277.540039062 564.5 l 1,69,-1
 297.100585938 564.5 l 2,62,63
360.340820312 721.01953125 m 1,70,-1
 401.290039062 721.01953125 l 2,71,72
 438.600585938 721.01953125 438.600585938 721.01953125 438.600585938 690.540039062 c 2,73,-1
 438.600585938 593.620117188 l 2,74,75
 438.600585938 563.522460938 438.600585938 563.522460938 410.390625 561.309570312 c 1,76,-1
 410.390625 560.400390625 l 1,77,78
 438.600585938 558.057617188 438.600585938 558.057617188 438.600585938 530.8203125 c 2,79,-1
 438.600585938 392.5 l 1,80,-1
 420.400390625 392.5 l 1,81,-1
 420.400390625 530.8203125 l 2,82,83
 420.400390625 554.48046875 420.400390625 554.48046875 395.380859375 554.48046875 c 2,84,-1
 378.55078125 554.48046875 l 1,85,-1
 378.55078125 392.5 l 1,86,-1
 360.350585938 392.5 l 1,87,-1
 360.340820312 721.01953125 l 1,70,-1
396.290039062 568.139648438 m 1,88,89
 420.400390625 568.139648438 420.400390625 568.139648438 420.400390625 589.98046875 c 2,90,-1
 420.400390625 686.900390625 l 2,91,92
 420.400390625 707.379882812 420.400390625 707.379882812 398.110351562 707.379882812 c 2,93,-1
 378.55078125 707.379882812 l 1,94,-1
 378.55078125 568.150390625 l 1,95,-1
 396.290039062 568.139648438 l 1,88,89
549.620117188 426.1796875 m 2,96,97
 549.620117188 390.690429688 549.620117188 390.690429688 510.030273438 390.690429688 c 0,98,99
 469.990234375 390.690429688 469.990234375 390.690429688 469.990234375 426.1796875 c 2,100,-1
 469.990234375 687.349609375 l 2,101,102
 469.990234375 722.83984375 469.990234375 722.83984375 510.030273438 722.83984375 c 0,103,104
 549.620117188 722.83984375 549.620117188 722.83984375 549.620117188 687.349609375 c 2,105,-1
 549.620117188 426.1796875 l 2,96,97
531.419921875 686.900390625 m 2,106,107
 531.419921875 709.190429688 531.419921875 709.190429688 510.030273438 709.190429688 c 0,108,109
 488.190429688 709.190429688 488.190429688 709.190429688 488.190429688 686.900390625 c 2,110,-1
 488.190429688 426.639648438 l 2,111,112
 488.190429688 404.349609375 488.190429688 404.349609375 510.030273438 404.349609375 c 0,113,114
 531.419921875 404.349609375 531.419921875 404.349609375 531.419921875 426.639648438 c 2,115,-1
 531.419921875 686.900390625 l 2,106,107
579.650390625 721.01953125 m 1,116,-1
 618.330078125 721.01953125 l 2,117,118
 659.280273438 721.01953125 659.280273438 721.01953125 659.280273438 685.98046875 c 2,119,-1
 659.280273438 427.540039062 l 2,120,121
 659.280273438 392.5 659.280273438 392.5 618.330078125 392.5 c 2,122,-1
 579.650390625 392.5 l 1,123,-1
 579.650390625 721.01953125 l 1,116,-1
616.5 406.16015625 m 2,124,125
 641.0703125 406.16015625 641.0703125 406.16015625 641.0703125 426.1796875 c 2,126,-1
 641.0703125 687.349609375 l 2,127,128
 641.0703125 707.370117188 641.0703125 707.370117188 616.5 707.370117188 c 2,129,-1
 597.850585938 707.370117188 l 1,130,-1
 597.850585938 406.16015625 l 1,131,-1
 616.5 406.16015625 l 2,124,125
768.930664062 721.01953125 m 1,132,-1
 768.930664062 426.1796875 l 2,133,134
 768.930664062 390.690429688 768.930664062 390.690429688 729.340820312 390.690429688 c 0,135,136
 689.30078125 390.690429688 689.30078125 390.690429688 689.30078125 426.1796875 c 2,137,-1
 689.30078125 721.01953125 l 1,138,-1
 707.5 721.01953125 l 1,139,-1
 707.5 426.629882812 l 2,140,141
 707.5 404.33984375 707.5 404.33984375 729.340820312 404.33984375 c 0,142,143
 750.73046875 404.33984375 750.73046875 404.33984375 750.73046875 426.629882812 c 2,144,-1
 750.73046875 721.01953125 l 1,145,-1
 768.930664062 721.01953125 l 1,132,-1
800.3203125 721.01953125 m 1,146,-1
 818.520507812 721.01953125 l 1,147,-1
 818.520507812 392.509765625 l 1,148,-1
 800.3203125 392.509765625 l 1,149,-1
 800.3203125 721.01953125 l 1,146,-1
864.020507812 707.370117188 m 1,150,-1
 831.720703125 707.370117188 l 1,151,-1
 831.720703125 721.01953125 l 1,152,-1
 914.530273438 721.01953125 l 1,153,-1
 914.530273438 707.370117188 l 1,154,-1
 882.220703125 707.370117188 l 1,155,-1
 882.220703125 392.509765625 l 1,156,-1
 864.020507812 392.509765625 l 1,157,-1
 864.020507812 707.370117188 l 1,150,-1
627.430664062 328.51953125 m 1,158,-1
 668.380859375 328.51953125 l 2,159,160
 705.690429688 328.51953125 705.690429688 328.51953125 705.690429688 297.120117188 c 2,161,-1
 705.690429688 189.740234375 l 2,162,163
 705.690429688 175.375976562 705.690429688 175.375976562 696.03515625 166.862304688 c 128,-1,164
 686.380859375 158.349609375 686.380859375 158.349609375 668.380859375 158.349609375 c 2,165,-1
 645.630859375 158.349609375 l 1,166,-1
 645.630859375 0.009765625 l 1,167,-1
 627.430664062 0.009765625 l 1,168,-1
 627.430664062 328.51953125 l 1,158,-1
665.190429688 172 m 1,169,170
 687.48046875 172 687.48046875 172 687.48046875 191.5703125 c 2,171,-1
 687.48046875 294.400390625 l 2,172,173
 687.48046875 314.879882812 687.48046875 314.879882812 665.190429688 314.879882812 c 2,174,-1
 645.630859375 314.879882812 l 1,175,-1
 645.630859375 172.009765625 l 1,176,-1
 665.190429688 172 l 1,169,170
776.669921875 96.01953125 m 1,177,-1
 731.620117188 96.01953125 l 1,178,-1
 721.610351562 0.009765625 l 1,179,-1
 705.23046875 0.009765625 l 1,180,-1
 742.090820312 328.51953125 l 1,181,-1
 767.5703125 328.51953125 l 1,182,-1
 805.340820312 0.009765625 l 1,183,-1
 787.140625 0.009765625 l 1,184,-1
 776.669921875 96.01953125 l 1,177,-1
775.30078125 109.669921875 m 1,185,-1
 763.919921875 217.509765625 l 2,186,187
 755.44921875 293.754882812 755.44921875 293.754882812 754.8203125 316.700195312 c 1,188,189
 752.08984375 300.3203125 752.08984375 300.3203125 749.5859375 267.10546875 c 128,-1,190
 747.080078125 233.889648438 747.080078125 233.889648438 745.260742188 217.509765625 c 2,191,-1
 733.430664062 109.669921875 l 1,192,-1
 775.30078125 109.669921875 l 1,185,-1
816.700195312 328.51953125 m 1,193,-1
 857.650390625 328.51953125 l 2,194,195
 894.959960938 328.51953125 894.959960938 328.51953125 894.959960938 298.040039062 c 2,196,-1
 894.959960938 201.120117188 l 2,197,198
 894.959960938 171.03125 894.959960938 171.03125 866.75 168.8203125 c 1,199,-1
 866.75 167.91015625 l 1,200,201
 894.959960938 165.55078125 894.959960938 165.55078125 894.959960938 138.330078125 c 2,202,-1
 894.959960938 0.009765625 l 1,203,-1
 876.760742188 0.009765625 l 1,204,-1
 876.760742188 138.330078125 l 2,205,206
 876.760742188 161.990234375 876.760742188 161.990234375 851.73046875 161.990234375 c 2,207,-1
 834.900390625 161.990234375 l 1,208,-1
 834.900390625 0.009765625 l 1,209,-1
 816.700195312 0.009765625 l 1,210,-1
 816.700195312 328.51953125 l 1,193,-1
852.650390625 175.639648438 m 1,211,212
 876.770507812 175.639648438 876.770507812 175.639648438 876.770507812 197.48046875 c 2,213,-1
 876.770507812 294.400390625 l 2,214,215
 876.770507812 314.879882812 876.770507812 314.879882812 854.470703125 314.879882812 c 2,216,-1
 834.91015625 314.879882812 l 1,217,-1
 834.91015625 175.650390625 l 1,218,-1
 852.650390625 175.639648438 l 1,211,212
EndSplineSet
Validated: 1
EndChar

StartChar: j
Encoding: 106 106 89
Width: 705
GlyphClass: 1
Flags: W
LayerCount: 2
Fore
SplineSet
0 721.01953125 m 1,0,-1
 40.9501953125 721.01953125 l 2,1,2
 78.259765625 721.01953125 78.259765625 721.01953125 78.259765625 689.620117188 c 2,3,-1
 78.259765625 582.240234375 l 2,4,5
 78.259765625 567.869140625 78.259765625 567.869140625 68.60546875 559.354492188 c 128,-1,6
 58.951171875 550.83984375 58.951171875 550.83984375 40.9501953125 550.83984375 c 2,7,-1
 18.2001953125 550.83984375 l 1,8,-1
 18.2001953125 392.5 l 1,9,-1
 0 392.5 l 1,10,-1
 0 721.01953125 l 1,0,-1
37.759765625 564.5 m 2,11,12
 60.0498046875 564.5 60.0498046875 564.5 60.0498046875 584.059570312 c 2,13,-1
 60.0498046875 686.889648438 l 2,14,15
 60.0498046875 707.370117188 60.0498046875 707.370117188 37.759765625 707.370117188 c 2,16,-1
 18.2001953125 707.370117188 l 1,17,-1
 18.2001953125 564.5 l 1,18,-1
 37.759765625 564.5 l 2,11,12
101 721.01953125 m 1,19,-1
 141.950195312 721.01953125 l 2,20,21
 179.259765625 721.01953125 179.259765625 721.01953125 179.259765625 690.540039062 c 2,22,-1
 179.259765625 593.620117188 l 2,23,24
 179.259765625 563.522460938 179.259765625 563.522460938 151.049804688 561.309570312 c 1,25,-1
 151.049804688 560.400390625 l 1,26,27
 179.259765625 558.057617188 179.259765625 558.057617188 179.259765625 530.8203125 c 2,28,-1
 179.259765625 392.5 l 1,29,-1
 161.059570312 392.5 l 1,30,-1
 161.059570312 530.8203125 l 2,31,32
 161.059570312 554.48046875 161.059570312 554.48046875 136.040039062 554.48046875 c 2,33,-1
 119.209960938 554.48046875 l 1,34,-1
 119.209960938 392.5 l 1,35,-1
 101.009765625 392.5 l 1,36,-1
 101 721.01953125 l 1,19,-1
136.939453125 568.139648438 m 1,37,38
 161.049804688 568.139648438 161.049804688 568.139648438 161.049804688 589.98046875 c 2,39,-1
 161.049804688 686.900390625 l 2,40,41
 161.049804688 707.379882812 161.049804688 707.379882812 138.759765625 707.379882812 c 2,42,-1
 119.200195312 707.379882812 l 1,43,-1
 119.200195312 568.150390625 l 1,44,-1
 136.939453125 568.139648438 l 1,37,38
290.280273438 426.1796875 m 2,45,46
 290.280273438 390.690429688 290.280273438 390.690429688 250.689453125 390.690429688 c 0,47,48
 210.649414062 390.690429688 210.649414062 390.690429688 210.649414062 426.1796875 c 2,49,-1
 210.649414062 687.349609375 l 2,50,51
 210.649414062 722.83984375 210.649414062 722.83984375 250.689453125 722.83984375 c 0,52,53
 290.280273438 722.83984375 290.280273438 722.83984375 290.280273438 687.349609375 c 2,54,-1
 290.280273438 426.1796875 l 2,45,46
272.080078125 686.900390625 m 2,55,56
 272.080078125 709.190429688 272.080078125 709.190429688 250.689453125 709.190429688 c 0,57,58
 228.849609375 709.190429688 228.849609375 709.190429688 228.849609375 686.900390625 c 2,59,-1
 228.849609375 426.639648438 l 2,60,61
 228.849609375 404.349609375 228.849609375 404.349609375 250.689453125 404.349609375 c 0,62,63
 272.080078125 404.349609375 272.080078125 404.349609375 272.080078125 426.639648438 c 2,64,-1
 272.080078125 686.900390625 l 2,55,56
320.309570312 721.01953125 m 1,65,-1
 358.990234375 721.01953125 l 2,66,67
 399.939453125 721.01953125 399.939453125 721.01953125 399.939453125 685.98046875 c 2,68,-1
 399.939453125 427.540039062 l 2,69,70
 399.939453125 392.5 399.939453125 392.5 358.990234375 392.5 c 2,71,-1
 320.309570312 392.5 l 1,72,-1
 320.309570312 721.01953125 l 1,65,-1
357.16015625 406.16015625 m 2,73,74
 381.729492188 406.16015625 381.729492188 406.16015625 381.729492188 426.1796875 c 2,75,-1
 381.729492188 687.349609375 l 2,76,77
 381.729492188 707.370117188 381.729492188 707.370117188 357.16015625 707.370117188 c 2,78,-1
 338.509765625 707.370117188 l 1,79,-1
 338.509765625 406.16015625 l 1,80,-1
 357.16015625 406.16015625 l 2,73,74
509.58984375 721.01953125 m 1,81,-1
 509.58984375 426.1796875 l 2,82,83
 509.58984375 390.690429688 509.58984375 390.690429688 470 390.690429688 c 0,84,85
 429.959960938 390.690429688 429.959960938 390.690429688 429.959960938 426.1796875 c 2,86,-1
 429.959960938 721.01953125 l 1,87,-1
 448.16015625 721.01953125 l 1,88,-1
 448.16015625 426.629882812 l 2,89,90
 448.16015625 404.33984375 448.16015625 404.33984375 470 404.33984375 c 0,91,92
 491.389648438 404.33984375 491.389648438 404.33984375 491.389648438 426.629882812 c 2,93,-1
 491.389648438 721.01953125 l 1,94,-1
 509.58984375 721.01953125 l 1,81,-1
540.979492188 721.01953125 m 1,95,-1
 559.1796875 721.01953125 l 1,96,-1
 559.1796875 392.509765625 l 1,97,-1
 540.979492188 392.509765625 l 1,98,-1
 540.979492188 721.01953125 l 1,95,-1
604.6796875 707.370117188 m 1,99,-1
 572.370117188 707.370117188 l 1,100,-1
 572.370117188 721.01953125 l 1,101,-1
 655.1796875 721.01953125 l 1,102,-1
 655.1796875 707.370117188 l 1,103,-1
 622.870117188 707.370117188 l 1,104,-1
 622.870117188 392.509765625 l 1,105,-1
 604.669921875 392.509765625 l 1,106,-1
 604.6796875 707.370117188 l 1,99,-1
368.08984375 328.51953125 m 1,107,-1
 409.040039062 328.51953125 l 2,108,109
 446.349609375 328.51953125 446.349609375 328.51953125 446.349609375 297.120117188 c 2,110,-1
 446.349609375 189.740234375 l 2,111,112
 446.349609375 175.375976562 446.349609375 175.375976562 436.6953125 166.862304688 c 128,-1,113
 427.040039062 158.349609375 427.040039062 158.349609375 409.040039062 158.349609375 c 2,114,-1
 386.290039062 158.349609375 l 1,115,-1
 386.290039062 0.009765625 l 1,116,-1
 368.08984375 0.009765625 l 1,117,-1
 368.08984375 328.51953125 l 1,107,-1
405.849609375 172 m 1,118,119
 428.139648438 172 428.139648438 172 428.139648438 191.5703125 c 2,120,-1
 428.139648438 294.400390625 l 2,121,122
 428.139648438 314.879882812 428.139648438 314.879882812 405.849609375 314.879882812 c 2,123,-1
 386.290039062 314.879882812 l 1,124,-1
 386.290039062 172.009765625 l 1,125,-1
 405.849609375 172 l 1,118,119
517.3203125 96.01953125 m 1,126,-1
 472.26953125 96.01953125 l 1,127,-1
 462.259765625 0.009765625 l 1,128,-1
 445.879882812 0.009765625 l 1,129,-1
 482.740234375 328.51953125 l 1,130,-1
 508.219726562 328.51953125 l 1,131,-1
 545.990234375 0.009765625 l 1,132,-1
 527.790039062 0.009765625 l 1,133,-1
 517.3203125 96.01953125 l 1,126,-1
515.959960938 109.669921875 m 1,134,-1
 504.580078125 217.509765625 l 2,135,136
 496.108398438 293.740234375 496.108398438 293.740234375 495.479492188 316.700195312 c 1,137,-1
 494.5703125 316.700195312 l 1,138,139
 492.75 300.31640625 492.75 300.31640625 490.244140625 267.1015625 c 128,-1,140
 487.739257812 233.885742188 487.739257812 233.885742188 485.919921875 217.509765625 c 2,141,-1
 474.08984375 109.669921875 l 1,142,-1
 515.959960938 109.669921875 l 1,134,-1
557.360351562 328.51953125 m 1,143,-1
 598.309570312 328.51953125 l 2,144,145
 635.620117188 328.51953125 635.620117188 328.51953125 635.620117188 298.040039062 c 2,146,-1
 635.620117188 201.120117188 l 2,147,148
 635.620117188 171.03125 635.620117188 171.03125 607.41015625 168.8203125 c 1,149,-1
 607.41015625 167.91015625 l 1,150,151
 635.620117188 165.55078125 635.620117188 165.55078125 635.620117188 138.330078125 c 2,152,-1
 635.620117188 0.009765625 l 1,153,-1
 617.419921875 0.009765625 l 1,154,-1
 617.419921875 138.330078125 l 2,155,156
 617.419921875 161.990234375 617.419921875 161.990234375 592.399414062 161.990234375 c 2,157,-1
 575.5703125 161.990234375 l 1,158,-1
 575.5703125 0.009765625 l 1,159,-1
 557.370117188 0.009765625 l 1,160,-1
 557.360351562 328.51953125 l 1,143,-1
593.299804688 175.639648438 m 1,161,162
 617.41015625 175.639648438 617.41015625 175.639648438 617.41015625 197.48046875 c 2,163,-1
 617.41015625 294.400390625 l 2,164,165
 617.41015625 314.879882812 617.41015625 314.879882812 595.120117188 314.879882812 c 2,166,-1
 575.559570312 314.879882812 l 1,167,-1
 575.559570312 175.650390625 l 1,168,-1
 593.299804688 175.639648438 l 1,161,162
EndSplineSet
Validated: 1
EndChar

StartChar: k
Encoding: 107 107 90
Width: 632
GlyphClass: 1
Flags: W
LayerCount: 2
Fore
SplineSet
0 721.01953125 m 1,0,-1
 40.9501953125 721.01953125 l 2,1,2
 78.259765625 721.01953125 78.259765625 721.01953125 78.259765625 690.540039062 c 2,3,-1
 78.259765625 593.620117188 l 2,4,5
 78.259765625 563.522460938 78.259765625 563.522460938 50.0498046875 561.309570312 c 1,6,-1
 50.0498046875 560.400390625 l 1,7,8
 78.259765625 558.057617188 78.259765625 558.057617188 78.259765625 530.8203125 c 2,9,-1
 78.259765625 392.5 l 1,10,-1
 60.0595703125 392.5 l 1,11,-1
 60.0595703125 530.8203125 l 2,12,13
 60.0595703125 554.48046875 60.0595703125 554.48046875 35.0400390625 554.48046875 c 2,14,-1
 18.2099609375 554.48046875 l 1,15,-1
 18.2099609375 392.5 l 1,16,-1
 0.009765625 392.5 l 1,17,-1
 0 721.01953125 l 1,0,-1
35.9501953125 568.139648438 m 1,18,19
 60.0595703125 568.139648438 60.0595703125 568.139648438 60.0595703125 589.98046875 c 2,20,-1
 60.0595703125 686.900390625 l 2,21,22
 60.0595703125 707.379882812 60.0595703125 707.379882812 37.76953125 707.379882812 c 2,23,-1
 18.2099609375 707.379882812 l 1,24,-1
 18.2099609375 568.150390625 l 1,25,-1
 35.9501953125 568.139648438 l 1,18,19
109.66015625 721.01953125 m 1,26,-1
 171.990234375 721.01953125 l 1,27,-1
 171.990234375 707.370117188 l 1,28,-1
 127.860351562 707.370117188 l 1,29,-1
 127.860351562 568.139648438 l 1,30,-1
 169.259765625 568.139648438 l 1,31,-1
 169.259765625 554.490234375 l 1,32,-1
 127.860351562 554.490234375 l 1,33,-1
 127.860351562 406.16015625 l 1,34,-1
 175.1796875 406.16015625 l 1,35,-1
 175.1796875 392.509765625 l 1,36,-1
 109.66015625 392.509765625 l 1,37,-1
 109.66015625 721.01953125 l 1,26,-1
143.780273438 785.1796875 m 1,38,-1
 163.799804688 785.1796875 l 1,39,-1
 137.41015625 741.5 l 1,40,-1
 125.580078125 741.5 l 1,41,-1
 143.780273438 785.1796875 l 1,38,-1
246.610351562 488.51953125 m 1,42,-1
 201.559570312 488.51953125 l 1,43,-1
 191.549804688 392.509765625 l 1,44,-1
 175.169921875 392.509765625 l 1,45,-1
 212.030273438 721.01953125 l 1,46,-1
 237.509765625 721.01953125 l 1,47,-1
 275.280273438 392.509765625 l 1,48,-1
 257.080078125 392.509765625 l 1,49,-1
 246.610351562 488.51953125 l 1,42,-1
245.25 502.169921875 m 1,50,-1
 233.870117188 610.009765625 l 2,51,52
 225.3984375 686.237304688 225.3984375 686.237304688 224.76953125 709.200195312 c 1,53,-1
 223.860351562 709.200195312 l 1,54,55
 222.040039062 692.81640625 222.040039062 692.81640625 219.534179688 659.6015625 c 128,-1,56
 217.029296875 626.385742188 217.029296875 626.385742188 215.209960938 610.009765625 c 2,57,-1
 203.379882812 502.169921875 l 1,58,-1
 245.25 502.169921875 l 1,50,-1
286.650390625 721.01953125 m 1,59,-1
 304.849609375 721.01953125 l 1,60,-1
 304.849609375 406.16015625 l 1,61,-1
 352.620117188 406.16015625 l 1,62,-1
 352.620117188 392.509765625 l 1,63,-1
 286.639648438 392.509765625 l 1,64,-1
 286.650390625 721.01953125 l 1,59,-1
372.189453125 721.01953125 m 1,65,-1
 390.389648438 721.01953125 l 1,66,-1
 390.389648438 392.509765625 l 1,67,-1
 372.189453125 392.509765625 l 1,68,-1
 372.189453125 721.01953125 l 1,65,-1
431.790039062 424.360351562 m 1,69,70
 431.790039062 404.33984375 431.790039062 404.33984375 452.719726562 404.33984375 c 0,71,72
 475.01953125 404.33984375 475.01953125 404.33984375 475.01953125 425.26953125 c 2,73,-1
 475.01953125 481.690429688 l 2,74,75
 475.01953125 501.469726562 475.01953125 501.469726562 465.459960938 524.009765625 c 2,76,-1
 427.240234375 596.360351562 l 2,77,78
 415.41015625 618.641601562 415.41015625 618.641601562 415.41015625 640.950195312 c 2,79,-1
 415.41015625 688.719726562 l 2,80,81
 415.41015625 704.6875 415.41015625 704.6875 425.548828125 713.768554688 c 128,-1,82
 435.688476562 722.849609375 435.688476562 722.849609375 453.1796875 722.849609375 c 0,83,84
 490.490234375 722.849609375 490.490234375 722.849609375 490.490234375 692.360351562 c 2,85,-1
 490.490234375 633.66015625 l 1,86,-1
 474.110351562 633.66015625 l 1,87,-1
 474.110351562 690.540039062 l 2,88,89
 474.110351562 709.190429688 474.110351562 709.190429688 454.549804688 709.190429688 c 0,90,91
 445.317382812 709.190429688 445.317382812 709.190429688 440.1484375 703.668945312 c 128,-1,92
 434.979492188 698.1484375 434.979492188 698.1484375 434.979492188 689.629882812 c 2,93,-1
 434.979492188 638.669921875 l 2,94,95
 434.979492188 623.170898438 434.979492188 623.170898438 442.259765625 607.26953125 c 2,96,-1
 479.5703125 535.830078125 l 2,97,98
 493.219726562 508.512695312 493.219726562 508.512695312 493.219726562 486.23046875 c 2,99,-1
 493.219726562 424.349609375 l 2,100,101
 493.219726562 390.6796875 493.219726562 390.6796875 454.08984375 390.6796875 c 0,102,103
 415.41015625 390.6796875 415.41015625 390.6796875 415.41015625 425.719726562 c 2,104,-1
 415.41015625 483.959960938 l 1,105,-1
 431.790039062 483.959960938 l 1,106,-1
 431.790039062 424.360351562 l 1,69,70
516.879882812 721.01953125 m 1,107,-1
 579.209960938 721.01953125 l 1,108,-1
 579.209960938 707.370117188 l 1,109,-1
 535.080078125 707.370117188 l 1,110,-1
 535.080078125 568.139648438 l 1,111,-1
 576.479492188 568.139648438 l 1,112,-1
 576.479492188 554.490234375 l 1,113,-1
 535.080078125 554.490234375 l 1,114,-1
 535.080078125 406.16015625 l 1,115,-1
 582.400390625 406.16015625 l 1,116,-1
 582.400390625 392.509765625 l 1,117,-1
 516.879882812 392.509765625 l 1,118,-1
 516.879882812 721.01953125 l 1,107,-1
551 785.1796875 m 1,119,-1
 571.01953125 785.1796875 l 1,120,-1
 544.629882812 741.5 l 1,121,-1
 532.799804688 741.5 l 1,122,-1
 551 785.1796875 l 1,119,-1
302.129882812 328.51953125 m 1,123,-1
 343.080078125 328.51953125 l 2,124,125
 380.389648438 328.51953125 380.389648438 328.51953125 380.389648438 297.120117188 c 2,126,-1
 380.389648438 189.740234375 l 2,127,128
 380.389648438 175.375976562 380.389648438 175.375976562 370.735351562 166.862304688 c 128,-1,129
 361.080078125 158.349609375 361.080078125 158.349609375 343.080078125 158.349609375 c 2,130,-1
 320.330078125 158.349609375 l 1,131,-1
 320.330078125 0.009765625 l 1,132,-1
 302.129882812 0.009765625 l 1,133,-1
 302.129882812 328.51953125 l 1,123,-1
339.889648438 172 m 1,134,135
 362.1796875 172 362.1796875 172 362.1796875 191.5703125 c 2,136,-1
 362.1796875 294.400390625 l 2,137,138
 362.1796875 314.879882812 362.1796875 314.879882812 339.889648438 314.879882812 c 2,139,-1
 320.330078125 314.879882812 l 1,140,-1
 320.330078125 172.009765625 l 1,141,-1
 339.889648438 172 l 1,134,135
451.360351562 96.01953125 m 1,142,-1
 406.309570312 96.01953125 l 1,143,-1
 396.299804688 0.009765625 l 1,144,-1
 379.919921875 0.009765625 l 1,145,-1
 416.780273438 328.51953125 l 1,146,-1
 442.259765625 328.51953125 l 1,147,-1
 480.030273438 0.009765625 l 1,148,-1
 461.830078125 0.009765625 l 1,149,-1
 451.360351562 96.01953125 l 1,142,-1
450 109.669921875 m 1,150,-1
 438.620117188 217.509765625 l 2,151,152
 430.1484375 293.740234375 430.1484375 293.740234375 429.51953125 316.700195312 c 1,153,-1
 428.610351562 316.700195312 l 1,154,155
 426.790039062 300.31640625 426.790039062 300.31640625 424.284179688 267.1015625 c 128,-1,156
 421.779296875 233.885742188 421.779296875 233.885742188 419.959960938 217.509765625 c 2,157,-1
 408.129882812 109.669921875 l 1,158,-1
 450 109.669921875 l 1,150,-1
491.400390625 328.51953125 m 1,159,-1
 532.349609375 328.51953125 l 2,160,161
 569.66015625 328.51953125 569.66015625 328.51953125 569.66015625 298.040039062 c 2,162,-1
 569.66015625 201.120117188 l 2,163,164
 569.66015625 171.03125 569.66015625 171.03125 541.450195312 168.8203125 c 1,165,-1
 541.450195312 167.91015625 l 1,166,167
 569.66015625 165.55078125 569.66015625 165.55078125 569.66015625 138.330078125 c 2,168,-1
 569.66015625 0.009765625 l 1,169,-1
 551.459960938 0.009765625 l 1,170,-1
 551.459960938 138.330078125 l 2,171,172
 551.459960938 161.990234375 551.459960938 161.990234375 526.439453125 161.990234375 c 2,173,-1
 509.610351562 161.990234375 l 1,174,-1
 509.610351562 0.009765625 l 1,175,-1
 491.41015625 0.009765625 l 1,176,-1
 491.400390625 328.51953125 l 1,159,-1
527.33984375 175.639648438 m 1,177,178
 551.450195312 175.639648438 551.450195312 175.639648438 551.450195312 197.48046875 c 2,179,-1
 551.450195312 294.400390625 l 2,180,181
 551.450195312 314.879882812 551.450195312 314.879882812 529.16015625 314.879882812 c 2,182,-1
 509.599609375 314.879882812 l 1,183,-1
 509.599609375 175.650390625 l 1,184,-1
 527.33984375 175.639648438 l 1,177,178
EndSplineSet
Validated: 5
EndChar

